<?xml version="1.0" encoding="UTF-8" standalone="no"?>
<svg
   xmlns:dc="http://purl.org/dc/elements/1.1/"
   xmlns:cc="http://creativecommons.org/ns#"
   xmlns:rdf="http://www.w3.org/1999/02/22-rdf-syntax-ns#"
   xmlns:svg="http://www.w3.org/2000/svg"
   xmlns="http://www.w3.org/2000/svg"
   xmlns:sodipodi="http://sodipodi.sourceforge.net/DTD/sodipodi-0.dtd"
   xmlns:inkscape="http://www.inkscape.org/namespaces/inkscape"
   id="svg8"
   version="1.1"
   viewBox="0 0 219.54608 173.26656"
   height="173.26656mm"
   width="219.54608mm"
   sodipodi:docname="CUARS_WhiteB_RedBlue_10-09-2019.svg"
   inkscape:export-filename="D:\Cardiff University\PhD\Cardiff ARS\Website Logo\CUARS_WhiteB_RedBlue_Bold.png"
   inkscape:export-xdpi="96"
   inkscape:export-ydpi="96"
   inkscape:version="0.92.4 (5da689c313, 2019-01-14)">
  <sodipodi:namedview
     pagecolor="#ffffff"
     bordercolor="#666666"
     borderopacity="1"
     objecttolerance="10"
     gridtolerance="10"
     guidetolerance="10"
     inkscape:pageopacity="0"
     inkscape:pageshadow="2"
     inkscape:window-width="1920"
     inkscape:window-height="1018"
     id="namedview102"
     showgrid="false"
     inkscape:zoom="1"
     inkscape:cx="579.55631"
     inkscape:cy="335.59629"
     inkscape:window-x="1912"
     inkscape:window-y="-8"
     inkscape:window-maximized="1"
     inkscape:current-layer="svg8"
     fit-margin-top="0"
     fit-margin-left="0"
     fit-margin-right="0"
     fit-margin-bottom="0"
     inkscape:snap-nodes="true"
     showguides="true"
     inkscape:guide-bbox="true" />
  <defs
     id="defs2">
    <inkscape:path-effect
       effect="mirror_symmetry"
       start_point="129.3724,85.302802"
       end_point="129.3724,93.894636"
       center_point="129.3724,89.598719"
       id="path-effect136"
       is_visible="true"
       mode="free"
       discard_orig_path="false"
       fuse_paths="false"
       oposite_fuse="false" />
  </defs>
  <metadata
     id="metadata5">
    <rdf:RDF>
      <cc:Work
         rdf:about="">
        <dc:format>image/svg+xml</dc:format>
        <dc:type
           rdf:resource="http://purl.org/dc/dcmitype/StillImage" />
        <dc:title></dc:title>
      </cc:Work>
    </rdf:RDF>
  </metadata>
  <g
     id="layer4"
     transform="translate(-84.470726,-18.541243)" />
  <g
     style="font-style:normal;font-variant:normal;font-weight:normal;font-stretch:normal;font-size:10.58333302px;line-height:1.25;font-family:'Franklin Gothic FS';-inkscape-font-specification:'Franklin Gothic FS';letter-spacing:0px;word-spacing:0px;fill:#000000;fill-opacity:1;stroke:none;stroke-width:0.26458332"
     id="flowRoot845"
     transform="translate(-20,-6.545754)" />
  <g
     style="font-style:normal;font-variant:normal;font-weight:normal;font-stretch:normal;font-size:10.58333302px;line-height:1.25;font-family:'Franklin Gothic FS';-inkscape-font-specification:'Franklin Gothic FS';letter-spacing:0px;word-spacing:0px;fill:#383735;fill-opacity:1;stroke:none;stroke-width:0.26458332"
     id="text817"
     transform="translate(-20,-6.545754)" />
  <g
     style="font-style:normal;font-variant:normal;font-weight:normal;font-stretch:normal;font-size:10.58333302px;line-height:1.25;font-family:'Franklin Gothic FS';-inkscape-font-specification:'Franklin Gothic FS';letter-spacing:0px;word-spacing:0px;fill:#2b354c;fill-opacity:1;stroke:none;stroke-width:1.00012505;stroke-miterlimit:4.75;stroke-dasharray:none;stroke-opacity:1"
     id="text4748"
     transform="translate(-20,-6.545754)" />
  <g
     style="font-style:normal;font-variant:normal;font-weight:normal;font-stretch:normal;font-size:10.58333302px;line-height:1.25;font-family:'Franklin Gothic FS';-inkscape-font-specification:'Franklin Gothic FS';letter-spacing:0px;word-spacing:0px;fill:#2b354c;fill-opacity:1;stroke:none;stroke-width:1.00012505;stroke-miterlimit:4.75;stroke-dasharray:none;stroke-opacity:1"
     id="text4752"
     transform="translate(-20,-6.545754)" />
  <g
     id="g185">
    <g
       transform="translate(-20,-6.545754)"
       id="g1163">
      <path
         inkscape:connector-curvature="0"
         d="m 54.226504,128.95593 c -1.16417,4.19101 -1.94028,5.97606 -3.4925,8.14917 -2.0955,2.87162 -5.82084,4.73429 -9.54617,4.73429 -8.614833,0 -14.125222,-8.3044 -14.125222,-21.18783 0,-13.50434 5.355167,-21.575895 14.358052,-21.575895 6.36412,0 10.08945,3.647725 12.65062,12.262555 l 6.05366,-1.16417 C 57.408554,99.075665 51.199664,93.565275 41.498284,93.565275 28.459612,93.565275 20,103.96517 20,119.95306 c 0,8.382 2.405945,15.83266 6.829778,21.11022 3.492501,4.11339 8.382001,6.2865 14.202836,6.2865 5.82083,0 10.55511,-2.0955 13.89239,-6.05368 2.56116,-3.02682 3.80294,-5.6656 5.19994,-11.02078 z"
         style="font-style:normal;font-variant:normal;font-weight:normal;font-stretch:normal;font-size:medium;line-height:1.25;font-family:'Franklin Gothic FS';-inkscape-font-specification:'Franklin Gothic FS';letter-spacing:0px;word-spacing:0px;fill:#d73648;fill-opacity:1;stroke:none;stroke-width:0.79374999;stroke-linecap:round;stroke-linejoin:round;stroke-miterlimit:5;stroke-dasharray:none;stroke-opacity:1;paint-order:stroke markers fill"
         id="path6003" />
      <path
         inkscape:connector-curvature="0"
         d="m 102.89837,94.574215 h -5.355166 v 33.838445 c 0,4.57905 -0.6985,7.29545 -2.56116,9.46855 -2.01789,2.40595 -5.51039,3.80295 -9.54617,3.80295 -4.03578,0 -7.83872,-1.47461 -9.62378,-3.80295 -1.47461,-1.94028 -2.0955,-4.65666 -2.0955,-9.46855 V 94.574215 h -6.44172 v 33.838445 c 0,5.89844 0.93133,9.62377 3.10444,12.80584 2.87161,4.11339 7.6835,6.13128 14.51328,6.13128 6.51933,0 11.48645,-2.0955 14.51328,-6.13128 2.483546,-3.25967 3.492496,-6.90739 3.492496,-12.80584 z"
         style="font-style:normal;font-variant:normal;font-weight:normal;font-stretch:normal;font-size:medium;line-height:1.25;font-family:'Franklin Gothic FS';-inkscape-font-specification:'Franklin Gothic FS';letter-spacing:0px;word-spacing:0px;fill:#d73648;fill-opacity:1;stroke:none;stroke-width:0.79374999;stroke-linecap:round;stroke-linejoin:round;stroke-miterlimit:5;stroke-dasharray:none;stroke-opacity:1;paint-order:stroke markers fill"
         id="path6005" />
    </g>
    <path
       id="path6009"
       style="font-style:normal;font-variant:normal;font-weight:normal;font-stretch:normal;font-size:77.6111145px;line-height:1.25;font-family:'Franklin Gothic FS';-inkscape-font-specification:'Franklin Gothic FS';letter-spacing:0px;word-spacing:0px;fill:#2b354c;fill-opacity:1;stroke:none;stroke-width:1.00012505;stroke-linecap:round;stroke-linejoin:round;stroke-miterlimit:4.75;stroke-dasharray:none;stroke-opacity:1;paint-order:stroke markers fill"
       d="m 137.78883,140.80402 h 6.05367 v -22.4296 h 14.82372 l 9.54617,22.4296 h 6.82978 l -10.16706,-23.98183 c 3.02684,-1.08655 4.50145,-1.94028 6.05367,-3.72532 2.17311,-2.40595 3.57011,-6.13128 3.57011,-9.54617 0,-8.614834 -6.67456,-14.513279 -16.37594,-14.513279 h -20.33412 z m 6.05367,-27.70714 V 94.703036 h 14.28045 c 6.13127,0 9.93422,3.33728 9.93422,8.692454 0,2.63876 -0.93134,5.04472 -2.63878,6.82978 -1.94028,2.01787 -4.34622,2.87161 -8.07156,2.87161 z"
       inkscape:connector-curvature="0" />
    <path
       id="path6011"
       style="font-style:normal;font-variant:normal;font-weight:normal;font-stretch:normal;font-size:77.6111145px;line-height:1.25;font-family:'Franklin Gothic FS';-inkscape-font-specification:'Franklin Gothic FS';letter-spacing:0px;word-spacing:0px;fill:#2b354c;fill-opacity:1;stroke:none;stroke-width:1.00012505;stroke-linecap:round;stroke-linejoin:round;stroke-miterlimit:4.75;stroke-dasharray:none;stroke-opacity:1;paint-order:stroke markers fill"
       d="m 196.57319,108.59543 c -6.05367,-1.47462 -8.45962,-3.72535 -8.45962,-7.83873 0,-4.889504 4.65667,-8.459619 10.94317,-8.459619 3.4925,0 7.06261,1.241785 9.62378,3.492505 1.70744,1.47461 2.56117,2.87161 3.25967,5.588004 l 5.82083,-1.629834 c -2.87161,-8.382005 -9.23572,-12.728225 -18.47145,-12.728225 -10.4775,0 -17.4625,5.66561 -17.4625,14.125229 0,3.95817 1.47461,7.45067 4.191,10.01183 2.0955,1.86267 4.26861,2.79399 8.53723,3.88055 l 10.32227,2.63878 c 4.96712,1.24177 7.91634,4.2686 7.91634,8.14915 0,5.89845 -4.73428,9.46856 -12.41778,9.46856 -7.91633,0 -12.88345,-3.41489 -15.28939,-10.55511 l -5.82083,1.24178 c 1.86266,4.8895 3.25966,7.14022 5.97605,9.62377 3.80295,3.57012 8.61484,5.19995 15.05656,5.19995 11.71928,0 19.24756,-6.13128 19.24756,-15.59984 0,-7.37305 -4.50145,-12.10731 -13.34912,-14.28043 z"
       inkscape:connector-curvature="0" />
    <path
       id="path6007"
       d="m 109.32027,76.117018 c -3.86606,-5e-5 -7.00014,3.134026 -7.00009,7.000089 0.004,2.406076 1.24254,4.641718 3.28094,5.920052 h -0.004 L 88.83328,140.80402 h 5.43275 l 4.57904,-15.13448 h 19.1699 l 5.2002,15.13448 h 6.67452 L 113.04821,89.038194 c 2.03535,-1.280634 3.27088,-3.516369 3.27215,-5.921087 5e-5,-3.866063 -3.13403,-7.000139 -7.00009,-7.000089 z m -0.61857,19.827728 7.91632,24.835174 h -15.91014 z"
       style="font-style:normal;font-variant:normal;font-weight:normal;font-stretch:normal;font-size:77.6111145px;line-height:1.25;font-family:'Franklin Gothic FS';-inkscape-font-specification:'Franklin Gothic FS';letter-spacing:0px;word-spacing:0px;fill:#2b354c;fill-opacity:1;stroke:none;stroke-width:1.00012493;stroke-linecap:round;stroke-linejoin:round;stroke-miterlimit:4.75;stroke-dasharray:none;stroke-opacity:1;paint-order:stroke markers fill"
       inkscape:connector-curvature="0" />
    <path
       inkscape:connector-curvature="0"
       id="path1296"
       style="font-style:normal;font-variant:normal;font-weight:600;font-stretch:normal;font-size:medium;line-height:1.25;font-family:'Franklin Gothic FS';-inkscape-font-specification:'Franklin Gothic FS Semi-Bold';letter-spacing:0px;word-spacing:0px;fill:#d73648;fill-opacity:1;stroke:none;stroke-width:0.30838785"
       d="m 5.296244,168.1473 c -0.185033,1.04852 -0.653783,1.55428 -1.467926,1.55428 -1.060855,0 -1.541939,-0.80181 -1.541939,-2.57812 0,-1.85033 0.49342,-2.76316 1.504932,-2.76316 0.530427,0 0.949834,0.25904 1.147203,0.70313 0.135691,0.29605 0.185033,0.51809 0.209703,1.04852 l 2.01069,-0.13569 c -0.135691,-0.97451 -0.296053,-1.45559 -0.703125,-2.0107 -0.555098,-0.77713 -1.443255,-1.17186 -2.602794,-1.17186 -1.184209,0 -2.084701,0.39473 -2.750819,1.2212 -0.641447,0.77715 -0.96217,1.80099 -0.96217,3.00987 0,2.57813 1.443255,4.24342 3.675983,4.24342 1.159538,0 2.134044,-0.45642 2.726149,-1.29523 0.357729,-0.49342 0.505756,-0.9005 0.616776,-1.71463 z" />
    <path
       inkscape:connector-curvature="0"
       id="path1298"
       style="font-style:normal;font-variant:normal;font-weight:600;font-stretch:normal;font-size:medium;line-height:1.25;font-family:'Franklin Gothic FS';-inkscape-font-specification:'Franklin Gothic FS Semi-Bold';letter-spacing:0px;word-spacing:0px;fill:#d73648;fill-opacity:1;stroke:none;stroke-width:0.30838785"
       d="m 13.51054,171.14484 c -0.11102,-0.40707 -0.11102,-0.40707 -0.11102,-1.13487 v -2.75082 c 0,-0.9005 -0.07401,-1.22122 -0.333059,-1.55428 -0.3824,-0.48108 -1.20888,-0.7648 -2.183386,-0.7648 -0.875821,0 -1.640624,0.2097 -2.17105,0.61678 -0.382402,0.29605 -0.567434,0.62911 -0.690789,1.28289 l 1.652959,0.16036 c 0.07401,-0.56743 0.444078,-0.88815 1.036182,-0.88815 0.604441,0 0.900494,0.29605 0.900494,0.88815 v 0.3454 c -1.369242,0.11101 -1.936676,0.2097 -2.417762,0.3824 -0.87582,0.33305 -1.356906,0.98684 -1.356906,1.83799 0,1.02385 0.752467,1.7023 1.912004,1.7023 0.863487,0 1.356907,-0.27138 1.949012,-1.07319 -0.01234,0.074 -0.01234,0.14802 -0.01234,0.16036 0,0.32073 0.01234,0.39474 0.08635,0.78948 z m -1.899669,-2.35609 c 0,0.76481 -0.481086,1.35691 -1.122533,1.35691 -0.456414,0 -0.764801,-0.32073 -0.764801,-0.77714 0,-0.43174 0.283717,-0.75247 0.801808,-0.92516 0.308388,-0.11102 0.530427,-0.14803 1.085526,-0.20971 z" />
    <path
       inkscape:connector-curvature="0"
       id="path1300"
       style="font-style:normal;font-variant:normal;font-weight:600;font-stretch:normal;font-size:medium;line-height:1.25;font-family:'Franklin Gothic FS';-inkscape-font-specification:'Franklin Gothic FS Semi-Bold';letter-spacing:0px;word-spacing:0px;fill:#d73648;fill-opacity:1;stroke:none;stroke-width:0.30838785"
       d="m 14.879974,171.14484 h 1.739308 v -2.47945 c 0,-1.29523 0.456414,-1.949 1.369242,-1.949 0.02467,0 0.09869,0 0.172697,0.0124 v -1.77631 c -0.123355,-0.0124 -0.246711,-0.0246 -0.320723,-0.0246 -0.641447,0 -1.060855,0.40707 -1.3199,1.27056 v -1.13487 h -1.640624 z" />
    <path
       inkscape:connector-curvature="0"
       id="path1302"
       style="font-style:normal;font-variant:normal;font-weight:600;font-stretch:normal;font-size:medium;line-height:1.25;font-family:'Franklin Gothic FS';-inkscape-font-specification:'Franklin Gothic FS Semi-Bold';letter-spacing:0px;word-spacing:0px;fill:#d73648;fill-opacity:1;stroke:none;stroke-width:0.30838785"
       d="m 22.671779,171.14484 h 1.665294 v -8.2278 h -1.739307 v 2.78783 c -0.431743,-0.56743 -0.814144,-0.7648 -1.492597,-0.7648 -1.443256,0 -2.269735,1.17188 -2.269735,3.23191 0,1.93668 0.814144,3.09621 2.171051,3.09621 0.752465,0 1.20888,-0.29605 1.665294,-1.07319 z m -0.07402,-2.3931 c 0,0.74014 -0.382401,1.24589 -0.949835,1.24589 -0.616776,0 -0.949834,-0.64144 -0.949834,-1.80098 0,-1.34458 0.333058,-2.01069 1.011512,-2.01069 0.579769,0 0.888157,0.49342 0.888157,1.43092 z" />
    <path
       inkscape:connector-curvature="0"
       id="path1304"
       style="font-style:normal;font-variant:normal;font-weight:600;font-stretch:normal;font-size:medium;line-height:1.25;font-family:'Franklin Gothic FS';-inkscape-font-specification:'Franklin Gothic FS Semi-Bold';letter-spacing:0px;word-spacing:0px;fill:#d73648;fill-opacity:1;stroke:none;stroke-width:0.30838785"
       d="m 25.818105,164.54533 h 1.788651 v -1.78864 h -1.788651 z m 0,6.59951 h 1.788651 v -6.08141 h -1.788651 z" />
    <path
       inkscape:connector-curvature="0"
       id="path1306"
       style="font-style:normal;font-variant:normal;font-weight:600;font-stretch:normal;font-size:medium;line-height:1.25;font-family:'Franklin Gothic FS';-inkscape-font-specification:'Franklin Gothic FS Semi-Bold';letter-spacing:0px;word-spacing:0px;fill:#d73648;fill-opacity:1;stroke:none;stroke-width:0.30838785"
       d="m 29.218082,171.14484 h 1.739307 v -4.6875 h 1.110197 v -1.39391 h -1.110197 v -0.23438 c 0,-0.61677 0.148027,-0.81415 0.641447,-0.81415 0.160362,0 0.283717,0.0124 0.616776,0.037 v -1.38157 c -0.382401,-0.0617 -0.592105,-0.074 -0.838815,-0.074 -0.900492,0 -1.541939,0.27138 -1.887334,0.81414 -0.209703,0.3454 -0.259045,0.61678 -0.271381,1.65297 h -0.703125 v 1.39391 h 0.703125 z" />
    <path
       inkscape:connector-curvature="0"
       id="path1308"
       style="font-style:normal;font-variant:normal;font-weight:600;font-stretch:normal;font-size:medium;line-height:1.25;font-family:'Franklin Gothic FS';-inkscape-font-specification:'Franklin Gothic FS Semi-Bold';letter-spacing:0px;word-spacing:0px;fill:#d73648;fill-opacity:1;stroke:none;stroke-width:0.30838785"
       d="m 33.169301,171.14484 h 1.739308 v -4.6875 h 1.110196 v -1.39391 h -1.110196 v -0.23438 c 0,-0.61677 0.148026,-0.81415 0.641447,-0.81415 0.160361,0 0.283716,0.0124 0.616775,0.037 v -1.38157 c -0.3824,-0.0617 -0.592105,-0.074 -0.838815,-0.074 -0.900492,0 -1.541939,0.27138 -1.887334,0.81414 -0.209703,0.3454 -0.259045,0.61678 -0.271381,1.65297 h -0.703124 v 1.39391 h 0.703124 z" />
    <path
       inkscape:connector-curvature="0"
       id="path1310"
       style="font-style:normal;font-variant:normal;font-weight:600;font-stretch:normal;font-size:medium;line-height:1.25;font-family:'Franklin Gothic FS';-inkscape-font-specification:'Franklin Gothic FS Semi-Bold';letter-spacing:0px;word-spacing:0px;fill:#d73648;fill-opacity:1;stroke:none;stroke-width:0.30838785"
       d="m 46.643538,162.91704 h -1.640624 v 5.13158 c 0,0.70312 -0.04934,0.97451 -0.234375,1.20888 -0.209703,0.27139 -0.678453,0.44408 -1.20888,0.44408 -0.518091,0 -0.949835,-0.16036 -1.159538,-0.45642 -0.172697,-0.2467 -0.234375,-0.53042 -0.234375,-1.19654 v -5.13158 h -2.084702 v 5.13158 c 0,1.20888 0.209704,1.88734 0.727796,2.39309 0.579769,0.5551 1.418584,0.82648 2.578121,0.82648 1.085526,0 1.912006,-0.25905 2.491774,-0.7648 0.57977,-0.51809 0.764803,-1.1102 0.764803,-2.45477 z" />
    <path
       inkscape:connector-curvature="0"
       id="path1312"
       style="font-style:normal;font-variant:normal;font-weight:600;font-stretch:normal;font-size:medium;line-height:1.25;font-family:'Franklin Gothic FS';-inkscape-font-specification:'Franklin Gothic FS Semi-Bold';letter-spacing:0px;word-spacing:0px;fill:#d73648;fill-opacity:1;stroke:none;stroke-width:0.30838785"
       d="m 48.079853,171.14484 h 1.78865 v -3.41694 c 0,-0.88816 0.333059,-1.39392 0.949835,-1.39392 0.308387,0 0.542762,0.14803 0.653781,0.39474 0.09869,0.2097 0.11102,0.35773 0.11102,0.99918 v 3.41694 h 1.78865 v -3.89802 c 0,-0.8635 -0.123355,-1.35691 -0.407072,-1.71464 -0.308388,-0.37007 -0.838815,-0.59211 -1.443256,-0.59211 -0.85115,0 -1.258221,0.25904 -1.776313,1.14721 v -1.02385 h -1.665295 z" />
    <path
       inkscape:connector-curvature="0"
       id="path1314"
       style="font-style:normal;font-variant:normal;font-weight:600;font-stretch:normal;font-size:medium;line-height:1.25;font-family:'Franklin Gothic FS';-inkscape-font-specification:'Franklin Gothic FS Semi-Bold';letter-spacing:0px;word-spacing:0px;fill:#d73648;fill-opacity:1;stroke:none;stroke-width:0.30838785"
       d="m 54.849933,164.54533 h 1.788649 v -1.78864 h -1.788649 z m 0,6.59951 h 1.788649 v -6.08141 h -1.788649 z" />
    <path
       inkscape:connector-curvature="0"
       id="path1316"
       style="font-style:normal;font-variant:normal;font-weight:600;font-stretch:normal;font-size:medium;line-height:1.25;font-family:'Franklin Gothic FS';-inkscape-font-specification:'Franklin Gothic FS Semi-Bold';letter-spacing:0px;word-spacing:0px;fill:#d73648;fill-opacity:1;stroke:none;stroke-width:0.30838785"
       d="m 59.434116,171.14484 h 1.393914 l 2.084702,-6.08141 h -1.332236 l -1.196544,3.84868 -1.171875,-3.84868 h -1.862663 z" />
    <path
       inkscape:connector-curvature="0"
       id="path1318"
       style="font-style:normal;font-variant:normal;font-weight:600;font-stretch:normal;font-size:medium;line-height:1.25;font-family:'Franklin Gothic FS';-inkscape-font-specification:'Franklin Gothic FS Semi-Bold';letter-spacing:0px;word-spacing:0px;fill:#d73648;fill-opacity:1;stroke:none;stroke-width:0.30838785"
       d="m 67.298584,169.0478 c -0.123355,0.61677 -0.49342,0.94983 -1.085525,0.94983 -0.703125,0 -1.171874,-0.51809 -1.171874,-1.30756 0,-0.0494 0,-0.1727 0.01234,-0.28372 h 3.910357 c -0.01234,-1.07318 -0.13569,-1.57895 -0.49342,-2.18338 -0.456414,-0.78948 -1.369242,-1.2829 -2.380754,-1.2829 -1.739308,0 -2.935852,1.3199 -2.935852,3.21957 0,1.86267 1.20888,3.10855 2.997529,3.10855 0.888157,0 1.54194,-0.25905 2.072367,-0.82648 0.333059,-0.35773 0.493421,-0.64145 0.703124,-1.2829 z m -2.245064,-1.68997 c 0.08635,-0.85115 0.44408,-1.24588 1.122533,-1.24588 0.653782,0 0.949834,0.37006 1.023848,1.24588 z" />
    <path
       inkscape:connector-curvature="0"
       id="path1320"
       style="font-style:normal;font-variant:normal;font-weight:600;font-stretch:normal;font-size:medium;line-height:1.25;font-family:'Franklin Gothic FS';-inkscape-font-specification:'Franklin Gothic FS Semi-Bold';letter-spacing:0px;word-spacing:0px;fill:#d73648;fill-opacity:1;stroke:none;stroke-width:0.30838785"
       d="m 70.100673,171.14484 h 1.739308 v -2.47945 c 0,-1.29523 0.456414,-1.949 1.369242,-1.949 0.02467,0 0.09869,0 0.172697,0.0124 v -1.77631 c -0.123355,-0.0124 -0.24671,-0.0246 -0.320723,-0.0246 -0.641447,0 -1.060854,0.40707 -1.319901,1.27056 v -1.13487 h -1.640623 z" />
    <path
       inkscape:connector-curvature="0"
       id="path1322"
       style="font-style:normal;font-variant:normal;font-weight:600;font-stretch:normal;font-size:medium;line-height:1.25;font-family:'Franklin Gothic FS';-inkscape-font-specification:'Franklin Gothic FS Semi-Bold';letter-spacing:0px;word-spacing:0px;fill:#d73648;fill-opacity:1;stroke:none;stroke-width:0.30838785"
       d="m 79.037368,166.53135 c -0.444079,-1.13486 -1.134868,-1.59128 -2.417761,-1.59128 -1.56661,0 -2.578122,0.78947 -2.578122,1.99835 0,0.69079 0.35773,1.2829 0.949835,1.57895 0.296052,0.14802 1.171873,0.33306 2.06003,0.45642 0.481085,0.074 0.678453,0.2097 0.678453,0.49342 0,0.35772 -0.431743,0.60444 -1.07319,0.60444 -0.74013,0 -1.184209,-0.27139 -1.332235,-0.81415 l -1.517268,0.20971 c 0.123356,0.50575 0.271381,0.76479 0.592105,1.07319 0.530427,0.50575 1.184209,0.72779 2.158715,0.72779 1.689965,0 2.738489,-0.81414 2.738489,-2.10938 0,-0.67844 -0.296058,-1.23355 -0.789478,-1.51726 -0.370066,-0.22204 -0.814144,-0.33306 -1.837992,-0.46875 -0.801808,-0.0987 -1.036183,-0.23438 -1.036183,-0.56743 0,-0.33307 0.345394,-0.54276 0.912828,-0.54276 0.629111,0 1.011512,0.25904 1.184209,0.82647 z" />
    <path
       inkscape:connector-curvature="0"
       id="path1324"
       style="font-style:normal;font-variant:normal;font-weight:600;font-stretch:normal;font-size:medium;line-height:1.25;font-family:'Franklin Gothic FS';-inkscape-font-specification:'Franklin Gothic FS Semi-Bold';letter-spacing:0px;word-spacing:0px;fill:#d73648;fill-opacity:1;stroke:none;stroke-width:0.30838785"
       d="m 80.31603,164.54533 h 1.78865 v -1.78864 h -1.78865 z m 0,6.59951 h 1.78865 v -6.08141 h -1.78865 z" />
    <path
       inkscape:connector-curvature="0"
       id="path1326"
       style="font-style:normal;font-variant:normal;font-weight:600;font-stretch:normal;font-size:medium;line-height:1.25;font-family:'Franklin Gothic FS';-inkscape-font-specification:'Franklin Gothic FS Semi-Bold';letter-spacing:0px;word-spacing:0px;fill:#d73648;fill-opacity:1;stroke:none;stroke-width:0.30838785"
       d="m 83.81468,169.29451 c 0,1.45559 0.5551,1.98602 2.04769,1.98602 0.28372,0 0.38241,-0.0124 1.1472,-0.13569 v -1.33224 c -0.27137,0.0246 -0.39473,0.0246 -0.56743,0.0246 -0.70313,0 -0.83881,-0.12336 -0.83881,-0.81414 v -2.56579 h 1.30756 v -1.39391 h -1.30756 v -1.92434 l -1.54195,0.12335 -0.14801,1.80099 h -1.06086 v 1.39391 h 0.96217 z" />
    <path
       inkscape:connector-curvature="0"
       id="path1328"
       style="font-style:normal;font-variant:normal;font-weight:600;font-stretch:normal;font-size:medium;line-height:1.25;font-family:'Franklin Gothic FS';-inkscape-font-specification:'Franklin Gothic FS Semi-Bold';letter-spacing:0px;word-spacing:0px;fill:#d73648;fill-opacity:1;stroke:none;stroke-width:0.30838785"
       d="m 87.72678,171.82329 v 1.38157 c 0.39473,0.0494 0.57977,0.0617 0.86348,0.0617 0.80181,0 1.29523,-0.2097 1.65297,-0.70312 0.29605,-0.39474 0.37006,-0.5551 0.72779,-1.6653 l 1.89967,-5.83469 h -1.30757 l -1.12253,3.62664 -1.15954,-3.62664 h -1.912 l 2.22039,6.08141 c -0.1727,0.5921 -0.3824,0.75246 -0.98684,0.75246 -0.28372,0 -0.48109,-0.0124 -0.87582,-0.074 z" />
    <path
       inkscape:connector-curvature="0"
       id="path1330"
       style="font-style:normal;font-variant:normal;font-weight:600;font-stretch:normal;font-size:medium;line-height:1.25;font-family:'Franklin Gothic FS';-inkscape-font-specification:'Franklin Gothic FS Semi-Bold';letter-spacing:0px;word-spacing:0px;fill:#2b354c;fill-opacity:1;stroke:none;stroke-width:0.30838785"
       d="m 95.98309,171.14484 h 1.68997 l 0.51809,-1.68997 h 2.65213 l 0.50575,1.68997 h 2.07237 l -2.57812,-8.2278 h -2.23273 z m 2.66447,-3.20724 0.87582,-2.8865 0.87582,2.8865 z" />
    <path
       inkscape:connector-curvature="0"
       id="path1332"
       style="font-style:normal;font-variant:normal;font-weight:600;font-stretch:normal;font-size:medium;line-height:1.25;font-family:'Franklin Gothic FS';-inkscape-font-specification:'Franklin Gothic FS Semi-Bold';letter-spacing:0px;word-spacing:0px;fill:#2b354c;fill-opacity:1;stroke:none;stroke-width:0.30838785"
       d="m 104.21608,171.14484 h 1.73931 v -3.3676 c 0,-0.5551 0.0246,-0.75247 0.13569,-0.97451 0.12335,-0.27138 0.41941,-0.44408 0.7648,-0.44408 0.30839,0 0.5551,0.12336 0.66612,0.33307 0.11102,0.19736 0.13569,0.3824 0.13569,1.08552 v 3.3676 h 1.78865 v -3.3676 c 0,-0.50575 0.037,-0.78947 0.1357,-0.98685 0.12334,-0.25904 0.44407,-0.43174 0.76479,-0.43174 0.33307,0 0.57977,0.1357 0.67846,0.37007 0.074,0.18503 0.0864,0.30839 0.0864,1.04852 v 3.3676 h 1.78865 v -3.94737 c 0,-1.02384 -0.0987,-1.39391 -0.45643,-1.75164 -0.32071,-0.32073 -0.8388,-0.50576 -1.38157,-0.50576 -0.83882,0 -1.38158,0.32072 -1.76398,1.04852 -0.39473,-0.74013 -0.87581,-1.04852 -1.67763,-1.04852 -0.86348,0 -1.45558,0.37007 -1.71463,1.04852 v -0.92516 h -1.68997 z" />
    <path
       inkscape:connector-curvature="0"
       id="path1334"
       style="font-style:normal;font-variant:normal;font-weight:600;font-stretch:normal;font-size:medium;line-height:1.25;font-family:'Franklin Gothic FS';-inkscape-font-specification:'Franklin Gothic FS Semi-Bold';letter-spacing:0px;word-spacing:0px;fill:#2b354c;fill-opacity:1;stroke:none;stroke-width:0.30838785"
       d="m 119.68751,171.14484 c -0.11102,-0.40707 -0.11102,-0.40707 -0.11102,-1.13487 v -2.75082 c 0,-0.9005 -0.074,-1.22122 -0.33306,-1.55428 -0.3824,-0.48108 -1.20888,-0.7648 -2.18338,-0.7648 -0.87583,0 -1.64062,0.2097 -2.17105,0.61678 -0.38241,0.29605 -0.56743,0.62911 -0.69079,1.28289 l 1.65296,0.16036 c 0.074,-0.56743 0.44407,-0.88815 1.03618,-0.88815 0.60444,0 0.9005,0.29605 0.9005,0.88815 v 0.3454 c -1.36925,0.11101 -1.93668,0.2097 -2.41777,0.3824 -0.87582,0.33305 -1.35691,0.98684 -1.35691,1.83799 0,1.02385 0.75247,1.7023 1.91201,1.7023 0.86348,0 1.3569,-0.27138 1.94901,-1.07319 -0.0124,0.074 -0.0124,0.14802 -0.0124,0.16036 0,0.32073 0.0124,0.39474 0.0864,0.78948 z m -1.89966,-2.35609 c 0,0.76481 -0.4811,1.35691 -1.12254,1.35691 -0.45642,0 -0.7648,-0.32073 -0.7648,-0.77714 0,-0.43174 0.28371,-0.75247 0.8018,-0.92516 0.30839,-0.11102 0.53044,-0.14803 1.08554,-0.20971 z" />
    <path
       inkscape:connector-curvature="0"
       id="path1336"
       style="font-style:normal;font-variant:normal;font-weight:600;font-stretch:normal;font-size:medium;line-height:1.25;font-family:'Franklin Gothic FS';-inkscape-font-specification:'Franklin Gothic FS Semi-Bold';letter-spacing:0px;word-spacing:0px;fill:#2b354c;fill-opacity:1;stroke:none;stroke-width:0.30838785"
       d="m 121.27898,169.29451 c 0,1.45559 0.55511,1.98602 2.0477,1.98602 0.28372,0 0.3824,-0.0124 1.14721,-0.13569 v -1.33224 c -0.27139,0.0246 -0.39474,0.0246 -0.56744,0.0246 -0.70312,0 -0.83882,-0.12336 -0.83882,-0.81414 v -2.56579 h 1.30757 v -1.39391 h -1.30757 v -1.92434 l -1.54193,0.12335 -0.14803,1.80099 h -1.06085 v 1.39391 h 0.96216 z" />
    <path
       inkscape:connector-curvature="0"
       id="path1338"
       style="font-style:normal;font-variant:normal;font-weight:600;font-stretch:normal;font-size:medium;line-height:1.25;font-family:'Franklin Gothic FS';-inkscape-font-specification:'Franklin Gothic FS Semi-Bold';letter-spacing:0px;word-spacing:0px;fill:#2b354c;fill-opacity:1;stroke:none;stroke-width:0.30838785"
       d="m 129.12072,169.0478 c -0.12336,0.61677 -0.49343,0.94983 -1.08554,0.94983 -0.70311,0 -1.17186,-0.51809 -1.17186,-1.30756 0,-0.0494 0,-0.1727 0.0124,-0.28372 h 3.91036 c -0.0124,-1.07318 -0.13569,-1.57895 -0.49342,-2.18338 -0.45642,-0.78948 -1.36924,-1.2829 -2.38075,-1.2829 -1.73931,0 -2.93586,1.3199 -2.93586,3.21957 0,1.86267 1.20888,3.10855 2.99754,3.10855 0.88815,0 1.54193,-0.25905 2.07236,-0.82648 0.33305,-0.35773 0.49342,-0.64145 0.70312,-1.2829 z m -2.24507,-1.68997 c 0.0864,-0.85115 0.44408,-1.24588 1.12254,-1.24588 0.65377,0 0.94983,0.37006 1.02384,1.24588 z" />
    <path
       inkscape:connector-curvature="0"
       id="path1340"
       style="font-style:normal;font-variant:normal;font-weight:600;font-stretch:normal;font-size:medium;line-height:1.25;font-family:'Franklin Gothic FS';-inkscape-font-specification:'Franklin Gothic FS Semi-Bold';letter-spacing:0px;word-spacing:0px;fill:#2b354c;fill-opacity:1;stroke:none;stroke-width:0.30838785"
       d="m 135.45076,171.14484 h 1.6653 v -6.08141 h -1.78865 v 3.41694 c 0,0.57976 0,0.61677 -0.0987,0.81414 -0.1727,0.34539 -0.50576,0.5551 -0.88817,0.5551 -0.46874,0 -0.67844,-0.25905 -0.67844,-0.81414 v -3.97204 h -1.73931 v 3.97204 c 0,0.88815 0.074,1.23354 0.33305,1.61595 0.28373,0.4194 0.74014,0.61677 1.38159,0.61677 0.91282,0 1.49259,-0.3824 1.81331,-1.15953 z" />
    <path
       inkscape:connector-curvature="0"
       id="path1342"
       style="font-style:normal;font-variant:normal;font-weight:600;font-stretch:normal;font-size:medium;line-height:1.25;font-family:'Franklin Gothic FS';-inkscape-font-specification:'Franklin Gothic FS Semi-Bold';letter-spacing:0px;word-spacing:0px;fill:#2b354c;fill-opacity:1;stroke:none;stroke-width:0.30838785"
       d="m 138.5965,171.14484 h 1.73931 v -2.47945 c 0,-1.29523 0.45641,-1.949 1.36924,-1.949 0.0246,0 0.0986,0 0.17269,0.0124 v -1.77631 c -0.12335,-0.0124 -0.2467,-0.0246 -0.32071,-0.0246 -0.64145,0 -1.06086,0.40707 -1.31991,1.27056 v -1.13487 h -1.64062 z" />
    <path
       inkscape:connector-curvature="0"
       id="path1344"
       style="font-style:normal;font-variant:normal;font-weight:600;font-stretch:normal;font-size:medium;line-height:1.25;font-family:'Franklin Gothic FS';-inkscape-font-specification:'Franklin Gothic FS Semi-Bold';letter-spacing:0px;word-spacing:0px;fill:#2b354c;fill-opacity:1;stroke:none;stroke-width:0.30838785"
       d="m 146.05525,171.14484 h 1.93668 v -3.25658 h 1.38159 l 1.25821,3.25658 h 2.13405 l -1.51727,-3.62665 c 0.41941,-0.19736 0.60444,-0.32072 0.80181,-0.53042 0.39473,-0.41941 0.61678,-1.01151 0.61678,-1.60362 0,-0.74013 -0.33307,-1.48026 -0.86349,-1.91201 -0.49342,-0.40707 -1.07319,-0.5551 -2.13405,-0.5551 h -3.61431 z m 1.93668,-4.66283 v -2.09703 h 1.13487 c 0.77714,0 0.92516,0.0246 1.15954,0.20969 0.24671,0.18504 0.39473,0.49343 0.39473,0.81415 0,0.35773 -0.19736,0.7278 -0.48108,0.90049 -0.23437,0.14803 -0.3824,0.1727 -1.02385,0.1727 z" />
    <path
       inkscape:connector-curvature="0"
       id="path1346"
       style="font-style:normal;font-variant:normal;font-weight:600;font-stretch:normal;font-size:medium;line-height:1.25;font-family:'Franklin Gothic FS';-inkscape-font-specification:'Franklin Gothic FS Semi-Bold';letter-spacing:0px;word-spacing:0px;fill:#2b354c;fill-opacity:1;stroke:none;stroke-width:0.30838785"
       d="m 159.1997,171.14484 c -0.11102,-0.40707 -0.11102,-0.40707 -0.11102,-1.13487 v -2.75082 c 0,-0.9005 -0.074,-1.22122 -0.33305,-1.55428 -0.3824,-0.48108 -1.20889,-0.7648 -2.18339,-0.7648 -0.87583,0 -1.64062,0.2097 -2.17105,0.61678 -0.38241,0.29605 -0.56743,0.62911 -0.69079,1.28289 l 1.65296,0.16036 c 0.074,-0.56743 0.44408,-0.88815 1.03618,-0.88815 0.60444,0 0.9005,0.29605 0.9005,0.88815 v 0.3454 c -1.36925,0.11101 -1.93668,0.2097 -2.41776,0.3824 -0.87583,0.33305 -1.35691,0.98684 -1.35691,1.83799 0,1.02385 0.75246,1.7023 1.912,1.7023 0.86348,0 1.35691,-0.27138 1.94901,-1.07319 -0.0124,0.074 -0.0124,0.14802 -0.0124,0.16036 0,0.32073 0.0124,0.39474 0.0864,0.78948 z m -1.89966,-2.35609 c 0,0.76481 -0.48108,1.35691 -1.12253,1.35691 -0.45642,0 -0.76481,-0.32073 -0.76481,-0.77714 0,-0.43174 0.28371,-0.75247 0.80181,-0.92516 0.30839,-0.11102 0.53043,-0.14803 1.08553,-0.20971 z" />
    <path
       inkscape:connector-curvature="0"
       id="path1348"
       style="font-style:normal;font-variant:normal;font-weight:600;font-stretch:normal;font-size:medium;line-height:1.25;font-family:'Franklin Gothic FS';-inkscape-font-specification:'Franklin Gothic FS Semi-Bold';letter-spacing:0px;word-spacing:0px;fill:#2b354c;fill-opacity:1;stroke:none;stroke-width:0.30838785"
       d="m 164.07243,171.14484 h 1.66529 v -8.2278 h -1.7393 v 2.78783 c -0.43174,-0.56743 -0.81415,-0.7648 -1.4926,-0.7648 -1.44326,0 -2.26973,1.17188 -2.26973,3.23191 0,1.93668 0.81414,3.09621 2.17105,3.09621 0.75246,0 1.20888,-0.29605 1.66529,-1.07319 z m -0.074,-2.3931 c 0,0.74014 -0.3824,1.24589 -0.94983,1.24589 -0.61678,0 -0.94985,-0.64144 -0.94985,-1.80098 0,-1.34458 0.33307,-2.01069 1.01151,-2.01069 0.57977,0 0.88817,0.49342 0.88817,1.43092 z" />
    <path
       inkscape:connector-curvature="0"
       id="path1350"
       style="font-style:normal;font-variant:normal;font-weight:600;font-stretch:normal;font-size:medium;line-height:1.25;font-family:'Franklin Gothic FS';-inkscape-font-specification:'Franklin Gothic FS Semi-Bold';letter-spacing:0px;word-spacing:0px;fill:#2b354c;fill-opacity:1;stroke:none;stroke-width:0.30838785"
       d="m 167.21876,164.54533 h 1.78865 v -1.78864 h -1.78865 z m 0,6.59951 h 1.78865 v -6.08141 h -1.78865 z" />
    <path
       inkscape:connector-curvature="0"
       id="path1352"
       style="font-style:normal;font-variant:normal;font-weight:600;font-stretch:normal;font-size:medium;line-height:1.25;font-family:'Franklin Gothic FS';-inkscape-font-specification:'Franklin Gothic FS Semi-Bold';letter-spacing:0px;word-spacing:0px;fill:#2b354c;fill-opacity:1;stroke:none;stroke-width:0.30838785"
       d="m 170.90246,170.34302 c 0.54276,0.62912 1.20887,0.92517 2.1217,0.92517 1.73931,0 2.94819,-1.28289 2.94819,-3.14556 0,-1.912 -1.17187,-3.18256 -2.94819,-3.18256 -1.71463,0 -2.87417,1.25823 -2.87417,3.12088 0,0.96218 0.23437,1.6653 0.75247,2.28207 z m 2.15871,-0.2467 c -0.7278,0 -1.02384,-0.62911 -1.02384,-2.14639 0,-1.29522 0.30838,-1.83798 1.03618,-1.83798 0.72779,0 1.01151,0.56743 1.01151,2.04769 0,1.33224 -0.32072,1.93668 -1.02385,1.93668 z" />
    <path
       inkscape:connector-curvature="0"
       id="path1354"
       style="font-style:normal;font-variant:normal;font-weight:600;font-stretch:normal;font-size:medium;line-height:1.25;font-family:'Franklin Gothic FS';-inkscape-font-specification:'Franklin Gothic FS Semi-Bold';letter-spacing:0px;word-spacing:0px;fill:#2b354c;fill-opacity:1;stroke:none;stroke-width:0.30838785"
       d="m 185.94136,164.73037 c -0.25904,-0.66612 -0.48108,-0.98684 -0.91282,-1.30757 -0.5551,-0.41941 -1.27056,-0.6291 -2.15871,-0.6291 -0.92517,0 -1.60363,0.22203 -2.15873,0.71545 -0.55509,0.49342 -0.83881,1.1472 -0.83881,1.89967 0,0.81415 0.35773,1.4926 0.99918,1.875 0.45641,0.28371 0.98684,0.45641 1.89967,0.64144 1.09786,0.22204 1.43092,0.44409 1.43092,0.93751 0,0.53042 -0.50576,0.86348 -1.31991,0.86348 -0.91282,0 -1.43091,-0.35773 -1.66529,-1.14721 l -1.77631,0.40708 c 0.23437,0.78947 0.46875,1.17188 0.98684,1.56661 0.61678,0.48109 1.39391,0.71546 2.35609,0.71546 0.86348,0 1.64062,-0.19737 2.17105,-0.54276 0.74013,-0.46876 1.20888,-1.3199 1.20888,-2.18339 0,-0.78947 -0.37007,-1.48026 -1.06085,-1.94901 -0.41942,-0.28372 -0.92517,-0.45641 -2.15873,-0.70312 -0.88815,-0.18504 -1.18421,-0.3824 -1.18421,-0.86349 0,-0.45642 0.40708,-0.72779 1.12253,-0.72779 0.77714,0 1.13487,0.2467 1.43093,0.9745 z" />
    <path
       inkscape:connector-curvature="0"
       id="path1356"
       style="font-style:normal;font-variant:normal;font-weight:600;font-stretch:normal;font-size:medium;line-height:1.25;font-family:'Franklin Gothic FS';-inkscape-font-specification:'Franklin Gothic FS Semi-Bold';letter-spacing:0px;word-spacing:0px;fill:#2b354c;fill-opacity:1;stroke:none;stroke-width:0.30838785"
       d="m 187.74331,170.34302 c 0.54277,0.62912 1.20888,0.92517 2.12171,0.92517 1.73931,0 2.94819,-1.28289 2.94819,-3.14556 0,-1.912 -1.17187,-3.18256 -2.94819,-3.18256 -1.71463,0 -2.87417,1.25823 -2.87417,3.12088 0,0.96218 0.23437,1.6653 0.75246,2.28207 z m 2.15872,-0.2467 c -0.7278,0 -1.02385,-0.62911 -1.02385,-2.14639 0,-1.29522 0.30839,-1.83798 1.03619,-1.83798 0.72779,0 1.01151,0.56743 1.01151,2.04769 0,1.33224 -0.32073,1.93668 -1.02385,1.93668 z" />
    <path
       inkscape:connector-curvature="0"
       id="path1358"
       style="font-style:normal;font-variant:normal;font-weight:600;font-stretch:normal;font-size:medium;line-height:1.25;font-family:'Franklin Gothic FS';-inkscape-font-specification:'Franklin Gothic FS Semi-Bold';letter-spacing:0px;word-spacing:0px;fill:#2b354c;fill-opacity:1;stroke:none;stroke-width:0.30838785"
       d="m 197.61365,168.76408 c -0.11102,0.71546 -0.43174,1.04852 -0.99917,1.04852 -0.71546,0 -1.01151,-0.50576 -1.01151,-1.72697 0,-1.23356 0.33306,-1.80099 1.06085,-1.80099 0.57977,0 0.86348,0.32073 0.94983,1.09786 l 1.67763,-0.0986 c -0.0864,-0.69079 -0.23436,-1.04852 -0.62911,-1.4926 -0.50575,-0.56743 -1.18421,-0.85115 -2.06003,-0.85115 -1.80098,0 -3.00986,1.2829 -3.00986,3.20723 0,1.87501 1.15954,3.12089 2.91118,3.12089 0.98684,0 1.75164,-0.3454 2.26973,-1.03619 0.3084,-0.39473 0.43174,-0.71545 0.51809,-1.36923 z" />
    <path
       inkscape:connector-curvature="0"
       id="path1360"
       style="font-style:normal;font-variant:normal;font-weight:600;font-stretch:normal;font-size:medium;line-height:1.25;font-family:'Franklin Gothic FS';-inkscape-font-specification:'Franklin Gothic FS Semi-Bold';letter-spacing:0px;word-spacing:0px;fill:#2b354c;fill-opacity:1;stroke:none;stroke-width:0.30838785"
       d="m 200.24998,164.54533 h 1.78864 v -1.78864 h -1.78864 z m 0,6.59951 h 1.78864 v -6.08141 h -1.78864 z" />
    <path
       inkscape:connector-curvature="0"
       id="path1362"
       style="font-style:normal;font-variant:normal;font-weight:600;font-stretch:normal;font-size:medium;line-height:1.25;font-family:'Franklin Gothic FS';-inkscape-font-specification:'Franklin Gothic FS Semi-Bold';letter-spacing:0px;word-spacing:0px;fill:#2b354c;fill-opacity:1;stroke:none;stroke-width:0.30838785"
       d="m 207.32594,169.0478 c -0.12335,0.61677 -0.49342,0.94983 -1.08553,0.94983 -0.70312,0 -1.17187,-0.51809 -1.17187,-1.30756 0,-0.0494 0,-0.1727 0.0124,-0.28372 h 3.91036 c -0.0124,-1.07318 -0.13568,-1.57895 -0.49342,-2.18338 -0.45641,-0.78948 -1.36924,-1.2829 -2.38075,-1.2829 -1.7393,0 -2.93585,1.3199 -2.93585,3.21957 0,1.86267 1.20888,3.10855 2.99752,3.10855 0.88817,0 1.54195,-0.25905 2.07238,-0.82648 0.33305,-0.35773 0.49341,-0.64145 0.70312,-1.2829 z m -2.24507,-1.68997 c 0.0864,-0.85115 0.44409,-1.24588 1.12253,-1.24588 0.65379,0 0.94985,0.37006 1.02386,1.24588 z" />
    <path
       inkscape:connector-curvature="0"
       id="path1364"
       style="font-style:normal;font-variant:normal;font-weight:600;font-stretch:normal;font-size:medium;line-height:1.25;font-family:'Franklin Gothic FS';-inkscape-font-specification:'Franklin Gothic FS Semi-Bold';letter-spacing:0px;word-spacing:0px;fill:#2b354c;fill-opacity:1;stroke:none;stroke-width:0.30838785"
       d="m 210.35007,169.29451 c 0,1.45559 0.5551,1.98602 2.0477,1.98602 0.28371,0 0.3824,-0.0124 1.14719,-0.13569 v -1.33224 c -0.27137,0.0246 -0.39473,0.0246 -0.56742,0.0246 -0.70313,0 -0.83882,-0.12336 -0.83882,-0.81414 v -2.56579 h 1.30757 v -1.39391 h -1.30757 v -1.92434 l -1.54194,0.12335 -0.14802,1.80099 h -1.06086 v 1.39391 h 0.96217 z" />
    <path
       inkscape:connector-curvature="0"
       id="path1366"
       style="font-style:normal;font-variant:normal;font-weight:600;font-stretch:normal;font-size:medium;line-height:1.25;font-family:'Franklin Gothic FS';-inkscape-font-specification:'Franklin Gothic FS Semi-Bold';letter-spacing:0px;word-spacing:0px;fill:#2b354c;fill-opacity:1;stroke:none;stroke-width:0.30838785"
       d="m 214.26217,171.82329 v 1.38157 c 0.39474,0.0494 0.57977,0.0617 0.86349,0.0617 0.8018,0 1.29522,-0.2097 1.65296,-0.70312 0.29605,-0.39474 0.37006,-0.5551 0.72779,-1.6653 l 1.89967,-5.83469 h -1.30757 l -1.12253,3.62664 -1.15954,-3.62664 h -1.912 l 2.22039,6.08141 c -0.1727,0.5921 -0.38239,0.75246 -0.98683,0.75246 -0.28373,0 -0.48109,-0.0124 -0.87583,-0.074 z" />
    <path
       inkscape:connector-curvature="0"
       id="path1233"
       style="font-style:italic;font-variant:normal;font-weight:600;font-stretch:normal;font-size:medium;line-height:1.25;font-family:'Franklin Gothic FS';-inkscape-font-specification:'Franklin Gothic FS Semi-Bold Italic';letter-spacing:0px;word-spacing:0px;fill:#2b354c;fill-opacity:1;stroke:none;stroke-width:0.3367452"
       d="m 5.682154,153.42985 c -0.202048,0.60614 -0.336746,0.86207 -0.579203,1.13146 -0.309806,0.33675 -0.740839,0.52533 -1.225752,0.52533 -0.969826,0 -1.495149,-0.64656 -1.495149,-1.87231 0,-0.90247 0.188578,-1.88577 0.525323,-2.70743 0.363685,-0.91594 0.835128,-1.30657 1.589437,-1.30657 0.848598,0 1.373921,0.63308 1.373921,1.62985 0,0.0673 0,0.18858 -0.01347,0.30981 l 2.047411,-0.0943 c -0.02694,-0.63308 -0.06735,-0.94288 -0.215516,-1.38739 -0.431035,-1.36045 -1.629848,-2.16864 -3.192346,-2.16864 -1.32004,0 -2.397625,0.5792 -3.219284,1.71066 -0.68696,0.94289 -1.131463,2.38417 -1.131463,3.66379 0,1.21229 0.417564,2.35722 1.117994,3.04419 0.619611,0.60613 1.427799,0.90247 2.438035,0.90247 1.858833,0 3.151935,-1.03718 3.825426,-3.07112 z" />
    <path
       inkscape:connector-curvature="0"
       id="path1235"
       style="font-style:italic;font-variant:normal;font-weight:600;font-stretch:normal;font-size:medium;line-height:1.25;font-family:'Franklin Gothic FS';-inkscape-font-specification:'Franklin Gothic FS Semi-Bold Italic';letter-spacing:0px;word-spacing:0px;fill:#2b354c;fill-opacity:1;stroke:none;stroke-width:0.3367452"
       d="m 8.227316,156.64913 h 1.926181 l 1.508619,-8.98436 H 9.735934 Z" />
    <path
       inkscape:connector-curvature="0"
       id="path1237"
       style="font-style:italic;font-variant:normal;font-weight:600;font-stretch:normal;font-size:medium;line-height:1.25;font-family:'Franklin Gothic FS';-inkscape-font-specification:'Franklin Gothic FS Semi-Bold Italic';letter-spacing:0px;word-spacing:0px;fill:#2b354c;fill-opacity:1;stroke:none;stroke-width:0.3367452"
       d="m 13.045088,156.64913 h 1.697196 l 1.683725,-4.32381 0.471444,4.32381 h 1.737605 l 3.030707,-6.69449 h -1.495148 l -1.818425,4.17564 -0.390624,-4.17564 h -1.804954 l -1.589438,4.17564 -0.511853,-4.17564 h -1.993532 z" />
    <path
       inkscape:connector-curvature="0"
       id="path1239"
       style="font-style:italic;font-variant:normal;font-weight:600;font-stretch:normal;font-size:medium;line-height:1.25;font-family:'Franklin Gothic FS';-inkscape-font-specification:'Franklin Gothic FS Semi-Bold Italic';letter-spacing:0px;word-spacing:0px;fill:#2b354c;fill-opacity:1;stroke:none;stroke-width:0.3367452"
       d="m 21.486657,156.64913 h 1.064116 c 0.134697,-0.36368 0.282866,-0.63308 0.471443,-0.96982 l 0.05388,-0.0943 c 0.457974,0.84859 1.050645,1.21227 1.966592,1.21227 0.862067,0 1.589437,-0.37715 2.15517,-1.13146 0.579201,-0.78124 0.929416,-1.93964 0.929416,-3.08458 0,-1.73761 -0.767779,-2.77478 -2.047411,-2.77478 -0.740839,0 -1.198812,0.28286 -1.697195,1.06411 l 0.538792,-3.20581 h -1.926183 l -0.929417,5.52262 c -0.161637,0.96983 -0.296335,1.81842 -0.350215,2.23599 -0.09429,0.68696 -0.134698,0.91595 -0.228987,1.22575 z m 2.384157,-2.2764 c 0,-0.56573 0.161638,-1.6029 0.336745,-2.12822 0.228987,-0.72737 0.606141,-1.09106 1.117994,-1.09106 0.511853,0 0.862068,0.4445 0.862068,1.10452 0,0.6735 -0.161638,1.62986 -0.390624,2.23599 -0.228987,0.64656 -0.579202,0.96983 -1.050646,0.96983 -0.552262,0 -0.875537,-0.40409 -0.875537,-1.09106 z" />
    <path
       inkscape:connector-curvature="0"
       id="path1241"
       style="font-style:italic;font-variant:normal;font-weight:600;font-stretch:normal;font-size:medium;line-height:1.25;font-family:'Franklin Gothic FS';-inkscape-font-specification:'Franklin Gothic FS Semi-Bold Italic';letter-spacing:0px;word-spacing:0px;fill:#2b354c;fill-opacity:1;stroke:none;stroke-width:0.3367452"
       d="m 32.222305,156.64913 h 2.007002 l 0.606141,-3.58296 h 1.670256 l 0.942887,3.58296 h 2.08782 l -1.104524,-3.90624 c 0.579201,-0.16164 0.862068,-0.29634 1.171873,-0.56573 0.511853,-0.45798 0.835128,-1.18535 0.835128,-1.91272 0,-0.72737 -0.309806,-1.44127 -0.835128,-1.92618 -0.538793,-0.48491 -1.239223,-0.67349 -2.559263,-0.67349 h -3.313573 z m 2.828659,-5.13199 0.390626,-2.2764 h 1.360449 c 0.431035,0 0.673491,0.0269 0.889008,0.0943 0.404095,0.12123 0.660021,0.51186 0.660021,0.96983 0,0.43104 -0.228987,0.82166 -0.579202,1.01023 -0.309806,0.16164 -0.606142,0.20205 -1.38739,0.20205 z" />
    <path
       inkscape:connector-curvature="0"
       id="path1243"
       style="font-style:italic;font-variant:normal;font-weight:600;font-stretch:normal;font-size:medium;line-height:1.25;font-family:'Franklin Gothic FS';-inkscape-font-specification:'Franklin Gothic FS Semi-Bold Italic';letter-spacing:0px;word-spacing:0px;fill:#2b354c;fill-opacity:1;stroke:none;stroke-width:0.3367452"
       d="m 46.61648,156.64913 c -0.02694,-0.18857 -0.02694,-0.28286 -0.02694,-0.4445 0,-0.36368 0.04041,-0.70043 0.134697,-1.26616 l 0.282867,-1.71066 c 0.175107,-1.05065 0.188577,-1.15841 0.188577,-1.45474 0,-1.19881 -0.983295,-1.93966 -2.599673,-1.93966 -1.697195,0 -2.788251,0.68696 -3.259693,2.04741 l 1.751075,0.20205 c 0.282865,-0.74084 0.660021,-1.02371 1.34698,-1.02371 0.538792,0 0.875538,0.3098 0.875538,0.8082 0,0.18857 -0.02694,0.35021 -0.121228,0.59267 -1.40086,0.0808 -2.330278,0.22899 -2.949888,0.48491 -1.037176,0.41756 -1.575968,1.11799 -1.575968,2.04741 0,1.06411 0.835128,1.8319 1.993531,1.8319 0.983297,0 1.764545,-0.48492 2.15517,-1.33352 0,0.12123 -0.01346,0.17511 -0.02694,0.32328 -0.02694,0.22898 -0.04041,0.32327 -0.04041,0.43103 0,0.10773 0,0.10773 0.01347,0.40409 z m -3.933185,-1.8723 c 0,-0.68696 0.525322,-1.13147 1.535558,-1.29311 0.242456,-0.0404 0.444504,-0.0539 0.821659,-0.0808 -0.215518,1.41433 -0.78125,2.19557 -1.602907,2.19557 -0.444504,0 -0.75431,-0.33674 -0.75431,-0.82165 z" />
    <path
       inkscape:connector-curvature="0"
       id="path1245"
       style="font-style:italic;font-variant:normal;font-weight:600;font-stretch:normal;font-size:medium;line-height:1.25;font-family:'Franklin Gothic FS';-inkscape-font-specification:'Franklin Gothic FS Semi-Bold Italic';letter-spacing:0px;word-spacing:0px;fill:#2b354c;fill-opacity:1;stroke:none;stroke-width:0.3367452"
       d="m 51.896854,156.64913 h 1.804955 l 1.508618,-8.98436 h -1.926183 l -0.565732,3.39439 c -0.202047,-0.82166 -0.767779,-1.25269 -1.602907,-1.25269 -0.848598,0 -1.522089,0.39063 -2.060881,1.19882 -0.525322,0.78124 -0.862068,1.96659 -0.862068,3.01723 0,1.71067 0.808189,2.77478 2.12823,2.77478 0.713901,0 1.239223,-0.36368 1.751075,-1.18534 z m -1.710665,-2.38415 c 0,-0.70043 0.175107,-1.71067 0.404094,-2.30333 0.188577,-0.48492 0.565731,-0.79473 0.969826,-0.79473 0.525323,0 0.915947,0.49838 0.915947,1.17188 0,0.26939 -0.148168,1.32004 -0.255927,1.73761 -0.202047,0.86206 -0.619611,1.3335 -1.212283,1.3335 -0.498382,0 -0.821657,-0.44451 -0.821657,-1.14493 z" />
    <path
       inkscape:connector-curvature="0"
       id="path1247"
       style="font-style:italic;font-variant:normal;font-weight:600;font-stretch:normal;font-size:medium;line-height:1.25;font-family:'Franklin Gothic FS';-inkscape-font-specification:'Franklin Gothic FS Semi-Bold Italic';letter-spacing:0px;word-spacing:0px;fill:#2b354c;fill-opacity:1;stroke:none;stroke-width:0.3367452"
       d="m 56.517844,149.45626 h 2.020471 l 0.309806,-1.89925 h -2.007002 z m -1.198814,7.19287 h 2.007002 l 1.117994,-6.69449 h -2.007001 z" />
    <path
       inkscape:connector-curvature="0"
       id="path1249"
       style="font-style:italic;font-variant:normal;font-weight:600;font-stretch:normal;font-size:medium;line-height:1.25;font-family:'Franklin Gothic FS';-inkscape-font-specification:'Franklin Gothic FS Semi-Bold Italic';letter-spacing:0px;word-spacing:0px;fill:#2b354c;fill-opacity:1;stroke:none;stroke-width:0.3367452"
       d="m 59.1112,153.76659 c 0,1.75108 1.225753,3.01724 2.936419,3.01724 1.926182,0 3.421332,-1.68373 3.421332,-3.85236 0,-1.87231 -1.171874,-3.13847 -2.909479,-3.13847 -2.020471,0 -3.448272,1.65679 -3.448272,3.97359 z m 1.980063,0.44451 c 0,-0.889 0.188577,-1.88578 0.471442,-2.47844 0.188579,-0.4041 0.552263,-0.64656 0.983297,-0.64656 0.633081,0 0.969825,0.4445 0.969825,1.27964 0,0.76778 -0.188577,1.77802 -0.431033,2.37068 -0.215517,0.51186 -0.538792,0.76778 -0.996766,0.76778 -0.67349,0 -0.996765,-0.41756 -0.996765,-1.2931 z" />
    <path
       inkscape:connector-curvature="0"
       id="path1251"
       style="font-style:italic;font-variant:normal;font-weight:600;font-stretch:normal;font-size:medium;line-height:1.25;font-family:'Franklin Gothic FS';-inkscape-font-specification:'Franklin Gothic FS Semi-Bold Italic';letter-spacing:0px;word-spacing:0px;fill:#2b354c;fill-opacity:1;stroke:none;stroke-width:0.3367452"
       d="m 68.77179,156.64913 h 1.939652 l 0.875538,-1.98006 h 2.990297 l 0.296336,1.98006 h 2.1417 l -1.508619,-8.98436 h -2.464975 z m 3.48868,-3.54256 1.575968,-3.59644 0.525322,3.59644 z" />
    <path
       inkscape:connector-curvature="0"
       id="path1253"
       style="font-style:italic;font-variant:normal;font-weight:600;font-stretch:normal;font-size:medium;line-height:1.25;font-family:'Franklin Gothic FS';-inkscape-font-specification:'Franklin Gothic FS Semi-Bold Italic';letter-spacing:0px;word-spacing:0px;fill:#2b354c;fill-opacity:1;stroke:none;stroke-width:0.3367452"
       d="m 77.786247,156.64913 h 1.926183 l 0.49838,-2.96335 c 0.21552,-1.27963 0.21552,-1.33352 0.37716,-1.65678 0.24246,-0.45798 0.5792,-0.70044 0.96983,-0.70044 0.41755,0 0.68696,0.28287 0.68696,0.68696 0,0.12123 -0.0404,0.37716 -0.0808,0.64655 l -0.66002,3.98706 h 1.87231 l 0.55226,-3.3001 c 0.1347,-0.76778 0.20205,-1.07758 0.36369,-1.36045 0.22899,-0.41756 0.55225,-0.63308 0.95636,-0.63308 0.44449,0 0.71389,0.28287 0.71389,0.76778 0,0.16163 -0.0135,0.30981 -0.0943,0.78125 l -0.63308,3.7446 h 1.89924 l 0.61961,-3.70419 c 0.14816,-0.88901 0.14816,-0.88901 0.14816,-1.19882 0,-1.1584 -0.7543,-1.91271 -1.89923,-1.91271 -0.86207,0 -1.33351,0.29634 -1.96659,1.22575 -0.3637,-0.88901 -0.8486,-1.25269 -1.64332,-1.25269 -0.83512,0 -1.30658,0.32328 -1.92619,1.2931 l 0.18858,-1.14493 h -1.751068 z" />
    <path
       inkscape:connector-curvature="0"
       id="path1255"
       style="font-style:italic;font-variant:normal;font-weight:600;font-stretch:normal;font-size:medium;line-height:1.25;font-family:'Franklin Gothic FS';-inkscape-font-specification:'Franklin Gothic FS Semi-Bold Italic';letter-spacing:0px;word-spacing:0px;fill:#2b354c;fill-opacity:1;stroke:none;stroke-width:0.3367452"
       d="m 94.55006,156.64913 c -0.0269,-0.18857 -0.0269,-0.28286 -0.0269,-0.4445 0,-0.36368 0.0404,-0.70043 0.1347,-1.26616 l 0.28287,-1.71066 c 0.17511,-1.05065 0.18858,-1.15841 0.18858,-1.45474 0,-1.19881 -0.9833,-1.93966 -2.59967,-1.93966 -1.6972,0 -2.78825,0.68696 -3.2597,2.04741 l 1.75107,0.20205 c 0.28287,-0.74084 0.66002,-1.02371 1.34699,-1.02371 0.53879,0 0.87554,0.3098 0.87554,0.8082 0,0.18857 -0.0269,0.35021 -0.12123,0.59267 -1.40087,0.0808 -2.33028,0.22899 -2.94989,0.48491 -1.03718,0.41756 -1.57597,1.11799 -1.57597,2.04741 0,1.06411 0.83513,1.8319 1.99353,1.8319 0.9833,0 1.76455,-0.48492 2.15517,-1.33352 0,0.12123 -0.0135,0.17511 -0.0269,0.32328 -0.0269,0.22898 -0.0404,0.32327 -0.0404,0.43103 0,0.10773 0,0.10773 0.0135,0.40409 z m -3.93319,-1.8723 c 0,-0.68696 0.52533,-1.13147 1.53556,-1.29311 0.24245,-0.0404 0.4445,-0.0539 0.82166,-0.0808 -0.21553,1.41433 -0.78126,2.19557 -1.60292,2.19557 -0.4445,0 -0.7543,-0.33674 -0.7543,-0.82165 z" />
    <path
       inkscape:connector-curvature="0"
       id="path1257"
       style="font-style:italic;font-variant:normal;font-weight:600;font-stretch:normal;font-size:medium;line-height:1.25;font-family:'Franklin Gothic FS';-inkscape-font-specification:'Franklin Gothic FS Semi-Bold Italic';letter-spacing:0px;word-spacing:0px;fill:#2b354c;fill-opacity:1;stroke:none;stroke-width:0.3367452"
       d="m 100.0068,155.23481 c -0.20204,0.0404 -0.43103,0.0539 -0.7139,0.0539 -0.60614,0 -0.84859,-0.14817 -0.84859,-0.5388 0,-0.12122 0.0269,-0.29633 0.0673,-0.57919 l 0.44451,-2.68049 h 1.58943 l 0.25593,-1.53557 h -1.53556 l 0.30981,-1.88577 -1.68373,0.0404 -0.45797,1.84536 h -1.118 l -0.25593,1.53557 h 1.02371 l -0.43103,2.19557 c -0.18859,0.96982 -0.21552,1.10452 -0.21552,1.49515 0,1.10453 0.64655,1.62985 2.007,1.62985 0.41757,0 0.76778,-0.0269 1.32004,-0.10773 z" />
    <path
       inkscape:connector-curvature="0"
       id="path1259"
       style="font-style:italic;font-variant:normal;font-weight:600;font-stretch:normal;font-size:medium;line-height:1.25;font-family:'Franklin Gothic FS';-inkscape-font-specification:'Franklin Gothic FS Semi-Bold Italic';letter-spacing:0px;word-spacing:0px;fill:#2b354c;fill-opacity:1;stroke:none;stroke-width:0.3367452"
       d="m 104.61853,156.64913 h 1.76454 l 1.118,-6.69449 h -1.92618 l -0.5388,3.21928 c -0.16164,0.94289 -0.25593,1.23923 -0.52532,1.60291 -0.24246,0.30981 -0.56573,0.48491 -0.88901,0.48491 -0.33675,0 -0.56573,-0.22899 -0.56573,-0.56573 0,-0.0673 0.0269,-0.3098 0.0808,-0.60614 l 0.70043,-4.13523 h -1.93966 l -0.67348,4.014 c -0.1347,0.76778 -0.1347,0.86207 -0.1347,1.10453 0,1.06411 0.64655,1.72413 1.69719,1.72413 0.8486,0 1.50862,-0.4445 2.03395,-1.36044 z" />
    <path
       inkscape:connector-curvature="0"
       id="path1261"
       style="font-style:italic;font-variant:normal;font-weight:600;font-stretch:normal;font-size:medium;line-height:1.25;font-family:'Franklin Gothic FS';-inkscape-font-specification:'Franklin Gothic FS Semi-Bold Italic';letter-spacing:0px;word-spacing:0px;fill:#2b354c;fill-opacity:1;stroke:none;stroke-width:0.3367452"
       d="m 107.98808,156.64913 h 2.007 l 0.24245,-1.44126 c 0.43104,-2.53233 0.91595,-3.40786 2.2764,-3.40786 l 0.21553,-1.93966 h -0.16164 c -0.83513,0 -1.34699,0.4445 -1.84537,1.62985 l 0.25593,-1.53556 h -1.87231 z" />
    <path
       inkscape:connector-curvature="0"
       id="path1263"
       style="font-style:italic;font-variant:normal;font-weight:600;font-stretch:normal;font-size:medium;line-height:1.25;font-family:'Franklin Gothic FS';-inkscape-font-specification:'Franklin Gothic FS Semi-Bold Italic';letter-spacing:0px;word-spacing:0px;fill:#d73648;fill-opacity:1;stroke:none;stroke-width:0.3367452"
       d="m 116.17183,156.64913 h 2.06089 l 0.56573,-3.36745 h 1.91271 c 1.33351,0 1.96659,-0.20205 2.57274,-0.82165 0.53879,-0.5388 0.86206,-1.37393 0.86206,-2.19559 0,-0.86206 -0.35022,-1.62984 -0.96983,-2.08781 -0.53879,-0.39063 -1.06411,-0.51186 -2.28986,-0.51186 h -3.20582 z m 2.89601,-4.94341 0.4041,-2.43804 h 1.07758 c 0.59268,0 0.94288,0.0673 1.17187,0.24245 0.26941,0.20205 0.41757,0.5388 0.41757,0.90249 0,0.80818 -0.56573,1.2931 -1.52209,1.2931 z" />
    <path
       inkscape:connector-curvature="0"
       id="path1265"
       style="font-style:italic;font-variant:normal;font-weight:600;font-stretch:normal;font-size:medium;line-height:1.25;font-family:'Franklin Gothic FS';-inkscape-font-specification:'Franklin Gothic FS Semi-Bold Italic';letter-spacing:0px;word-spacing:0px;fill:#d73648;fill-opacity:1;stroke:none;stroke-width:0.3367452"
       d="m 124.16764,156.64913 h 2.007 l 0.24246,-1.44126 c 0.43103,-2.53233 0.91594,-3.40786 2.2764,-3.40786 l 0.21551,-1.93966 h -0.16164 c -0.83513,0 -1.34698,0.4445 -1.84537,1.62985 l 0.25593,-1.53556 h -1.8723 z" />
    <path
       inkscape:connector-curvature="0"
       id="path1267"
       style="font-style:italic;font-variant:normal;font-weight:600;font-stretch:normal;font-size:medium;line-height:1.25;font-family:'Franklin Gothic FS';-inkscape-font-specification:'Franklin Gothic FS Semi-Bold Italic';letter-spacing:0px;word-spacing:0px;fill:#d73648;fill-opacity:1;stroke:none;stroke-width:0.3367452"
       d="m 129.9967,149.45626 h 2.02047 l 0.30981,-1.89925 h -2.007 z m -1.19881,7.19287 h 2.00699 l 1.118,-6.69449 h -2.007 z" />
    <path
       inkscape:connector-curvature="0"
       id="path1269"
       style="font-style:italic;font-variant:normal;font-weight:600;font-stretch:normal;font-size:medium;line-height:1.25;font-family:'Franklin Gothic FS';-inkscape-font-specification:'Franklin Gothic FS Semi-Bold Italic';letter-spacing:0px;word-spacing:0px;fill:#d73648;fill-opacity:1;stroke:none;stroke-width:0.3367452"
       d="m 132.53618,156.64913 h 1.92618 l 0.87554,-5.1724 h 1.29311 l 0.24245,-1.52209 h -1.2931 c 0.0539,-0.4041 0.0943,-0.5792 0.1751,-0.7139 0.14818,-0.2694 0.45798,-0.41757 0.90248,-0.41757 0.17511,0 0.32328,0.0135 0.59267,0.0539 l 0.10773,-1.54902 c -0.35021,-0.0539 -0.53879,-0.0673 -0.80819,-0.0673 -1.81842,0 -2.65356,0.78124 -2.89601,2.69395 h -0.8486 l -0.18857,1.52209 h 0.78124 z" />
    <path
       inkscape:connector-curvature="0"
       id="path1271"
       style="font-style:italic;font-variant:normal;font-weight:600;font-stretch:normal;font-size:medium;line-height:1.25;font-family:'Franklin Gothic FS';-inkscape-font-specification:'Franklin Gothic FS Semi-Bold Italic';letter-spacing:0px;word-spacing:0px;fill:#d73648;fill-opacity:1;stroke:none;stroke-width:0.3367452"
       d="m 142.61139,151.71918 c -0.29633,-1.26616 -1.25269,-1.91271 -2.78825,-1.91271 -1.61638,0 -2.66702,0.91595 -2.66702,2.31681 0,0.64655 0.25592,1.17187 0.74084,1.50862 0.33674,0.24245 0.8486,0.40409 1.62984,0.53879 0.88901,0.14817 1.10453,0.28287 1.10453,0.64655 0,0.43104 -0.43103,0.71391 -1.09106,0.71391 -0.86206,0 -1.34698,-0.30982 -1.42779,-0.9429 l -1.6568,0.18858 c 0.0808,0.49839 0.24247,0.83513 0.5388,1.15841 0.49838,0.52532 1.45474,0.86206 2.47845,0.86206 1.71065,0 2.90947,-0.98329 2.90947,-2.39763 0,-1.07757 -0.70042,-1.77801 -2.007,-1.99352 -0.91595,-0.14818 -0.91595,-0.14818 -1.10452,-0.21553 -0.20206,-0.0808 -0.33675,-0.26939 -0.33675,-0.47144 0,-0.36368 0.39062,-0.64654 0.87554,-0.64654 0.72737,0 1.18534,0.33674 1.30657,0.94288 z" />
    <path
       inkscape:connector-curvature="0"
       id="path1273"
       style="font-style:italic;font-variant:normal;font-weight:600;font-stretch:normal;font-size:medium;line-height:1.25;font-family:'Franklin Gothic FS';-inkscape-font-specification:'Franklin Gothic FS Semi-Bold Italic';letter-spacing:0px;word-spacing:0px;fill:#d73648;fill-opacity:1;stroke:none;stroke-width:0.3367452"
       d="m 149.93687,148.41908 c -0.28287,-0.0269 -0.40409,-0.0269 -0.52533,-0.0269 -0.90248,0 -1.45474,0.52532 -1.61637,1.56249 -0.28287,-0.0808 -0.72737,-0.13469 -1.13147,-0.13469 -0.79471,0 -1.60291,0.24245 -2.12823,0.63307 -0.47144,0.35022 -0.76778,0.96983 -0.76778,1.58944 0,0.61961 0.22899,1.05065 0.75431,1.40087 -0.44451,0.22897 -0.5792,0.3098 -0.79472,0.45796 -0.41756,0.29634 -0.63307,0.70044 -0.63307,1.19882 0,0.45798 0.16162,0.75431 0.57919,1.09106 -0.88901,0.36368 -1.25269,0.75431 -1.25269,1.34698 0,0.40409 0.20204,0.7543 0.57921,0.99676 0.45797,0.30981 1.2931,0.45798 2.57273,0.45798 1.37391,0 2.28986,-0.17512 2.896,-0.56574 0.56573,-0.36369 0.94289,-1.02371 0.94289,-1.67025 0,-0.8082 -0.5388,-1.45474 -1.37392,-1.65679 -0.3098,-0.0808 -1.25269,-0.14817 -2.10129,-0.16164 -0.70043,0 -0.98329,-0.14817 -0.98329,-0.47144 0,-0.25593 0.16164,-0.43103 0.53879,-0.59267 0.60613,0.0943 0.83512,0.12122 1.14493,0.12122 1.72414,0 2.88254,-0.88901 2.88254,-2.19557 0,-0.68696 -0.25593,-1.10453 -0.94288,-1.53557 0.0673,-0.37715 0.36367,-0.57919 0.83512,-0.57919 0.12124,0 0.22899,0.0135 0.4445,0.0404 z m -3.42134,4.53933 c -0.5792,0 -0.92941,-0.33675 -0.92941,-0.91595 0,-0.68696 0.45797,-1.13146 1.18534,-1.13146 0.60614,0 0.95636,0.32327 0.95636,0.87553 0,0.72737 -0.47144,1.17188 -1.21229,1.17188 z m -2.4515,4.28339 c 0,-0.29633 0.36368,-0.60613 0.68696,-0.60613 0.0539,0 0.12122,0.0135 0.22899,0.0135 0.0673,0 0.25592,0.0135 0.55225,0.0269 1.37393,0.0404 1.37393,0.0404 1.62986,0.0808 0.26939,0.0539 0.4445,0.24245 0.4445,0.4849 0,0.41757 -0.60614,0.66002 -1.71067,0.66002 -1.13146,0 -1.83189,-0.25591 -1.83189,-0.66002 z" />
    <path
       inkscape:connector-curvature="0"
       id="path1275"
       style="font-style:italic;font-variant:normal;font-weight:600;font-stretch:normal;font-size:medium;line-height:1.25;font-family:'Franklin Gothic FS';-inkscape-font-specification:'Franklin Gothic FS Semi-Bold Italic';letter-spacing:0px;word-spacing:0px;fill:#d73648;fill-opacity:1;stroke:none;stroke-width:0.3367452"
       d="m 150.19026,153.76659 c 0,1.75108 1.22575,3.01724 2.93642,3.01724 1.92618,0 3.42132,-1.68373 3.42132,-3.85236 0,-1.87231 -1.17187,-3.13847 -2.90947,-3.13847 -2.02047,0 -3.44827,1.65679 -3.44827,3.97359 z m 1.98006,0.44451 c 0,-0.889 0.18857,-1.88578 0.47144,-2.47844 0.18858,-0.4041 0.55227,-0.64656 0.9833,-0.64656 0.63308,0 0.96982,0.4445 0.96982,1.27964 0,0.76778 -0.18858,1.77802 -0.43103,2.37068 -0.21551,0.51186 -0.53879,0.76778 -0.99677,0.76778 -0.67348,0 -0.99676,-0.41756 -0.99676,-1.2931 z" />
    <path
       inkscape:connector-curvature="0"
       id="path1277"
       style="font-style:italic;font-variant:normal;font-weight:600;font-stretch:normal;font-size:medium;line-height:1.25;font-family:'Franklin Gothic FS';-inkscape-font-specification:'Franklin Gothic FS Semi-Bold Italic';letter-spacing:0px;word-spacing:0px;fill:#d73648;fill-opacity:1;stroke:none;stroke-width:0.3367452"
       d="m 157.21077,156.64913 h 1.92618 l 1.50862,-8.98436 h -1.92619 z" />
    <path
       inkscape:connector-curvature="0"
       id="path1279"
       style="font-style:italic;font-variant:normal;font-weight:600;font-stretch:normal;font-size:medium;line-height:1.25;font-family:'Franklin Gothic FS';-inkscape-font-specification:'Franklin Gothic FS Semi-Bold Italic';letter-spacing:0px;word-spacing:0px;fill:#d73648;fill-opacity:1;stroke:none;stroke-width:0.3367452"
       d="m 170.02959,153.42985 c -0.20204,0.60614 -0.33674,0.86207 -0.57919,1.13146 -0.30982,0.33675 -0.74085,0.52533 -1.22577,0.52533 -0.96982,0 -1.49514,-0.64656 -1.49514,-1.87231 0,-0.90247 0.18858,-1.88577 0.52532,-2.70743 0.36369,-0.91594 0.83513,-1.30657 1.58944,-1.30657 0.8486,0 1.37392,0.63308 1.37392,1.62985 0,0.0673 0,0.18858 -0.0135,0.30981 l 2.04741,-0.0943 c -0.0269,-0.63308 -0.0673,-0.94288 -0.21551,-1.38739 -0.43105,-1.36045 -1.62986,-2.16864 -3.19235,-2.16864 -1.32004,0 -2.39763,0.5792 -3.21929,1.71066 -0.68695,0.94289 -1.13146,2.38417 -1.13146,3.66379 0,1.21229 0.41756,2.35722 1.11799,3.04419 0.61962,0.60613 1.4278,0.90247 2.43804,0.90247 1.85883,0 3.15193,-1.03718 3.82543,-3.07112 z" />
    <path
       inkscape:connector-curvature="0"
       id="path1281"
       style="font-style:italic;font-variant:normal;font-weight:600;font-stretch:normal;font-size:medium;line-height:1.25;font-family:'Franklin Gothic FS';-inkscape-font-specification:'Franklin Gothic FS Semi-Bold Italic';letter-spacing:0px;word-spacing:0px;fill:#d73648;fill-opacity:1;stroke:none;stroke-width:0.3367452"
       d="m 178.34174,156.64913 c -0.0269,-0.18857 -0.0269,-0.28286 -0.0269,-0.4445 0,-0.36368 0.0404,-0.70043 0.13469,-1.26616 l 0.28287,-1.71066 c 0.1751,-1.05065 0.18858,-1.15841 0.18858,-1.45474 0,-1.19881 -0.9833,-1.93966 -2.59968,-1.93966 -1.69719,0 -2.78825,0.68696 -3.25969,2.04741 l 1.75108,0.20205 c 0.28286,-0.74084 0.66002,-1.02371 1.34697,-1.02371 0.5388,0 0.87554,0.3098 0.87554,0.8082 0,0.18857 -0.0269,0.35021 -0.12123,0.59267 -1.40085,0.0808 -2.33027,0.22899 -2.94988,0.48491 -1.03719,0.41756 -1.57597,1.11799 -1.57597,2.04741 0,1.06411 0.83512,1.8319 1.99352,1.8319 0.9833,0 1.76455,-0.48492 2.15518,-1.33352 0,0.12123 -0.0135,0.17511 -0.0269,0.32328 -0.0269,0.22898 -0.0404,0.32327 -0.0404,0.43103 0,0.10773 0,0.10773 0.0135,0.40409 z m -3.93318,-1.8723 c 0,-0.68696 0.52532,-1.13147 1.53556,-1.29311 0.24245,-0.0404 0.4445,-0.0539 0.82165,-0.0808 -0.21551,1.41433 -0.78124,2.19557 -1.6029,2.19557 -0.44451,0 -0.75431,-0.33674 -0.75431,-0.82165 z" />
    <path
       inkscape:connector-curvature="0"
       id="path1283"
       style="font-style:italic;font-variant:normal;font-weight:600;font-stretch:normal;font-size:medium;line-height:1.25;font-family:'Franklin Gothic FS';-inkscape-font-specification:'Franklin Gothic FS Semi-Bold Italic';letter-spacing:0px;word-spacing:0px;fill:#d73648;fill-opacity:1;stroke:none;stroke-width:0.3367452"
       d="m 184.30908,154.37273 c -0.2694,0.71391 -0.7139,1.06413 -1.33351,1.06413 -0.68697,0 -1.13147,-0.49839 -1.13147,-1.27964 0,-0.1347 0.0135,-0.25593 0.0269,-0.51186 h 4.32381 c 0.0404,-0.3098 0.0673,-0.67348 0.0673,-0.82165 0,-1.80495 -1.13146,-3.01724 -2.82866,-3.01724 -1.03717,0 -1.9127,0.40409 -2.54579,1.17188 -0.64655,0.76777 -0.99677,1.75107 -0.99677,2.7613 0,1.84537 1.18535,3.0846 2.96336,3.0846 1.48168,0 2.57274,-0.76779 3.09806,-2.16865 z m -2.28987,-1.83189 c 0.10773,-0.47144 0.18858,-0.67348 0.35022,-0.91595 0.24245,-0.36368 0.64654,-0.57919 1.06411,-0.57919 0.61961,0 1.02371,0.43103 1.02371,1.10452 0,0.12123 0,0.21552 -0.0269,0.39062 z" />
    <path
       inkscape:connector-curvature="0"
       id="path1285"
       style="font-style:italic;font-variant:normal;font-weight:600;font-stretch:normal;font-size:medium;line-height:1.25;font-family:'Franklin Gothic FS';-inkscape-font-specification:'Franklin Gothic FS Semi-Bold Italic';letter-spacing:0px;word-spacing:0px;fill:#d73648;fill-opacity:1;stroke:none;stroke-width:0.3367452"
       d="m 186.88643,156.64913 h 2.007 l 0.24246,-1.44126 c 0.43103,-2.53233 0.91595,-3.40786 2.2764,-3.40786 l 0.21551,-1.93966 h -0.16164 c -0.83512,0 -1.34697,0.4445 -1.84535,1.62985 l 0.25592,-1.53556 h -1.8723 z" />
    <path
       inkscape:connector-curvature="0"
       id="path1287"
       style="font-style:italic;font-variant:normal;font-weight:600;font-stretch:normal;font-size:medium;line-height:1.25;font-family:'Franklin Gothic FS';-inkscape-font-specification:'Franklin Gothic FS Semi-Bold Italic';letter-spacing:0px;word-spacing:0px;fill:#d73648;fill-opacity:1;stroke:none;stroke-width:0.3367452"
       d="m 195.46082,156.64913 h 1.80494 l 1.50863,-8.98436 h -1.92618 l -0.56573,3.39439 c -0.20205,-0.82166 -0.76779,-1.25269 -1.60292,-1.25269 -0.8486,0 -1.52208,0.39063 -2.06087,1.19882 -0.52533,0.78124 -0.86207,1.96659 -0.86207,3.01723 0,1.71067 0.80818,2.77478 2.12823,2.77478 0.7139,0 1.23922,-0.36368 1.75107,-1.18534 z m -1.71067,-2.38415 c 0,-0.70043 0.1751,-1.71067 0.40409,-2.30333 0.18858,-0.48492 0.56573,-0.79473 0.96983,-0.79473 0.52533,0 0.91594,0.49838 0.91594,1.17188 0,0.26939 -0.14816,1.32004 -0.25592,1.73761 -0.20205,0.86206 -0.61961,1.3335 -1.21228,1.3335 -0.49838,0 -0.82166,-0.44451 -0.82166,-1.14493 z" />
    <path
       inkscape:connector-curvature="0"
       id="path1289"
       style="font-style:italic;font-variant:normal;font-weight:600;font-stretch:normal;font-size:medium;line-height:1.25;font-family:'Franklin Gothic FS';-inkscape-font-specification:'Franklin Gothic FS Semi-Bold Italic';letter-spacing:0px;word-spacing:0px;fill:#d73648;fill-opacity:1;stroke:none;stroke-width:0.3367452"
       d="m 198.50457,157.45733 -0.10773,1.49514 c 0.1751,0.0135 0.41756,0.0269 0.7139,0.0269 0.78124,0 1.2931,-0.13469 1.68373,-0.44451 0.56573,-0.43103 0.70042,-0.63308 1.4682,-2.26292 l 2.9903,-6.31735 h -1.50862 l -1.81842,4.06789 -0.79472,-4.06789 h -2.02047 l 1.53555,6.61369 c -0.26939,0.74083 -0.56573,0.95635 -1.3335,0.95635 -0.18858,0 -0.24247,0 -0.8082,-0.0673 z" />
    <path
       inkscape:connector-curvature="0"
       id="path1291"
       style="font-style:italic;font-variant:normal;font-weight:600;font-stretch:normal;font-size:medium;line-height:1.25;font-family:'Franklin Gothic FS';-inkscape-font-specification:'Franklin Gothic FS Semi-Bold Italic';letter-spacing:0px;word-spacing:0px;fill:#d73648;fill-opacity:1;stroke:none;stroke-width:0.3367452"
       d="m 208.82539,156.64913 h 1.80495 l 1.50862,-8.98436 h -1.92618 l -0.56573,3.39439 c -0.20204,-0.82166 -0.76778,-1.25269 -1.60291,-1.25269 -0.8486,0 -1.52209,0.39063 -2.06088,1.19882 -0.52532,0.78124 -0.86206,1.96659 -0.86206,3.01723 0,1.71067 0.80818,2.77478 2.12822,2.77478 0.71391,0 1.23923,-0.36368 1.75108,-1.18534 z m -1.71066,-2.38415 c 0,-0.70043 0.1751,-1.71067 0.40409,-2.30333 0.18858,-0.48492 0.56573,-0.79473 0.96983,-0.79473 0.52531,0 0.91594,0.49838 0.91594,1.17188 0,0.26939 -0.14816,1.32004 -0.25592,1.73761 -0.20206,0.86206 -0.61961,1.3335 -1.21229,1.3335 -0.49838,0 -0.82165,-0.44451 -0.82165,-1.14493 z" />
    <path
       inkscape:connector-curvature="0"
       id="path1293"
       style="font-style:italic;font-variant:normal;font-weight:600;font-stretch:normal;font-size:medium;line-height:1.25;font-family:'Franklin Gothic FS';-inkscape-font-specification:'Franklin Gothic FS Semi-Bold Italic';letter-spacing:0px;word-spacing:0px;fill:#d73648;fill-opacity:1;stroke:none;stroke-width:0.3367452"
       d="m 216.08645,156.64913 h 1.80496 l 1.50861,-8.98436 h -1.92618 l -0.56573,3.39439 c -0.20205,-0.82166 -0.76778,-1.25269 -1.60291,-1.25269 -0.8486,0 -1.52209,0.39063 -2.06088,1.19882 -0.52533,0.78124 -0.86207,1.96659 -0.86207,3.01723 0,1.71067 0.80819,2.77478 2.12823,2.77478 0.7139,0 1.23922,-0.36368 1.75107,-1.18534 z m -1.71067,-2.38415 c 0,-0.70043 0.1751,-1.71067 0.40409,-2.30333 0.18858,-0.48492 0.56573,-0.79473 0.96983,-0.79473 0.52533,0 0.91594,0.49838 0.91594,1.17188 0,0.26939 -0.14816,1.32004 -0.25591,1.73761 -0.20205,0.86206 -0.61962,1.3335 -1.21229,1.3335 -0.49838,0 -0.82166,-0.44451 -0.82166,-1.14493 z" />
    <path
       sodipodi:nodetypes="scscs"
       inkscape:connector-curvature="0"
       style="color:#000000;font-style:normal;font-variant:normal;font-weight:normal;font-stretch:normal;font-size:medium;line-height:normal;font-family:sans-serif;font-variant-ligatures:normal;font-variant-position:normal;font-variant-caps:normal;font-variant-numeric:normal;font-variant-alternates:normal;font-feature-settings:normal;text-indent:0;text-align:start;text-decoration:none;text-decoration-line:none;text-decoration-style:solid;text-decoration-color:#000000;letter-spacing:normal;word-spacing:normal;text-transform:none;writing-mode:lr-tb;direction:ltr;text-orientation:mixed;dominant-baseline:auto;baseline-shift:baseline;text-anchor:start;white-space:normal;shape-padding:0;clip-rule:nonzero;display:inline;overflow:visible;visibility:visible;opacity:1;isolation:auto;mix-blend-mode:normal;color-interpolation:sRGB;color-interpolation-filters:linearRGB;solid-color:#000000;solid-opacity:1;vector-effect:none;fill:#2b354c;fill-opacity:1;fill-rule:nonzero;stroke:none;stroke-width:1.18227983;stroke-linecap:round;stroke-linejoin:round;stroke-miterlimit:4.75;stroke-dasharray:none;stroke-dashoffset:75.59055328;stroke-opacity:1;paint-order:markers stroke fill;color-rendering:auto;image-rendering:auto;shape-rendering:auto;text-rendering:auto;enable-background:accumulate"
       d="M 109.36149,0 C 66.074831,3.0000027e-6 30.906842,33.780472 30.906842,75.359741 c 0,-37.822397 39.079134,-70.5411906 78.454648,-70.5411936 39.3755,-10e-6 78.45464,32.7187856 78.45464,70.5411936 C 187.81613,33.780461 152.64814,-1.0999997e-5 109.36149,0 Z"
       id="circle4738-5" />
    <path
       sodipodi:nodetypes="scscs"
       inkscape:connector-curvature="0"
       style="color:#000000;font-style:normal;font-variant:normal;font-weight:normal;font-stretch:normal;font-size:medium;line-height:normal;font-family:sans-serif;font-variant-ligatures:normal;font-variant-position:normal;font-variant-caps:normal;font-variant-numeric:normal;font-variant-alternates:normal;font-feature-settings:normal;text-indent:0;text-align:start;text-decoration:none;text-decoration-line:none;text-decoration-style:solid;text-decoration-color:#000000;letter-spacing:normal;word-spacing:normal;text-transform:none;writing-mode:lr-tb;direction:ltr;text-orientation:mixed;dominant-baseline:auto;baseline-shift:baseline;text-anchor:start;white-space:normal;shape-padding:0;clip-rule:nonzero;display:inline;overflow:visible;visibility:visible;opacity:1;isolation:auto;mix-blend-mode:normal;color-interpolation:sRGB;color-interpolation-filters:linearRGB;solid-color:#000000;solid-opacity:1;vector-effect:none;fill:#2b354c;fill-opacity:1;fill-rule:nonzero;stroke:none;stroke-width:1.23755968;stroke-linecap:round;stroke-linejoin:round;stroke-miterlimit:4.75;stroke-dasharray:none;stroke-dashoffset:75.59055328;stroke-opacity:1;paint-order:markers stroke fill;color-rendering:auto;image-rendering:auto;shape-rendering:auto;text-rendering:auto;enable-background:accumulate"
       d="m 109.36149,31.482835 c -25.499938,6e-6 -46.349893,21.095139 -47.767629,47.566607 1.925114,-22.469817 25.079083,-41.547853 47.767629,-41.547853 22.50471,0 45.83902,19.075414 47.76711,41.543202 -1.41995,-26.469285 -22.26867,-47.561956 -47.76711,-47.561956 z"
       id="circle4740-2" />
    <path
       sodipodi:nodetypes="scscs"
       inkscape:connector-curvature="0"
       style="color:#000000;font-style:normal;font-variant:normal;font-weight:normal;font-stretch:normal;font-size:medium;line-height:normal;font-family:sans-serif;font-variant-ligatures:normal;font-variant-position:normal;font-variant-caps:normal;font-variant-numeric:normal;font-variant-alternates:normal;font-feature-settings:normal;text-indent:0;text-align:start;text-decoration:none;text-decoration-line:none;text-decoration-style:solid;text-decoration-color:#000000;letter-spacing:normal;word-spacing:normal;text-transform:none;writing-mode:lr-tb;direction:ltr;text-orientation:mixed;dominant-baseline:auto;baseline-shift:baseline;text-anchor:start;white-space:normal;shape-padding:0;clip-rule:nonzero;display:inline;overflow:visible;visibility:visible;opacity:1;isolation:auto;mix-blend-mode:normal;color-interpolation:sRGB;color-interpolation-filters:linearRGB;solid-color:#000000;solid-opacity:1;vector-effect:none;fill:#2b354c;fill-opacity:1;fill-rule:nonzero;stroke:none;stroke-width:1.18227983;stroke-linecap:round;stroke-linejoin:round;stroke-miterlimit:4.75;stroke-dasharray:none;stroke-dashoffset:75.59055328;stroke-opacity:1;paint-order:markers stroke fill;color-rendering:auto;image-rendering:auto;shape-rendering:auto;text-rendering:auto;enable-background:accumulate"
       d="m 109.36149,60.768903 c -12.60613,3e-6 -22.902997,9.890289 -22.902997,21.999176 0,-8.352017 8.372894,-16.962271 22.902997,-16.962274 14.53008,-3e-6 22.90248,8.610254 22.90248,16.962274 0,-12.108892 -10.29637,-21.999181 -22.90248,-21.999176 z"
       id="circle4742-8" />
  </g>
  <g
     transform="translate(-84.470726,68.458754)"
     style="display:none"
     id="layer2">
    <circle
       r="48.319736"
       cy="72.929214"
       cx="147.3931"
       id="path4530-2-6"
       style="fill:none;fill-opacity:1;stroke:#03175e;stroke-width:3.10737848;stroke-linejoin:round;stroke-miterlimit:4;stroke-dasharray:none;stroke-dashoffset:75.59055328;stroke-opacity:1;paint-order:markers stroke fill" />
    <circle
       r="31.953234"
       cy="72.929214"
       cx="147.3931"
       id="path4530-2"
       style="fill:none;fill-opacity:1;stroke:#03175e;stroke-width:2.94056273;stroke-linejoin:round;stroke-miterlimit:4;stroke-dasharray:none;stroke-dashoffset:75.59055328;stroke-opacity:1;paint-order:markers stroke fill" />
    <circle
       r="15.988372"
       cy="72.929214"
       cx="147.3931"
       id="path4530-2-7"
       style="fill:none;fill-opacity:1;stroke:#03175e;stroke-width:2.36864758;stroke-linejoin:round;stroke-miterlimit:4;stroke-dasharray:none;stroke-dashoffset:75.59055328;stroke-opacity:1;paint-order:markers stroke fill" />
    <circle
       r="7"
       cy="72.929214"
       cx="147.3931"
       id="path4530"
       style="fill:#03175e;fill-opacity:1;stroke:none;stroke-width:3.8888886;stroke-linejoin:round;stroke-miterlimit:4;stroke-dasharray:none;stroke-dashoffset:75.59055328;stroke-opacity:1;paint-order:markers stroke fill" />
    <text
       id="text4717"
       y="173.11681"
       x="58.799297"
       style="font-style:normal;font-variant:normal;font-weight:normal;font-stretch:normal;font-size:10.58333302px;line-height:1.25;font-family:'Franklin Gothic FS';-inkscape-font-specification:'Franklin Gothic FS';letter-spacing:0px;word-spacing:0px;fill:#000000;fill-opacity:1;stroke:none;stroke-width:0.26458332"
       xml:space="preserve"><tspan
         style="stroke-width:0.26458332"
         y="183.19214"
         x="58.799297"
         id="tspan4715" /></text>
    <text
       id="text4721"
       y="181.66943"
       x="109.84778"
       style="font-style:normal;font-variant:normal;font-weight:normal;font-stretch:normal;font-size:10.58333302px;line-height:1.25;font-family:'Franklin Gothic FS';-inkscape-font-specification:'Franklin Gothic FS';letter-spacing:0px;word-spacing:0px;fill:#000000;fill-opacity:1;stroke:none;stroke-width:0.26458332"
       xml:space="preserve"><tspan
         style="stroke-width:0.26458332"
         y="191.74477"
         x="109.84778"
         id="tspan4719" /></text>
    <rect
       y="78.848946"
       x="83.541641"
       height="62.541069"
       width="175.59608"
       id="rect4736"
       style="fill:#000000;fill-opacity:1;stroke:none;stroke-width:2;stroke-linejoin:round;stroke-miterlimit:4;stroke-dasharray:none;stroke-dashoffset:75.59055328;stroke-opacity:1;paint-order:markers stroke fill" />
  </g>
  <g
     inkscape:groupmode="layer"
     id="layer1"
     inkscape:label="guideline_1"
     style="display:none"
     transform="translate(0,13.934282)">
    <path
       inkscape:original-d="M 106.45849,89.313833 39.955156,77.661629"
       inkscape:path-effect="#path-effect136"
       sodipodi:nodetypes="cc"
       inkscape:connector-curvature="0"
       id="path134"
       d="M 106.45849,89.313833 39.955156,77.661629 M 152.28631,89.313833 218.78964,77.661629"
       style="fill:none;stroke:#000000;stroke-width:0.26458332px;stroke-linecap:butt;stroke-linejoin:miter;stroke-opacity:1"
       transform="translate(-20,-20.480036)" />
  </g>
</svg>
