<?xml version="1.0" encoding="UTF-8" standalone="no"?>
<svg
   xmlns:dc="http://purl.org/dc/elements/1.1/"
   xmlns:cc="http://creativecommons.org/ns#"
   xmlns:rdf="http://www.w3.org/1999/02/22-rdf-syntax-ns#"
   xmlns:svg="http://www.w3.org/2000/svg"
   xmlns="http://www.w3.org/2000/svg"
   id="svg8"
   version="1.1"
   viewBox="0 0 219.54608 155.3394"
   height="155.3394mm"
   width="219.54608mm">
  <defs
     id="defs2" />
  <metadata
     id="metadata5">
    <rdf:RDF>
      <cc:Work
         rdf:about="">
        <dc:format>image/svg+xml</dc:format>
        <dc:type
           rdf:resource="http://purl.org/dc/dcmitype/StillImage" />
        <dc:title></dc:title>
      </cc:Work>
    </rdf:RDF>
  </metadata>
  <g
     id="layer4"
     transform="translate(-84.470726,-31.466795)" />
  <g
     transform="translate(-20,-19.471306)"
     id="layer5">
    <g
       id="g1159">
      <path
         id="path950"
         style="font-style:normal;font-variant:normal;font-weight:normal;font-stretch:normal;font-size:11.06924152px;line-height:1.25;font-family:'Franklin Gothic FS';-inkscape-font-specification:'Franklin Gothic FS';letter-spacing:0px;word-spacing:0px;fill:#2b354c;fill-opacity:1;stroke:none;stroke-width:0.33574584"
         d="m 41.755356,170.38296 c -0.166038,0.59774 -0.276731,0.85233 -0.498116,1.16227 -0.298869,0.40956 -0.830193,0.67523 -1.361516,0.67523 -1.228686,0 -2.014602,-1.18441 -2.014602,-3.02191 0,-1.92604 0.763777,-3.07725 2.047809,-3.07725 0.907678,0 1.439002,0.52026 1.804287,1.74894 l 0.863401,-0.16603 c -0.387424,-1.58291 -1.272963,-2.36882 -2.656618,-2.36882 -1.859633,0 -3.06618,1.48328 -3.06618,3.76354 0,1.19548 0.343146,2.25813 0.974093,3.01083 0.498116,0.58667 1.195478,0.89661 2.025671,0.89661 0.830193,0 1.505417,-0.29887 1.981394,-0.8634 0.365285,-0.4317 0.542393,-0.80805 0.74164,-1.57183 z" />
      <path
         id="path952"
         style="font-style:normal;font-variant:normal;font-weight:normal;font-stretch:normal;font-size:11.06924152px;line-height:1.25;font-family:'Franklin Gothic FS';-inkscape-font-specification:'Franklin Gothic FS';letter-spacing:0px;word-spacing:0px;fill:#2b354c;fill-opacity:1;stroke:none;stroke-width:0.33574584"
         d="m 48.019855,172.86247 c -0.08855,-0.33207 -0.121761,-0.66415 -0.121761,-1.06264 v -2.31348 c 0,-0.79698 -0.09962,-1.22868 -0.365285,-1.59397 -0.321008,-0.4317 -0.874471,-0.64201 -1.693594,-0.64201 -0.907678,0 -1.593971,0.22138 -2.025672,0.66415 -0.232454,0.23246 -0.332077,0.44277 -0.409562,0.85233 l 0.785917,0.13283 c 0.1439,-0.65308 0.642016,-0.99623 1.46114,-0.99623 0.586669,0 0.996231,0.1439 1.217616,0.44277 0.1439,0.18818 0.210316,0.50919 0.210316,0.96303 v 0.1771 c -0.343147,-0.0221 -0.509185,-0.0221 -0.708432,-0.0221 -0.951955,0 -1.693594,0.13283 -2.19171,0.39849 -0.564531,0.2878 -0.918747,0.87447 -0.918747,1.49435 0,0.97409 0.774847,1.64931 1.90391,1.64931 0.929816,0 1.472209,-0.32101 1.914979,-1.12906 0.03321,0.61988 0.04428,0.7195 0.09962,0.98516 z m -3.852096,-1.48328 c 0,-0.83019 0.774847,-1.27296 2.19171,-1.27296 0.1439,0 0.4317,0.0111 0.719501,0.0221 0.01107,0.1439 0.01107,0.25459 0.01107,0.35422 0,1.05157 -0.774847,1.8707 -1.760009,1.8707 -0.708432,0 -1.162271,-0.38743 -1.162271,-0.9741 z" />
      <path
         id="path954"
         style="font-style:normal;font-variant:normal;font-weight:normal;font-stretch:normal;font-size:11.06924152px;line-height:1.25;font-family:'Franklin Gothic FS';-inkscape-font-specification:'Franklin Gothic FS';letter-spacing:0px;word-spacing:0px;fill:#2b354c;fill-opacity:1;stroke:none;stroke-width:0.33574584"
         d="m 49.606043,172.86247 h 0.852332 v -2.88907 c 0,-1.16227 0.808055,-1.98139 1.837494,-1.89284 v -0.80805 c -0.121762,-0.0111 -0.243523,-0.0221 -0.309939,-0.0221 -0.420631,0 -0.830193,0.18817 -1.073716,0.47597 -0.199247,0.24353 -0.29887,0.40957 -0.564532,0.95196 v -1.27296 h -0.741639 z" />
      <path
         id="path956"
         style="font-style:normal;font-variant:normal;font-weight:normal;font-stretch:normal;font-size:11.06924152px;line-height:1.25;font-family:'Franklin Gothic FS';-inkscape-font-specification:'Franklin Gothic FS';letter-spacing:0px;word-spacing:0px;fill:#2b354c;fill-opacity:1;stroke:none;stroke-width:0.33574584"
         d="m 56.562542,172.86247 h 0.774847 v -7.38318 h -0.852332 v 2.66769 c -0.487046,-0.65309 -0.918747,-0.89661 -1.60504,-0.89661 -1.31724,0 -2.235987,1.20654 -2.235987,2.93335 0,1.64931 0.907678,2.83372 2.19171,2.83372 0.785916,0 1.272963,-0.30994 1.726802,-1.08478 z m -0.07749,-2.21385 c 0,0.5424 -0.132831,0.79699 -0.398492,1.118 -0.29887,0.34314 -0.697363,0.55346 -1.106925,0.55346 -0.885539,0 -1.405793,-0.83019 -1.405793,-2.24706 0,-1.30617 0.564531,-2.14743 1.439001,-2.14743 0.431701,0 0.896609,0.22139 1.151201,0.56453 0.210316,0.26566 0.321008,0.50919 0.321008,1.01837 z" />
      <path
         id="path958"
         style="font-style:normal;font-variant:normal;font-weight:normal;font-stretch:normal;font-size:11.06924152px;line-height:1.25;font-family:'Franklin Gothic FS';-inkscape-font-specification:'Franklin Gothic FS';letter-spacing:0px;word-spacing:0px;fill:#2b354c;fill-opacity:1;stroke:none;stroke-width:0.33574584"
         d="m 58.987918,166.42017 h 0.918747 v -0.94088 h -0.918747 z m 0.03321,6.4423 h 0.852332 v -5.45713 h -0.852332 z" />
      <path
         id="path960"
         style="font-style:normal;font-variant:normal;font-weight:normal;font-stretch:normal;font-size:11.06924152px;line-height:1.25;font-family:'Franklin Gothic FS';-inkscape-font-specification:'Franklin Gothic FS';letter-spacing:0px;word-spacing:0px;fill:#2b354c;fill-opacity:1;stroke:none;stroke-width:0.33574584"
         d="m 61.705588,172.86247 h 0.785916 v -4.79298 h 1.328309 v -0.66415 h -1.328309 c 0,-0.59774 0.01107,-0.64202 0.09962,-0.87447 0.132831,-0.34315 0.487047,-0.52026 1.040509,-0.52026 0.166039,0 0.276731,0.0221 0.509185,0.0775 v -0.6863 c -0.376354,-0.0553 -0.5756,-0.0775 -0.808054,-0.0775 -0.708432,0 -1.261894,0.33208 -1.450071,0.8634 -0.121762,0.32101 -0.154969,0.54239 -0.177108,1.21762 h -0.963024 v 0.66415 h 0.963024 z" />
      <path
         id="path962"
         style="font-style:normal;font-variant:normal;font-weight:normal;font-stretch:normal;font-size:11.06924152px;line-height:1.25;font-family:'Franklin Gothic FS';-inkscape-font-specification:'Franklin Gothic FS';letter-spacing:0px;word-spacing:0px;fill:#2b354c;fill-opacity:1;stroke:none;stroke-width:0.33574584"
         d="m 65.035008,172.86247 h 0.785916 v -4.79298 h 1.328309 v -0.66415 h -1.328309 c 0,-0.59774 0.01107,-0.64202 0.09962,-0.87447 0.132831,-0.34315 0.487047,-0.52026 1.040509,-0.52026 0.166039,0 0.276731,0.0221 0.509185,0.0775 v -0.6863 c -0.376354,-0.0553 -0.5756,-0.0775 -0.808054,-0.0775 -0.708432,0 -1.261894,0.33208 -1.450071,0.8634 -0.121762,0.32101 -0.154969,0.54239 -0.177108,1.21762 h -0.963024 v 0.66415 h 0.963024 z" />
      <path
         id="path964"
         style="font-style:normal;font-variant:normal;font-weight:normal;font-stretch:normal;font-size:11.06924152px;line-height:1.25;font-family:'Franklin Gothic FS';-inkscape-font-specification:'Franklin Gothic FS';letter-spacing:0px;word-spacing:0px;fill:#2b354c;fill-opacity:1;stroke:none;stroke-width:0.33574584"
         d="m 76.024346,165.47929 h -0.763778 v 4.82619 c 0,0.65308 -0.09962,1.04051 -0.365285,1.35045 -0.2878,0.34314 -0.785916,0.54239 -1.361516,0.54239 -0.575601,0 -1.117994,-0.21032 -1.372586,-0.54239 -0.210316,-0.27674 -0.29887,-0.66416 -0.29887,-1.35045 v -4.82619 h -0.918747 v 4.82619 c 0,0.84126 0.132831,1.37258 0.44277,1.82642 0.409562,0.58667 1.095855,0.87447 2.069948,0.87447 0.929816,0 1.638248,-0.29887 2.069948,-0.87447 0.354216,-0.46491 0.498116,-0.98516 0.498116,-1.82642 z" />
      <path
         id="path966"
         style="font-style:normal;font-variant:normal;font-weight:normal;font-stretch:normal;font-size:11.06924152px;line-height:1.25;font-family:'Franklin Gothic FS';-inkscape-font-specification:'Franklin Gothic FS';letter-spacing:0px;word-spacing:0px;fill:#2b354c;fill-opacity:1;stroke:none;stroke-width:0.33574584"
         d="m 77.603442,172.86247 h 0.852331 v -2.99976 c 0,-1.07372 0.653086,-1.8707 1.527556,-1.8707 0.73057,0 1.129062,0.47597 1.129062,1.36151 v 3.50895 h 0.796986 v -3.15473 c 0,-0.80806 -0.05535,-1.21762 -0.199247,-1.49435 -0.309938,-0.59774 -0.885539,-0.95195 -1.571832,-0.95195 -0.752708,0 -1.184409,0.2878 -1.74894,1.1512 v -1.0073 h -0.785916 z" />
      <path
         id="path968"
         style="font-style:normal;font-variant:normal;font-weight:normal;font-stretch:normal;font-size:11.06924152px;line-height:1.25;font-family:'Franklin Gothic FS';-inkscape-font-specification:'Franklin Gothic FS';letter-spacing:0px;word-spacing:0px;fill:#2b354c;fill-opacity:1;stroke:none;stroke-width:0.33574584"
         d="m 83.569415,166.42017 h 0.918747 v -0.94088 h -0.918747 z m 0.03321,6.4423 h 0.852331 v -5.45713 h -0.852331 z" />
      <path
         id="path970"
         style="font-style:normal;font-variant:normal;font-weight:normal;font-stretch:normal;font-size:11.06924152px;line-height:1.25;font-family:'Franklin Gothic FS';-inkscape-font-specification:'Franklin Gothic FS';letter-spacing:0px;word-spacing:0px;fill:#2b354c;fill-opacity:1;stroke:none;stroke-width:0.33574584"
         d="m 87.285394,172.86247 h 0.885539 l 1.881771,-5.45713 h -0.752708 l -1.505417,4.43876 -1.516486,-4.43876 h -0.940886 z" />
      <path
         id="path972"
         style="font-style:normal;font-variant:normal;font-weight:normal;font-stretch:normal;font-size:11.06924152px;line-height:1.25;font-family:'Franklin Gothic FS';-inkscape-font-specification:'Franklin Gothic FS';letter-spacing:0px;word-spacing:0px;fill:#2b354c;fill-opacity:1;stroke:none;stroke-width:0.33574584"
         d="m 95.339307,170.20585 c -0.01107,-0.7527 -0.09962,-1.20654 -0.321008,-1.68252 -0.387423,-0.79699 -1.140132,-1.26189 -2.058879,-1.26189 -1.494347,0 -2.534856,1.18441 -2.534856,2.90014 0,1.70466 1.007301,2.84479 2.501649,2.84479 1.106924,0 1.959255,-0.59774 2.313471,-1.60504 l -0.785916,-0.16604 c -0.121762,0.2878 -0.210316,0.44277 -0.332077,0.5756 -0.276731,0.32101 -0.697362,0.49812 -1.140132,0.49812 -0.58667,0 -1.151201,-0.33208 -1.394725,-0.83019 -0.166038,-0.34315 -0.221384,-0.63095 -0.221384,-1.27297 z m -3.92958,-0.63094 c 0.05535,-0.52026 0.1439,-0.78592 0.387423,-1.08479 0.29887,-0.37635 0.697362,-0.5756 1.17334,-0.5756 0.487046,0 0.852331,0.18818 1.129062,0.5756 0.221385,0.32101 0.29887,0.5756 0.309939,1.08479 z" />
      <path
         id="path974"
         style="font-style:normal;font-variant:normal;font-weight:normal;font-stretch:normal;font-size:11.06924152px;line-height:1.25;font-family:'Franklin Gothic FS';-inkscape-font-specification:'Franklin Gothic FS';letter-spacing:0px;word-spacing:0px;fill:#2b354c;fill-opacity:1;stroke:none;stroke-width:0.33574584"
         d="m 96.477362,172.86247 h 0.852332 v -2.88907 c 0,-1.16227 0.808054,-1.98139 1.837494,-1.89284 v -0.80805 c -0.121762,-0.0111 -0.243524,-0.0221 -0.309939,-0.0221 -0.420631,0 -0.830193,0.18817 -1.073716,0.47597 -0.199247,0.24353 -0.29887,0.40957 -0.564532,0.95196 v -1.27296 h -0.741639 z" />
      <path
         id="path976"
         style="font-style:normal;font-variant:normal;font-weight:normal;font-stretch:normal;font-size:11.06924152px;line-height:1.25;font-family:'Franklin Gothic FS';-inkscape-font-specification:'Franklin Gothic FS';letter-spacing:0px;word-spacing:0px;fill:#2b354c;fill-opacity:1;stroke:none;stroke-width:0.33574584"
         d="m 101.41303,169.53063 c -0.5756,-0.0996 -0.85233,-0.35421 -0.85233,-0.76378 0,-0.48704 0.46491,-0.80805 1.17334,-0.80805 0.69736,0 1.14013,0.27673 1.39473,0.85233 l 0.77484,-0.16604 c -0.26566,-0.90768 -1.0073,-1.38365 -2.14743,-1.38365 -1.23976,0 -2.05888,0.64201 -2.05888,1.60504 0,0.77484 0.54239,1.33937 1.47221,1.50541 l 1.1512,0.21032 c 0.61988,0.11069 0.94089,0.40956 0.94089,0.84126 0,0.53132 -0.52026,0.88554 -1.28404,0.88554 -0.52025,0 -1.02944,-0.15497 -1.33937,-0.40956 -0.17711,-0.1439 -0.26567,-0.30994 -0.35422,-0.61988 l -0.808055,0.16604 c 0.132831,0.47598 0.276731,0.70843 0.564535,0.95195 0.4649,0.3985 1.09585,0.60881 1.85963,0.60881 1.33938,0 2.24706,-0.67522 2.24706,-1.67145 0,-0.88554 -0.5424,-1.41687 -1.66039,-1.61611 z" />
      <path
         id="path978"
         style="font-style:normal;font-variant:normal;font-weight:normal;font-stretch:normal;font-size:11.06924152px;line-height:1.25;font-family:'Franklin Gothic FS';-inkscape-font-specification:'Franklin Gothic FS';letter-spacing:0px;word-spacing:0px;fill:#2b354c;fill-opacity:1;stroke:none;stroke-width:0.33574584"
         d="m 105.31874,166.42017 h 0.91875 v -0.94088 h -0.91875 z m 0.0332,6.4423 h 0.85233 v -5.45713 h -0.85233 z" />
      <path
         id="path980"
         style="font-style:normal;font-variant:normal;font-weight:normal;font-stretch:normal;font-size:11.06924152px;line-height:1.25;font-family:'Franklin Gothic FS';-inkscape-font-specification:'Franklin Gothic FS';letter-spacing:0px;word-spacing:0px;fill:#2b354c;fill-opacity:1;stroke:none;stroke-width:0.33574584"
         d="m 107.99214,171.35706 c 0,1.09585 0.53132,1.66038 1.56076,1.66038 0.23246,0 0.4317,-0.0111 0.80806,-0.0664 v -0.67523 c -0.29887,0.0554 -0.45384,0.0664 -0.65309,0.0664 -0.58667,0 -0.88554,-0.2878 -0.88554,-0.85233 v -3.4204 h 1.22869 v -0.66415 h -1.22869 v -1.439 l -0.79698,0.0664 -0.0332,1.37259 h -0.96303 v 0.66415 h 0.96303 z" />
      <path
         id="path982"
         style="font-style:normal;font-variant:normal;font-weight:normal;font-stretch:normal;font-size:11.06924152px;line-height:1.25;font-family:'Franklin Gothic FS';-inkscape-font-specification:'Franklin Gothic FS';letter-spacing:0px;word-spacing:0px;fill:#2b354c;fill-opacity:1;stroke:none;stroke-width:0.33574584"
         d="m 110.76239,174.04688 v 0.67523 c 0.2878,0.0664 0.4317,0.0886 0.64202,0.0886 0.37635,0 0.65308,-0.0664 0.85233,-0.21032 0.33208,-0.23245 0.56453,-0.5756 0.75271,-1.09585 l 2.19171,-6.09915 h -0.7195 l -1.49435,4.10669 -1.46114,-4.10669 h -0.8634 l 1.89284,5.35751 c -0.15497,0.48705 -0.25459,0.7195 -0.36529,0.89661 -0.18817,0.30994 -0.47597,0.46491 -0.8634,0.46491 -0.16604,0 -0.2878,-0.0221 -0.56453,-0.0775 z" />
      <path
         id="path984"
         style="font-style:normal;font-variant:normal;font-weight:normal;font-stretch:normal;font-size:11.06924152px;line-height:1.25;font-family:'Franklin Gothic FS';-inkscape-font-specification:'Franklin Gothic FS';letter-spacing:0px;word-spacing:0px;fill:#2b354c;fill-opacity:1;stroke:none;stroke-width:0.33574584"
         d="m 117.9913,172.86247 h 0.77485 l 0.65308,-2.1585 h 2.7341 l 0.74164,2.1585 h 0.95196 l -2.40203,-7.38318 h -1.06264 z m 1.69359,-2.85586 1.14014,-3.54216 1.12906,3.54216 z" />
      <path
         id="path986"
         style="font-style:normal;font-variant:normal;font-weight:normal;font-stretch:normal;font-size:11.06924152px;line-height:1.25;font-family:'Franklin Gothic FS';-inkscape-font-specification:'Franklin Gothic FS';letter-spacing:0px;word-spacing:0px;fill:#2b354c;fill-opacity:1;stroke:none;stroke-width:0.33574584"
         d="m 124.90715,172.86247 h 0.80805 v -3.26542 c 0,-0.91875 0.58667,-1.63825 1.33938,-1.63825 0.30994,0 0.60881,0.1439 0.81913,0.39849 0.1771,0.22139 0.25459,0.48705 0.25459,0.91875 v 3.58643 h 0.81912 v -3.07725 c 0,-0.6088 0.11069,-0.96302 0.42063,-1.31724 0.27673,-0.29887 0.63095,-0.47597 0.9741,-0.47597 0.34314,0 0.69736,0.18817 0.87447,0.48704 0.1439,0.24353 0.1771,0.3985 0.1771,0.99623 v 3.38719 h 0.8302 v -3.38719 c 0,-0.78591 -0.0554,-1.11799 -0.2546,-1.439 -0.2878,-0.47597 -0.81912,-0.77484 -1.39472,-0.77484 -0.75271,0 -1.36152,0.45384 -1.7268,1.30617 -0.21032,-0.8302 -0.77485,-1.30617 -1.52756,-1.30617 -0.7195,0 -1.27296,0.39849 -1.68252,1.19547 v -1.05157 h -0.73057 z" />
      <path
         id="path988"
         style="font-style:normal;font-variant:normal;font-weight:normal;font-stretch:normal;font-size:11.06924152px;line-height:1.25;font-family:'Franklin Gothic FS';-inkscape-font-specification:'Franklin Gothic FS';letter-spacing:0px;word-spacing:0px;fill:#2b354c;fill-opacity:1;stroke:none;stroke-width:0.33574584"
         d="m 138.08716,172.86247 c -0.0885,-0.33207 -0.12176,-0.66415 -0.12176,-1.06264 v -2.31348 c 0,-0.79698 -0.0996,-1.22868 -0.36528,-1.59397 -0.32101,-0.4317 -0.87447,-0.64201 -1.6936,-0.64201 -0.90767,0 -1.59397,0.22138 -2.02567,0.66415 -0.23245,0.23246 -0.33208,0.44277 -0.40956,0.85233 l 0.78592,0.13283 c 0.1439,-0.65308 0.64201,-0.99623 1.46114,-0.99623 0.58667,0 0.99623,0.1439 1.21761,0.44277 0.1439,0.18818 0.21032,0.50919 0.21032,0.96303 v 0.1771 c -0.34315,-0.0221 -0.50919,-0.0221 -0.70843,-0.0221 -0.95196,0 -1.6936,0.13283 -2.19171,0.39849 -0.56453,0.2878 -0.91875,0.87447 -0.91875,1.49435 0,0.97409 0.77485,1.64931 1.90391,1.64931 0.92982,0 1.47221,-0.32101 1.91498,-1.12906 0.0332,0.61988 0.0443,0.7195 0.0996,0.98516 z m -3.85209,-1.48328 c 0,-0.83019 0.77484,-1.27296 2.19171,-1.27296 0.1439,0 0.4317,0.0111 0.7195,0.0221 0.0111,0.1439 0.0111,0.25459 0.0111,0.35422 0,1.05157 -0.77485,1.8707 -1.76001,1.8707 -0.70843,0 -1.16227,-0.38743 -1.16227,-0.9741 z" />
      <path
         id="path990"
         style="font-style:normal;font-variant:normal;font-weight:normal;font-stretch:normal;font-size:11.06924152px;line-height:1.25;font-family:'Franklin Gothic FS';-inkscape-font-specification:'Franklin Gothic FS';letter-spacing:0px;word-spacing:0px;fill:#2b354c;fill-opacity:1;stroke:none;stroke-width:0.33574584"
         d="m 139.64325,171.35706 c 0,1.09585 0.53133,1.66038 1.56077,1.66038 0.23245,0 0.4317,-0.0111 0.80805,-0.0664 v -0.67523 c -0.29887,0.0554 -0.45384,0.0664 -0.65308,0.0664 -0.58667,0 -0.88554,-0.2878 -0.88554,-0.85233 v -3.4204 h 1.22868 v -0.66415 h -1.22868 v -1.439 l -0.79699,0.0664 -0.0332,1.37259 h -0.96302 v 0.66415 h 0.96302 z" />
      <path
         id="path992"
         style="font-style:normal;font-variant:normal;font-weight:normal;font-stretch:normal;font-size:11.06924152px;line-height:1.25;font-family:'Franklin Gothic FS';-inkscape-font-specification:'Franklin Gothic FS';letter-spacing:0px;word-spacing:0px;fill:#2b354c;fill-opacity:1;stroke:none;stroke-width:0.33574584"
         d="m 147.24799,170.20585 c -0.0111,-0.7527 -0.0996,-1.20654 -0.321,-1.68252 -0.38743,-0.79699 -1.14013,-1.26189 -2.05888,-1.26189 -1.49435,0 -2.53486,1.18441 -2.53486,2.90014 0,1.70466 1.0073,2.84479 2.50165,2.84479 1.10692,0 1.95926,-0.59774 2.31347,-1.60504 l -0.78591,-0.16604 c -0.12177,0.2878 -0.21032,0.44277 -0.33208,0.5756 -0.27673,0.32101 -0.69736,0.49812 -1.14013,0.49812 -0.58667,0 -1.1512,-0.33208 -1.39473,-0.83019 -0.16604,-0.34315 -0.22138,-0.63095 -0.22138,-1.27297 z m -3.92958,-0.63094 c 0.0554,-0.52026 0.1439,-0.78592 0.38743,-1.08479 0.29887,-0.37635 0.69736,-0.5756 1.17334,-0.5756 0.48704,0 0.85233,0.18818 1.12906,0.5756 0.22138,0.32101 0.29887,0.5756 0.30994,1.08479 z" />
      <path
         id="path994"
         style="font-style:normal;font-variant:normal;font-weight:normal;font-stretch:normal;font-size:11.06924152px;line-height:1.25;font-family:'Franklin Gothic FS';-inkscape-font-specification:'Franklin Gothic FS';letter-spacing:0px;word-spacing:0px;fill:#2b354c;fill-opacity:1;stroke:none;stroke-width:0.33574584"
         d="m 148.36443,170.89215 c 0,1.30617 0.68629,2.11422 1.79322,2.11422 0.76378,0 1.35045,-0.40956 1.73787,-1.18441 v 1.04051 h 0.76378 v -5.45713 h -0.85233 v 3.07725 c 0,1.0073 -0.67523,1.82642 -1.51649,1.82642 -0.29887,0 -0.59774,-0.13283 -0.79699,-0.37635 -0.18817,-0.22139 -0.27673,-0.5424 -0.27673,-1.04051 v -3.48681 h -0.85233 z" />
      <path
         id="path996"
         style="font-style:normal;font-variant:normal;font-weight:normal;font-stretch:normal;font-size:11.06924152px;line-height:1.25;font-family:'Franklin Gothic FS';-inkscape-font-specification:'Franklin Gothic FS';letter-spacing:0px;word-spacing:0px;fill:#2b354c;fill-opacity:1;stroke:none;stroke-width:0.33574584"
         d="m 154.35306,172.86247 h 0.85234 v -2.88907 c 0,-1.16227 0.80805,-1.98139 1.83749,-1.89284 v -0.80805 c -0.12176,-0.0111 -0.24352,-0.0221 -0.30994,-0.0221 -0.42063,0 -0.83019,0.18817 -1.07372,0.47597 -0.19924,0.24353 -0.29887,0.40957 -0.56453,0.95196 v -1.27296 h -0.74164 z" />
      <path
         id="path998"
         style="font-style:normal;font-variant:normal;font-weight:normal;font-stretch:normal;font-size:11.06924152px;line-height:1.25;font-family:'Franklin Gothic FS';-inkscape-font-specification:'Franklin Gothic FS';letter-spacing:0px;word-spacing:0px;fill:#2b354c;fill-opacity:1;stroke:none;stroke-width:0.33574584"
         d="m 160.81889,172.86247 h 0.8634 v -3.19901 h 2.11422 l 1.36152,3.19901 h 0.97409 l -1.45007,-3.42039 c 0.4317,-0.15497 0.64202,-0.27673 0.8634,-0.53133 0.30994,-0.34314 0.50919,-0.87447 0.50919,-1.36151 0,-1.22869 -0.95196,-2.06995 -2.33561,-2.06995 h -2.90014 z m 0.8634,-3.95172 v -2.62341 h 2.03674 c 0.87447,0 1.41686,0.47598 1.41686,1.23976 0,0.37635 -0.13283,0.7195 -0.37635,0.97409 -0.27674,0.2878 -0.61988,0.40956 -1.15121,0.40956 z" />
      <path
         id="path1000"
         style="font-style:normal;font-variant:normal;font-weight:normal;font-stretch:normal;font-size:11.06924152px;line-height:1.25;font-family:'Franklin Gothic FS';-inkscape-font-specification:'Franklin Gothic FS';letter-spacing:0px;word-spacing:0px;fill:#2b354c;fill-opacity:1;stroke:none;stroke-width:0.33574584"
         d="m 171.66242,172.86247 c -0.0885,-0.33207 -0.12176,-0.66415 -0.12176,-1.06264 v -2.31348 c 0,-0.79698 -0.0996,-1.22868 -0.36529,-1.59397 -0.321,-0.4317 -0.87447,-0.64201 -1.69359,-0.64201 -0.90768,0 -1.59397,0.22138 -2.02567,0.66415 -0.23246,0.23246 -0.33208,0.44277 -0.40956,0.85233 l 0.78591,0.13283 c 0.1439,-0.65308 0.64202,-0.99623 1.46114,-0.99623 0.58667,0 0.99623,0.1439 1.21762,0.44277 0.1439,0.18818 0.21031,0.50919 0.21031,0.96303 v 0.1771 c -0.34314,-0.0221 -0.50918,-0.0221 -0.70843,-0.0221 -0.95195,0 -1.69359,0.13283 -2.19171,0.39849 -0.56453,0.2878 -0.91874,0.87447 -0.91874,1.49435 0,0.97409 0.77484,1.64931 1.90391,1.64931 0.92981,0 1.4722,-0.32101 1.91497,-1.12906 0.0332,0.61988 0.0443,0.7195 0.0996,0.98516 z m -3.8521,-1.48328 c 0,-0.83019 0.77485,-1.27296 2.19171,-1.27296 0.1439,0 0.4317,0.0111 0.7195,0.0221 0.0111,0.1439 0.0111,0.25459 0.0111,0.35422 0,1.05157 -0.77484,1.8707 -1.76001,1.8707 -0.70843,0 -1.16227,-0.38743 -1.16227,-0.9741 z" />
      <path
         id="path1002"
         style="font-style:normal;font-variant:normal;font-weight:normal;font-stretch:normal;font-size:11.06924152px;line-height:1.25;font-family:'Franklin Gothic FS';-inkscape-font-specification:'Franklin Gothic FS';letter-spacing:0px;word-spacing:0px;fill:#2b354c;fill-opacity:1;stroke:none;stroke-width:0.33574584"
         d="m 176.61624,172.86247 h 0.77485 v -7.38318 h -0.85233 v 2.66769 c -0.48705,-0.65309 -0.91875,-0.89661 -1.60504,-0.89661 -1.31724,0 -2.23599,1.20654 -2.23599,2.93335 0,1.64931 0.90768,2.83372 2.19171,2.83372 0.78592,0 1.27296,-0.30994 1.7268,-1.08478 z m -0.0775,-2.21385 c 0,0.5424 -0.13283,0.79699 -0.39849,1.118 -0.29887,0.34314 -0.69737,0.55346 -1.10693,0.55346 -0.88554,0 -1.40579,-0.83019 -1.40579,-2.24706 0,-1.30617 0.56453,-2.14743 1.439,-2.14743 0.4317,0 0.89661,0.22139 1.1512,0.56453 0.21032,0.26566 0.32101,0.50919 0.32101,1.01837 z" />
      <path
         id="path1004"
         style="font-style:normal;font-variant:normal;font-weight:normal;font-stretch:normal;font-size:11.06924152px;line-height:1.25;font-family:'Franklin Gothic FS';-inkscape-font-specification:'Franklin Gothic FS';letter-spacing:0px;word-spacing:0px;fill:#2b354c;fill-opacity:1;stroke:none;stroke-width:0.33574584"
         d="m 179.04163,166.42017 h 0.91875 v -0.94088 h -0.91875 z m 0.0332,6.4423 h 0.85233 v -5.45713 h -0.85233 z" />
      <path
         id="path1006"
         style="font-style:normal;font-variant:normal;font-weight:normal;font-stretch:normal;font-size:11.06924152px;line-height:1.25;font-family:'Franklin Gothic FS';-inkscape-font-specification:'Franklin Gothic FS';letter-spacing:0px;word-spacing:0px;fill:#2b354c;fill-opacity:1;stroke:none;stroke-width:0.33574584"
         d="m 181.65068,172.05442 c 0.44277,0.64201 1.02944,0.95195 1.82642,0.95195 1.47221,0 2.52379,-1.17334 2.52379,-2.81158 0,-1.78215 -0.95196,-2.93335 -2.43524,-2.93335 -1.46114,0 -2.46844,1.17334 -2.46844,2.85586 0,0.76378 0.18818,1.40579 0.55347,1.93712 z m 1.89284,0.25459 c -0.96303,0 -1.51649,-0.80805 -1.51649,-2.20278 0,-0.66415 0.13283,-1.19548 0.37635,-1.54969 0.24353,-0.36529 0.69737,-0.59774 1.12907,-0.59774 0.44277,0 0.88554,0.23245 1.1512,0.59774 0.26566,0.36528 0.38742,0.8634 0.38742,1.5829 0,1.35045 -0.5756,2.16957 -1.52755,2.16957 z" />
      <path
         id="path1008"
         style="font-style:normal;font-variant:normal;font-weight:normal;font-stretch:normal;font-size:11.06924152px;line-height:1.25;font-family:'Franklin Gothic FS';-inkscape-font-specification:'Franklin Gothic FS';letter-spacing:0px;word-spacing:0px;fill:#2b354c;fill-opacity:1;stroke:none;stroke-width:0.33574584"
         d="m 191.77384,168.41264 c -0.8634,-0.21032 -1.20654,-0.53133 -1.20654,-1.118 0,-0.69736 0.66415,-1.20654 1.56076,-1.20654 0.49811,0 1.0073,0.1771 1.37258,0.49811 0.24353,0.21032 0.36529,0.40956 0.46491,0.79699 l 0.8302,-0.23246 c -0.40957,-1.19547 -1.31724,-1.81535 -2.63448,-1.81535 -1.49435,0 -2.49058,0.80805 -2.49058,2.0146 0,0.56453 0.21031,1.06265 0.59774,1.42793 0.29887,0.26566 0.6088,0.3985 1.21761,0.55346 l 1.47221,0.37636 c 0.70843,0.17711 1.12906,0.60881 1.12906,1.16227 0,0.84126 -0.67522,1.35045 -1.77107,1.35045 -1.12907,0 -1.8375,-0.48705 -2.18064,-1.50542 l -0.8302,0.17711 c 0.26566,0.69736 0.46491,1.01837 0.85233,1.37258 0.5424,0.50919 1.22869,0.74164 2.14744,0.74164 1.67145,0 2.74517,-0.87447 2.74517,-2.22491 0,-1.05158 -0.64202,-1.72681 -1.90391,-2.03675 z" />
      <path
         id="path1010"
         style="font-style:normal;font-variant:normal;font-weight:normal;font-stretch:normal;font-size:11.06924152px;line-height:1.25;font-family:'Franklin Gothic FS';-inkscape-font-specification:'Franklin Gothic FS';letter-spacing:0px;word-spacing:0px;fill:#2b354c;fill-opacity:1;stroke:none;stroke-width:0.33574584"
         d="m 196.46011,172.05442 c 0.44277,0.64201 1.02944,0.95195 1.82642,0.95195 1.47221,0 2.52379,-1.17334 2.52379,-2.81158 0,-1.78215 -0.95195,-2.93335 -2.43523,-2.93335 -1.46114,0 -2.46844,1.17334 -2.46844,2.85586 0,0.76378 0.18817,1.40579 0.55346,1.93712 z m 1.89284,0.25459 c -0.96303,0 -1.51649,-0.80805 -1.51649,-2.20278 0,-0.66415 0.13283,-1.19548 0.37636,-1.54969 0.24352,-0.36529 0.69736,-0.59774 1.12906,-0.59774 0.44277,0 0.88554,0.23245 1.1512,0.59774 0.26566,0.36528 0.38742,0.8634 0.38742,1.5829 0,1.35045 -0.5756,2.16957 -1.52755,2.16957 z" />
      <path
         id="path1012"
         style="font-style:normal;font-variant:normal;font-weight:normal;font-stretch:normal;font-size:11.06924152px;line-height:1.25;font-family:'Franklin Gothic FS';-inkscape-font-specification:'Franklin Gothic FS';letter-spacing:0px;word-spacing:0px;fill:#2b354c;fill-opacity:1;stroke:none;stroke-width:0.33574584"
         d="m 205.31032,170.94749 c -0.18818,0.89661 -0.64202,1.36152 -1.32831,1.36152 -0.89661,0 -1.439,-0.81912 -1.439,-2.19171 0,-1.32831 0.56453,-2.1585 1.45007,-2.1585 0.42063,0 0.78592,0.18818 1.02944,0.52025 0.1439,0.21032 0.22138,0.40956 0.2878,0.8302 l 0.76378,-0.1439 c -0.22139,-1.23976 -0.95196,-1.90391 -2.06995,-1.90391 -1.40579,0 -2.34668,1.1512 -2.34668,2.878 0,1.73787 0.90768,2.86693 2.3024,2.86693 0.60881,0 1.08479,-0.18817 1.47221,-0.58667 0.35422,-0.35421 0.50919,-0.67522 0.64202,-1.33938 z" />
      <path
         id="path1014"
         style="font-style:normal;font-variant:normal;font-weight:normal;font-stretch:normal;font-size:11.06924152px;line-height:1.25;font-family:'Franklin Gothic FS';-inkscape-font-specification:'Franklin Gothic FS';letter-spacing:0px;word-spacing:0px;fill:#2b354c;fill-opacity:1;stroke:none;stroke-width:0.33574584"
         d="m 207.21198,166.42017 h 0.91874 v -0.94088 h -0.91874 z m 0.0332,6.4423 h 0.85233 v -5.45713 h -0.85233 z" />
      <path
         id="path1016"
         style="font-style:normal;font-variant:normal;font-weight:normal;font-stretch:normal;font-size:11.06924152px;line-height:1.25;font-family:'Franklin Gothic FS';-inkscape-font-specification:'Franklin Gothic FS';letter-spacing:0px;word-spacing:0px;fill:#2b354c;fill-opacity:1;stroke:none;stroke-width:0.33574584"
         d="m 214.18232,170.20585 c -0.0111,-0.7527 -0.0996,-1.20654 -0.32101,-1.68252 -0.38742,-0.79699 -1.14013,-1.26189 -2.05888,-1.26189 -1.49434,0 -2.53485,1.18441 -2.53485,2.90014 0,1.70466 1.0073,2.84479 2.50165,2.84479 1.10692,0 1.95925,-0.59774 2.31347,-1.60504 l -0.78592,-0.16604 c -0.12176,0.2878 -0.21031,0.44277 -0.33208,0.5756 -0.27673,0.32101 -0.69736,0.49812 -1.14013,0.49812 -0.58667,0 -1.1512,-0.33208 -1.39472,-0.83019 -0.16604,-0.34315 -0.22139,-0.63095 -0.22139,-1.27297 z m -3.92958,-0.63094 c 0.0554,-0.52026 0.1439,-0.78592 0.38742,-1.08479 0.29887,-0.37635 0.69737,-0.5756 1.17334,-0.5756 0.48705,0 0.85234,0.18818 1.12907,0.5756 0.22138,0.32101 0.29887,0.5756 0.30993,1.08479 z" />
      <path
         id="path1018"
         style="font-style:normal;font-variant:normal;font-weight:normal;font-stretch:normal;font-size:11.06924152px;line-height:1.25;font-family:'Franklin Gothic FS';-inkscape-font-specification:'Franklin Gothic FS';letter-spacing:0px;word-spacing:0px;fill:#2b354c;fill-opacity:1;stroke:none;stroke-width:0.33574584"
         d="m 215.46324,171.35706 c 0,1.09585 0.53132,1.66038 1.56076,1.66038 0.23246,0 0.4317,-0.0111 0.80806,-0.0664 v -0.67523 c -0.29887,0.0554 -0.45384,0.0664 -0.65309,0.0664 -0.58667,0 -0.88554,-0.2878 -0.88554,-0.85233 v -3.4204 h 1.22869 v -0.66415 h -1.22869 v -1.439 l -0.79698,0.0664 -0.0332,1.37259 h -0.96303 v 0.66415 h 0.96303 z" />
      <path
         id="path1020"
         style="font-style:normal;font-variant:normal;font-weight:normal;font-stretch:normal;font-size:11.06924152px;line-height:1.25;font-family:'Franklin Gothic FS';-inkscape-font-specification:'Franklin Gothic FS';letter-spacing:0px;word-spacing:0px;fill:#2b354c;fill-opacity:1;stroke:none;stroke-width:0.33574584"
         d="m 218.23348,174.04688 v 0.67523 c 0.2878,0.0664 0.4317,0.0886 0.64202,0.0886 0.37635,0 0.65308,-0.0664 0.85233,-0.21032 0.33208,-0.23245 0.56453,-0.5756 0.75271,-1.09585 l 2.19171,-6.09915 h -0.7195 l -1.49435,4.10669 -1.46114,-4.10669 h -0.8634 l 1.89284,5.35751 c -0.15497,0.48705 -0.25459,0.7195 -0.36528,0.89661 -0.18818,0.30994 -0.47598,0.46491 -0.86341,0.46491 -0.16603,0 -0.2878,-0.0221 -0.56453,-0.0775 z" />
      <path
         id="path885"
         style="font-style:italic;font-variant:normal;font-weight:normal;font-stretch:normal;font-size:12.46916103px;line-height:1.25;font-family:'Franklin Gothic FS';-inkscape-font-specification:'Franklin Gothic FS Italic';letter-spacing:0px;word-spacing:0px;fill:#2b354c;fill-opacity:1;stroke:none;stroke-width:0.29805145"
         d="m 35.377007,157.06117 c -0.249383,0.53617 -0.411482,0.8479 -0.610989,1.09729 -0.44889,0.56111 -1.022471,0.86037 -1.63346,0.86037 -1.221978,0 -1.982597,-0.99753 -1.982597,-2.60606 0,-1.07234 0.349137,-2.38161 0.885311,-3.26692 0.423951,-0.71074 1.109755,-1.12222 1.870374,-1.12222 0.685804,0 1.284324,0.3242 1.596053,0.88531 0.174568,0.3242 0.274321,0.67333 0.349136,1.27185 l 0.910249,-0.22444 c -0.112223,-0.8105 -0.261852,-1.24692 -0.561112,-1.6584 -0.511236,-0.69827 -1.359139,-1.10975 -2.294326,-1.10975 -1.221978,0 -2.269387,0.67333 -2.992599,1.92025 -0.523704,0.92271 -0.835433,2.06988 -0.835433,3.14223 0,1.38407 0.523704,2.56864 1.409015,3.15469 0.423951,0.28679 1.010002,0.44889 1.620991,0.44889 1.433953,0 2.493832,-0.8479 3.104821,-2.46889 z" />
      <path
         id="path887"
         style="font-style:italic;font-variant:normal;font-weight:normal;font-stretch:normal;font-size:12.46916103px;line-height:1.25;font-family:'Franklin Gothic FS';-inkscape-font-specification:'Franklin Gothic FS Italic';letter-spacing:0px;word-spacing:0px;fill:#2b354c;fill-opacity:1;stroke:none;stroke-width:0.29805145"
         d="m 37.037549,159.7171 h 0.947656 l 1.396546,-8.31693 h -0.947656 z" />
      <path
         id="path889"
         style="font-style:italic;font-variant:normal;font-weight:normal;font-stretch:normal;font-size:12.46916103px;line-height:1.25;font-family:'Franklin Gothic FS';-inkscape-font-specification:'Franklin Gothic FS Italic';letter-spacing:0px;word-spacing:0px;fill:#2b354c;fill-opacity:1;stroke:none;stroke-width:0.29805145"
         d="m 40.974102,159.7171 h 0.773088 l 1.970128,-4.70087 0.773088,4.70087 h 0.710742 l 2.755684,-6.17223 h -0.810495 l -2.032473,4.63853 -0.735681,-4.63853 h -0.785557 l -1.945189,4.63853 -0.685804,-4.63853 h -0.935187 z" />
      <path
         id="path891"
         style="font-style:italic;font-variant:normal;font-weight:normal;font-stretch:normal;font-size:12.46916103px;line-height:1.25;font-family:'Franklin Gothic FS';-inkscape-font-specification:'Franklin Gothic FS Italic';letter-spacing:0px;word-spacing:0px;fill:#2b354c;fill-opacity:1;stroke:none;stroke-width:0.29805145"
         d="m 48.191603,159.7171 h 0.411482 l 0.561112,-1.09728 c 0.473829,0.87284 1.04741,1.25938 1.920251,1.25938 1.022471,0 1.907782,-0.62346 2.443956,-1.75815 0.311729,-0.63593 0.486297,-1.39655 0.486297,-2.09482 0,-1.62099 -0.810495,-2.64346 -2.094819,-2.64346 -0.760619,0 -1.371608,0.3616 -1.907782,1.14716 l 0.523705,-3.12976 h -0.947656 z m 1.384077,-2.36914 c 0,-0.78556 0.274321,-1.63346 0.723211,-2.30679 0.411482,-0.61099 0.872841,-0.89778 1.433954,-0.89778 0.822964,0 1.284323,0.64839 1.284323,1.80803 0,0.62345 -0.14963,1.32173 -0.411482,1.93272 -0.349137,0.82296 -0.885311,1.25938 -1.546176,1.25938 -0.872841,0 -1.48383,-0.73568 -1.48383,-1.79556 z" />
      <path
         id="path893"
         style="font-style:italic;font-variant:normal;font-weight:normal;font-stretch:normal;font-size:12.46916103px;line-height:1.25;font-family:'Franklin Gothic FS';-inkscape-font-specification:'Franklin Gothic FS Italic';letter-spacing:0px;word-spacing:0px;fill:#2b354c;fill-opacity:1;stroke:none;stroke-width:0.29805145"
         d="m 58.093479,159.7171 h 1.010002 l 0.610989,-3.64099 h 2.456425 l 1.084817,3.64099 h 1.072348 l -1.172101,-3.82803 c 1.172101,-0.21198 1.93272,-1.10976 1.93272,-2.28186 0,-0.78555 -0.374075,-1.45889 -1.022471,-1.84543 -0.44889,-0.26186 -0.997533,-0.36161 -1.982597,-0.36161 h -2.593586 z m 1.758152,-4.47643 0.511236,-3.03 h 1.907781 c 1.184571,0 1.78309,0.46136 1.78309,1.3716 0,0.4863 -0.199506,0.96013 -0.511235,1.22198 -0.386544,0.31173 -0.910249,0.43642 -1.78309,0.43642 z" />
      <path
         id="path895"
         style="font-style:italic;font-variant:normal;font-weight:normal;font-stretch:normal;font-size:12.46916103px;line-height:1.25;font-family:'Franklin Gothic FS';-inkscape-font-specification:'Franklin Gothic FS Italic';letter-spacing:0px;word-spacing:0px;fill:#2b354c;fill-opacity:1;stroke:none;stroke-width:0.29805145"
         d="m 70.602388,159.7171 c -0.01247,-0.13716 -0.01247,-0.22444 -0.01247,-0.24938 0,-0.22445 0.03741,-0.62346 0.124691,-1.15963 0.436421,-2.8305 0.473828,-3.00507 0.473828,-3.27939 0,-0.98507 -1.022471,-1.68334 -2.481363,-1.68334 -1.209508,0 -2.132226,0.49877 -2.606054,1.40902 l 0.910248,0.38654 c 0.411483,-0.73568 0.935187,-1.04741 1.770621,-1.04741 0.922718,0 1.421485,0.41148 1.421485,1.15963 0,0.18704 -0.01247,0.31173 -0.06235,0.66087 l -0.137161,-0.0125 c -0.561112,-0.0499 -0.561112,-0.0249 -0.785557,-0.0249 -0.985064,0 -1.683337,0.0748 -2.157165,0.23691 -1.010002,0.33667 -1.596053,1.04741 -1.596053,1.93272 0,1.07235 0.835434,1.84544 1.970128,1.84544 0.910249,0 1.658398,-0.43642 2.306795,-1.38408 -0.08728,0.34914 -0.112223,0.56112 -0.112223,0.89778 0,0.0873 0,0.1621 0.01247,0.31173 z m -4.089885,-1.63346 c 0,-0.56111 0.311729,-0.99753 0.89778,-1.24691 0.399013,-0.1621 0.997532,-0.24939 1.78309,-0.24939 0.336667,0 0.336667,0 0.835433,0.0249 -0.124691,0.58605 -0.261852,0.94766 -0.523704,1.3342 -0.498767,0.73568 -1.184571,1.15963 -1.895313,1.15963 -0.673335,0 -1.097286,-0.39901 -1.097286,-1.02247 z" />
      <path
         id="path897"
         style="font-style:italic;font-variant:normal;font-weight:normal;font-stretch:normal;font-size:12.46916103px;line-height:1.25;font-family:'Franklin Gothic FS';-inkscape-font-specification:'Franklin Gothic FS Italic';letter-spacing:0px;word-spacing:0px;fill:#2b354c;fill-opacity:1;stroke:none;stroke-width:0.29805145"
         d="m 76.217797,159.7171 h 0.860372 l 1.396546,-8.31693 h -0.935187 l -0.523704,3.1547 c -0.361606,-0.77309 -0.960126,-1.15963 -1.79556,-1.15963 -0.997533,0 -1.808028,0.56111 -2.381609,1.64593 -0.361606,0.67333 -0.561113,1.4963 -0.561113,2.23198 0,1.58358 0.798027,2.60605 2.032474,2.60605 0.922717,0 1.471361,-0.3616 2.132226,-1.38408 z m -2.942722,-2.29432 c 0,-0.72321 0.199507,-1.58359 0.498767,-2.20705 0.336667,-0.67333 0.88531,-1.07234 1.496299,-1.07234 0.461359,0 0.860372,0.21197 1.159632,0.59852 0.236914,0.31173 0.324198,0.62345 0.324198,1.15963 0,1.72074 -1.010002,3.21704 -2.182103,3.21704 -0.798026,0 -1.296793,-0.64839 -1.296793,-1.6958 z" />
      <path
         id="path899"
         style="font-style:italic;font-variant:normal;font-weight:normal;font-stretch:normal;font-size:12.46916103px;line-height:1.25;font-family:'Franklin Gothic FS';-inkscape-font-specification:'Franklin Gothic FS Italic';letter-spacing:0px;word-spacing:0px;fill:#2b354c;fill-opacity:1;stroke:none;stroke-width:0.29805145"
         d="m 80.059659,152.53487 h 1.246916 l 0.187038,-1.1347 h -1.234447 z m -1.072348,7.18223 h 0.960126 l 1.03494,-6.17223 h -0.960125 z" />
      <path
         id="path901"
         style="font-style:italic;font-variant:normal;font-weight:normal;font-stretch:normal;font-size:12.46916103px;line-height:1.25;font-family:'Franklin Gothic FS';-inkscape-font-specification:'Franklin Gothic FS Italic';letter-spacing:0px;word-spacing:0px;fill:#2b354c;fill-opacity:1;stroke:none;stroke-width:0.29805145"
         d="m 81.776117,157.0487 c 0,1.72075 0.985064,2.85544 2.481363,2.85544 1.720745,0 3.092352,-1.63346 3.092352,-3.70334 0,-1.70828 -0.972594,-2.80556 -2.468894,-2.80556 -1.720744,0 -3.104821,1.63346 -3.104821,3.65346 z m 1.022471,0.23692 c 0,-0.82297 0.224445,-1.68334 0.59852,-2.3068 0.336668,-0.53617 0.847903,-0.83543 1.433954,-0.83543 0.486297,0 0.935187,0.22444 1.197039,0.58605 0.224445,0.29926 0.311729,0.6858 0.311729,1.27185 0,0.83544 -0.236914,1.70828 -0.623458,2.33174 -0.324198,0.5237 -0.822964,0.81049 -1.409015,0.81049 -0.947656,0 -1.508769,-0.6858 -1.508769,-1.8579 z" />
      <path
         id="path903"
         style="font-style:italic;font-variant:normal;font-weight:normal;font-stretch:normal;font-size:12.46916103px;line-height:1.25;font-family:'Franklin Gothic FS';-inkscape-font-specification:'Franklin Gothic FS Italic';letter-spacing:0px;word-spacing:0px;fill:#2b354c;fill-opacity:1;stroke:none;stroke-width:0.29805145"
         d="m 90.585388,159.7171 h 0.947656 l 1.19704,-2.43148 h 3.030006 l 0.423951,2.43148 h 1.072348 l -1.446422,-8.31693 h -1.159632 z m 2.53124,-3.26692 1.870374,-3.82803 0.648396,3.82803 z" />
      <path
         id="path905"
         style="font-style:italic;font-variant:normal;font-weight:normal;font-stretch:normal;font-size:12.46916103px;line-height:1.25;font-family:'Franklin Gothic FS';-inkscape-font-specification:'Franklin Gothic FS Italic';letter-spacing:0px;word-spacing:0px;fill:#2b354c;fill-opacity:1;stroke:none;stroke-width:0.29805145"
         d="m 98.409199,159.7171 h 0.972595 l 0.399013,-2.21951 c 0.299263,-1.6584 0.324193,-1.79556 0.660863,-2.36914 0.37408,-0.63593 0.83544,-0.98506 1.3342,-0.98506 0.59852,0 0.98507,0.42395 0.98507,1.05988 0,0.16209 -0.0499,0.5237 -0.1247,0.97259 l -0.58605,3.54124 h 0.96013 l 0.46136,-2.76815 c 0.1621,-0.96013 0.3616,-1.53371 0.72321,-2.02001 0.38654,-0.51123 0.77309,-0.76061 1.20951,-0.76061 0.62346,0 1.02247,0.42395 1.02247,1.07234 0,0.22445 -0.0374,0.51124 -0.0998,0.91025 l -0.59852,3.56618 h 0.94765 l 0.63593,-3.79062 c 0.0623,-0.33667 0.0873,-0.6484 0.0873,-0.89778 0,-0.94766 -0.72321,-1.64593 -1.72074,-1.64593 -0.78556,0 -1.43395,0.43642 -2.02,1.34667 -0.23692,-0.88531 -0.78556,-1.3342 -1.621,-1.3342 -0.71074,0 -1.18457,0.29926 -1.8579,1.1721 l 0.1621,-1.02247 h -0.897781 z" />
      <path
         id="path907"
         style="font-style:italic;font-variant:normal;font-weight:normal;font-stretch:normal;font-size:12.46916103px;line-height:1.25;font-family:'Franklin Gothic FS';-inkscape-font-specification:'Franklin Gothic FS Italic';letter-spacing:0px;word-spacing:0px;fill:#2b354c;fill-opacity:1;stroke:none;stroke-width:0.29805145"
         d="m 113.34336,159.7171 c -0.0125,-0.13716 -0.0125,-0.22444 -0.0125,-0.24938 0,-0.22445 0.0374,-0.62346 0.12469,-1.15963 0.43643,-2.8305 0.47383,-3.00507 0.47383,-3.27939 0,-0.98507 -1.02247,-1.68334 -2.48136,-1.68334 -1.20951,0 -2.13223,0.49877 -2.60605,1.40902 l 0.91024,0.38654 c 0.41149,-0.73568 0.93519,-1.04741 1.77062,-1.04741 0.92272,0 1.42149,0.41148 1.42149,1.15963 0,0.18704 -0.0125,0.31173 -0.0623,0.66087 l -0.13716,-0.0125 c -0.56111,-0.0499 -0.56111,-0.0249 -0.78555,-0.0249 -0.98507,0 -1.68334,0.0748 -2.15717,0.23691 -1.01,0.33667 -1.59605,1.04741 -1.59605,1.93272 0,1.07235 0.83543,1.84544 1.97013,1.84544 0.91024,0 1.65839,-0.43642 2.30679,-1.38408 -0.0873,0.34914 -0.11222,0.56112 -0.11222,0.89778 0,0.0873 0,0.1621 0.0125,0.31173 z m -4.08988,-1.63346 c 0,-0.56111 0.31173,-0.99753 0.89778,-1.24691 0.39901,-0.1621 0.99753,-0.24939 1.78309,-0.24939 0.33666,0 0.33666,0 0.83543,0.0249 -0.12469,0.58605 -0.26185,0.94766 -0.5237,1.3342 -0.49877,0.73568 -1.18457,1.15963 -1.89532,1.15963 -0.67333,0 -1.09728,-0.39901 -1.09728,-1.02247 z" />
      <path
         id="path909"
         style="font-style:italic;font-variant:normal;font-weight:normal;font-stretch:normal;font-size:12.46916103px;line-height:1.25;font-family:'Franklin Gothic FS';-inkscape-font-specification:'Franklin Gothic FS Italic';letter-spacing:0px;word-spacing:0px;fill:#2b354c;fill-opacity:1;stroke:none;stroke-width:0.29805145"
         d="m 117.52657,159.79192 0.17457,-0.0125 0.0998,-0.76062 -0.18704,0.0249 c -0.24938,0.0374 -0.47382,0.0374 -0.64839,0.0374 -0.4863,0 -0.77309,-0.24938 -0.77309,-0.6858 0,-0.1621 0.0374,-0.44889 0.0873,-0.76062 l 0.56112,-3.34173 h 1.39654 l 0.12469,-0.74815 h -1.39654 l 0.26185,-1.57112 -0.93519,0.0748 -0.24938,1.4963 h -0.96013 l -0.12469,0.74815 h 0.93519 l -0.4863,2.91778 c -0.11222,0.6858 -0.14963,0.99753 -0.14963,1.28432 0,0.92272 0.49877,1.35914 1.54618,1.35914 0.12469,0 0.26185,-0.0125 0.39901,-0.0249 z" />
      <path
         id="path911"
         style="font-style:italic;font-variant:normal;font-weight:normal;font-stretch:normal;font-size:12.46916103px;line-height:1.25;font-family:'Franklin Gothic FS';-inkscape-font-specification:'Franklin Gothic FS Italic';letter-spacing:0px;word-spacing:0px;fill:#2b354c;fill-opacity:1;stroke:none;stroke-width:0.29805145"
         d="m 122.78407,159.7171 h 0.83543 l 1.03495,-6.17223 h -0.88532 l -0.39901,2.36914 c -0.1621,0.96012 -0.33667,1.47136 -0.72321,2.06988 -0.4863,0.76062 -0.99753,1.10975 -1.60852,1.10975 -0.61099,0 -1.01,-0.39901 -1.01,-0.99753 0,-0.13716 0.0249,-0.27432 0.11222,-0.79803 l 0.62346,-3.75321 h -0.94766 l -0.59852,3.45395 c -0.0873,0.53618 -0.12469,0.87285 -0.12469,1.14717 0,1.03494 0.6858,1.73321 1.70827,1.73321 0.94766,0 1.621,-0.49877 2.23198,-1.6584 z" />
      <path
         id="path913"
         style="font-style:italic;font-variant:normal;font-weight:normal;font-stretch:normal;font-size:12.46916103px;line-height:1.25;font-family:'Franklin Gothic FS';-inkscape-font-specification:'Franklin Gothic FS Italic';letter-spacing:0px;word-spacing:0px;fill:#2b354c;fill-opacity:1;stroke:none;stroke-width:0.29805145"
         d="m 125.53937,159.7171 h 0.94766 l 0.23691,-1.38407 c 0.21198,-1.25939 0.36161,-1.87038 0.62346,-2.43149 0.47383,-1.04741 1.10976,-1.55865 1.97013,-1.55865 h 0.26185 l 0.1621,-0.97259 h -0.21198 c -0.98506,0 -1.59605,0.47383 -2.30679,1.79556 l 0.29926,-1.62099 h -0.94766 z" />
      <path
         id="path915"
         style="font-style:italic;font-variant:normal;font-weight:normal;font-stretch:normal;font-size:12.46916103px;line-height:1.25;font-family:'Franklin Gothic FS';-inkscape-font-specification:'Franklin Gothic FS Italic';letter-spacing:0px;word-spacing:0px;fill:#2b354c;fill-opacity:1;stroke:none;stroke-width:0.29805145"
         d="m 132.98151,159.7171 h 1.01 l 0.56111,-3.3542 h 1.68334 c 1.19704,0 1.92025,-0.18704 2.45642,-0.6484 0.54865,-0.4863 0.91025,-1.27185 0.91025,-2.00753 0,-0.79803 -0.42395,-1.59606 -1.03494,-1.95766 -0.42395,-0.26185 -0.89778,-0.34914 -1.92025,-0.34914 h -2.26939 z m 1.72074,-4.18964 0.54864,-3.30432 h 1.38408 c 0.59852,0 0.94766,0.0374 1.22198,0.1621 0.39901,0.18703 0.6858,0.73568 0.6858,1.3342 0,0.66086 -0.33666,1.29679 -0.83543,1.57111 -0.36161,0.18704 -0.71074,0.23691 -1.87038,0.23691 z" />
      <path
         id="path917"
         style="font-style:italic;font-variant:normal;font-weight:normal;font-stretch:normal;font-size:12.46916103px;line-height:1.25;font-family:'Franklin Gothic FS';-inkscape-font-specification:'Franklin Gothic FS Italic';letter-spacing:0px;word-spacing:0px;fill:#2b354c;fill-opacity:1;stroke:none;stroke-width:0.29805145"
         d="m 139.83506,159.7171 h 0.94766 l 0.23691,-1.38407 c 0.21198,-1.25939 0.36161,-1.87038 0.62346,-2.43149 0.47383,-1.04741 1.10976,-1.55865 1.97013,-1.55865 h 0.26185 l 0.1621,-0.97259 h -0.21197 c -0.98507,0 -1.59606,0.47383 -2.3068,1.79556 l 0.29926,-1.62099 H 140.87 Z" />
      <path
         id="path919"
         style="font-style:italic;font-variant:normal;font-weight:normal;font-stretch:normal;font-size:12.46916103px;line-height:1.25;font-family:'Franklin Gothic FS';-inkscape-font-specification:'Franklin Gothic FS Italic';letter-spacing:0px;word-spacing:0px;fill:#2b354c;fill-opacity:1;stroke:none;stroke-width:0.29805145"
         d="m 145.08439,152.53487 h 1.24691 l 0.18704,-1.1347 h -1.23445 z m -1.07235,7.18223 h 0.96012 l 1.03494,-6.17223 h -0.96012 z" />
      <path
         id="path921"
         style="font-style:italic;font-variant:normal;font-weight:normal;font-stretch:normal;font-size:12.46916103px;line-height:1.25;font-family:'Franklin Gothic FS';-inkscape-font-specification:'Franklin Gothic FS Italic';letter-spacing:0px;word-spacing:0px;fill:#2b354c;fill-opacity:1;stroke:none;stroke-width:0.29805145"
         d="m 147.06036,159.7171 h 0.94766 l 0.91025,-5.42408 h 1.4963 l 0.12469,-0.74815 h -1.4963 c 0.13716,-1.09729 0.59852,-1.57112 1.55864,-1.57112 0.13717,0 0.23692,0.0125 0.44889,0.0374 l 0.1247,-0.76062 c -0.24939,-0.0249 -0.38655,-0.0374 -0.56112,-0.0374 -1.50876,0 -2.25691,0.69828 -2.51877,2.33174 h -1.14716 l -0.12469,0.74815 h 1.14716 z" />
      <path
         id="path923"
         style="font-style:italic;font-variant:normal;font-weight:normal;font-stretch:normal;font-size:12.46916103px;line-height:1.25;font-family:'Franklin Gothic FS';-inkscape-font-specification:'Franklin Gothic FS Italic';letter-spacing:0px;word-spacing:0px;fill:#2b354c;fill-opacity:1;stroke:none;stroke-width:0.29805145"
         d="m 149.58887,161.84933 c 0.28679,0.0249 0.42395,0.0374 0.61099,0.0374 0.57358,0 1.04741,-0.17457 1.43396,-0.52371 0.32419,-0.29926 0.51123,-0.57358 0.89778,-1.30926 l 3.37914,-6.5089 h -0.82297 l -2.43148,4.6884 -0.99754,-4.6884 h -0.97259 l 1.28432,6.01013 -0.1995,0.42395 c -0.36161,0.76062 -0.84791,1.09729 -1.50877,1.09729 -0.1621,0 -0.28679,-0.0125 -0.53618,-0.0624 z" />
      <path
         id="path925"
         style="font-style:italic;font-variant:normal;font-weight:normal;font-stretch:normal;font-size:12.46916103px;line-height:1.25;font-family:'Franklin Gothic FS';-inkscape-font-specification:'Franklin Gothic FS Italic';letter-spacing:0px;word-spacing:0px;fill:#2b354c;fill-opacity:1;stroke:none;stroke-width:0.29805145"
         d="m 155.49536,158.19586 c 0.46136,1.1347 1.34667,1.68334 2.70581,1.68334 1.42148,0 2.41901,-0.81049 2.41901,-1.9826 0,-0.51123 -0.21197,-0.96012 -0.58605,-1.25938 -0.28679,-0.22445 -0.56111,-0.3242 -1.24691,-0.4863 l -0.37408,-0.0873 c -0.44889,-0.0998 -0.62346,-0.14963 -0.82296,-0.23692 -0.29926,-0.12469 -0.46136,-0.38654 -0.46136,-0.69827 0,-0.56111 0.51123,-0.96012 1.23445,-0.96012 0.78555,0 1.34666,0.34913 1.60852,1.03494 l 0.79802,-0.33667 c -0.3616,-0.93519 -1.19704,-1.44642 -2.38161,-1.44642 -1.30926,0 -2.23198,0.76061 -2.23198,1.8579 0,0.47383 0.22445,0.92272 0.59852,1.19704 0.3242,0.23691 0.63593,0.36161 1.38408,0.53617 l 0.3242,0.0748 c 0.43642,0.0998 0.71074,0.19951 0.87284,0.29926 0.19951,0.13716 0.33667,0.39901 0.33667,0.67333 0,0.63593 -0.57358,1.05988 -1.43396,1.05988 -0.94765,0 -1.55864,-0.39901 -1.8579,-1.22198 z" />
      <path
         id="path927"
         style="font-style:italic;font-variant:normal;font-weight:normal;font-stretch:normal;font-size:12.46916103px;line-height:1.25;font-family:'Franklin Gothic FS';-inkscape-font-specification:'Franklin Gothic FS Italic';letter-spacing:0px;word-spacing:0px;fill:#2b354c;fill-opacity:1;stroke:none;stroke-width:0.29805145"
         d="m 167.8034,152.34783 c -0.23692,-0.0374 -0.34914,-0.0499 -0.52371,-0.0499 -0.88531,0 -1.32173,0.34914 -1.67086,1.35914 -0.4863,-0.13716 -0.6484,-0.1621 -0.96013,-0.1621 -1.44642,0 -2.48136,0.91025 -2.48136,2.1821 0,0.61099 0.21197,1.05988 0.6858,1.43396 -0.89778,0.3616 -1.28432,0.76062 -1.28432,1.35914 0,0.37407 0.12469,0.57358 0.48629,0.79802 -0.72321,0.26185 -1.13469,0.74815 -1.13469,1.3342 0,0.98507 1.01,1.48383 3.03001,1.48383 1.94519,0 2.95519,-0.64839 2.95519,-1.89531 0,-0.51124 -0.22445,-0.91025 -0.66087,-1.18457 -0.3616,-0.23691 -0.86037,-0.29926 -2.06988,-0.3242 -1.14716,-0.0125 -1.22198,-0.0249 -1.40901,-0.0873 -0.18704,-0.0623 -0.27432,-0.18704 -0.27432,-0.33667 0,-0.31173 0.26185,-0.58605 0.79802,-0.83543 0.43642,0.18703 0.76062,0.26185 1.18457,0.26185 1.40902,0 2.44396,-0.96013 2.44396,-2.24445 0,-0.61099 -0.24939,-1.07235 -0.8105,-1.52124 0.14963,-0.53617 0.4863,-0.78555 1.04741,-0.78555 0.13716,0 0.14963,0 0.51124,0.0125 z m -3.36668,4.65099 c -0.79802,0 -1.32173,-0.5237 -1.32173,-1.32173 0,-0.87284 0.61099,-1.47136 1.48383,-1.47136 0.82297,0 1.35914,0.53618 1.35914,1.34667 0,0.84791 -0.63593,1.44642 -1.52124,1.44642 z m -2.58111,3.39162 c 0,-0.39902 0.27432,-0.69828 0.78556,-0.86038 0.54864,0.0998 0.88531,0.1247 1.67086,0.1247 1.28433,0.0125 1.68334,0.18703 1.68334,0.72321 0,0.64839 -0.6484,0.99753 -1.83297,0.99753 -1.45889,0 -2.30679,-0.36161 -2.30679,-0.98506 z" />
      <path
         id="path929"
         style="font-style:italic;font-variant:normal;font-weight:normal;font-stretch:normal;font-size:12.46916103px;line-height:1.25;font-family:'Franklin Gothic FS';-inkscape-font-specification:'Franklin Gothic FS Italic';letter-spacing:0px;word-spacing:0px;fill:#2b354c;fill-opacity:1;stroke:none;stroke-width:0.29805145"
         d="m 167.8182,157.0487 c 0,1.72075 0.98506,2.85544 2.48136,2.85544 1.72075,0 3.09236,-1.63346 3.09236,-3.70334 0,-1.70828 -0.9726,-2.80556 -2.4689,-2.80556 -1.72074,0 -3.10482,1.63346 -3.10482,3.65346 z m 1.02247,0.23692 c 0,-0.82297 0.22445,-1.68334 0.59852,-2.3068 0.33667,-0.53617 0.8479,-0.83543 1.43396,-0.83543 0.48629,0 0.93518,0.22444 1.19703,0.58605 0.22445,0.29926 0.31173,0.6858 0.31173,1.27185 0,0.83544 -0.23691,1.70828 -0.62345,2.33174 -0.3242,0.5237 -0.82297,0.81049 -1.40902,0.81049 -0.94766,0 -1.50877,-0.6858 -1.50877,-1.8579 z" />
      <path
         id="path931"
         style="font-style:italic;font-variant:normal;font-weight:normal;font-stretch:normal;font-size:12.46916103px;line-height:1.25;font-family:'Franklin Gothic FS';-inkscape-font-specification:'Franklin Gothic FS Italic';letter-spacing:0px;word-spacing:0px;fill:#2b354c;fill-opacity:1;stroke:none;stroke-width:0.29805145"
         d="m 174.22268,159.7171 h 0.94765 l 1.39655,-8.31693 h -0.94766 z" />
      <path
         id="path933"
         style="font-style:italic;font-variant:normal;font-weight:normal;font-stretch:normal;font-size:12.46916103px;line-height:1.25;font-family:'Franklin Gothic FS';-inkscape-font-specification:'Franklin Gothic FS Italic';letter-spacing:0px;word-spacing:0px;fill:#2b354c;fill-opacity:1;stroke:none;stroke-width:0.29805145"
         d="m 185.7132,157.06117 c -0.24938,0.53617 -0.41148,0.8479 -0.61098,1.09729 -0.44889,0.56111 -1.02248,0.86037 -1.63347,0.86037 -1.22197,0 -1.98259,-0.99753 -1.98259,-2.60606 0,-1.07234 0.34913,-2.38161 0.88531,-3.26692 0.42395,-0.71074 1.10975,-1.12222 1.87037,-1.12222 0.68581,0 1.28433,0.3242 1.59606,0.88531 0.17456,0.3242 0.27432,0.67333 0.34913,1.27185 l 0.91025,-0.22444 c -0.11222,-0.8105 -0.26185,-1.24692 -0.56111,-1.6584 -0.51124,-0.69827 -1.35914,-1.10975 -2.29433,-1.10975 -1.22197,0 -2.26938,0.67333 -2.9926,1.92025 -0.5237,0.92271 -0.83543,2.06988 -0.83543,3.14223 0,1.38407 0.52371,2.56864 1.40902,3.15469 0.42395,0.28679 1.01,0.44889 1.62099,0.44889 1.43395,0 2.49383,-0.8479 3.10482,-2.46889 z" />
      <path
         id="path935"
         style="font-style:italic;font-variant:normal;font-weight:normal;font-stretch:normal;font-size:12.46916103px;line-height:1.25;font-family:'Franklin Gothic FS';-inkscape-font-specification:'Franklin Gothic FS Italic';letter-spacing:0px;word-spacing:0px;fill:#2b354c;fill-opacity:1;stroke:none;stroke-width:0.29805145"
         d="m 192.3959,159.7171 c -0.0125,-0.13716 -0.0125,-0.22444 -0.0125,-0.24938 0,-0.22445 0.0374,-0.62346 0.12469,-1.15963 0.43642,-2.8305 0.47383,-3.00507 0.47383,-3.27939 0,-0.98507 -1.02247,-1.68334 -2.48136,-1.68334 -1.20951,0 -2.13223,0.49877 -2.60606,1.40902 l 0.91025,0.38654 c 0.41148,-0.73568 0.93519,-1.04741 1.77062,-1.04741 0.92272,0 1.42149,0.41148 1.42149,1.15963 0,0.18704 -0.0125,0.31173 -0.0624,0.66087 l -0.13716,-0.0125 c -0.56111,-0.0499 -0.56111,-0.0249 -0.78556,-0.0249 -0.98506,0 -1.68334,0.0748 -2.15716,0.23691 -1.01001,0.33667 -1.59606,1.04741 -1.59606,1.93272 0,1.07235 0.83544,1.84544 1.97013,1.84544 0.91025,0 1.6584,-0.43642 2.3068,-1.38408 -0.0873,0.34914 -0.11223,0.56112 -0.11223,0.89778 0,0.0873 0,0.1621 0.0125,0.31173 z m -4.08989,-1.63346 c 0,-0.56111 0.31173,-0.99753 0.89778,-1.24691 0.39902,-0.1621 0.99754,-0.24939 1.78309,-0.24939 0.33667,0 0.33667,0 0.83544,0.0249 -0.12469,0.58605 -0.26186,0.94766 -0.52371,1.3342 -0.49876,0.73568 -1.18457,1.15963 -1.89531,1.15963 -0.67334,0 -1.09729,-0.39901 -1.09729,-1.02247 z" />
      <path
         id="path937"
         style="font-style:italic;font-variant:normal;font-weight:normal;font-stretch:normal;font-size:12.46916103px;line-height:1.25;font-family:'Franklin Gothic FS';-inkscape-font-specification:'Franklin Gothic FS Italic';letter-spacing:0px;word-spacing:0px;fill:#2b354c;fill-opacity:1;stroke:none;stroke-width:0.29805145"
         d="m 198.64489,157.8966 c -0.62346,0.91025 -1.05988,1.19704 -1.85791,1.19704 -0.99753,0 -1.64592,-0.74815 -1.64592,-1.89531 0,-0.14963 0.0125,-0.26185 0.0374,-0.4863 h 4.53878 c 0.0499,-0.31172 0.0623,-0.47382 0.0623,-0.71074 0,-1.64593 -0.92271,-2.65593 -2.45642,-2.65593 -1.80803,0 -3.17964,1.59605 -3.17964,3.71581 0,1.70828 1.03494,2.8305 2.631,2.8305 1.15963,0 1.97012,-0.4863 2.6684,-1.62099 z m -3.3542,-1.88284 c 0.23691,-1.18457 1.01,-1.93272 1.98259,-1.93272 0.93519,0 1.58359,0.6484 1.54618,1.63346 l -0.0125,0.29926 z" />
      <path
         id="path939"
         style="font-style:italic;font-variant:normal;font-weight:normal;font-stretch:normal;font-size:12.46916103px;line-height:1.25;font-family:'Franklin Gothic FS';-inkscape-font-specification:'Franklin Gothic FS Italic';letter-spacing:0px;word-spacing:0px;fill:#2b354c;fill-opacity:1;stroke:none;stroke-width:0.29805145"
         d="m 200.50046,159.7171 h 0.94766 l 0.23691,-1.38407 c 0.21198,-1.25939 0.36161,-1.87038 0.62346,-2.43149 0.47383,-1.04741 1.10976,-1.55865 1.97013,-1.55865 h 0.26185 l 0.1621,-0.97259 h -0.21198 c -0.98506,0 -1.59605,0.47383 -2.30679,1.79556 l 0.29926,-1.62099 h -0.94766 z" />
      <path
         id="path941"
         style="font-style:italic;font-variant:normal;font-weight:normal;font-stretch:normal;font-size:12.46916103px;line-height:1.25;font-family:'Franklin Gothic FS';-inkscape-font-specification:'Franklin Gothic FS Italic';letter-spacing:0px;word-spacing:0px;fill:#2b354c;fill-opacity:1;stroke:none;stroke-width:0.29805145"
         d="m 208.58087,159.7171 h 0.86037 l 1.39655,-8.31693 h -0.93519 l -0.52371,3.1547 c -0.3616,-0.77309 -0.96012,-1.15963 -1.79555,-1.15963 -0.99754,0 -1.80803,0.56111 -2.38161,1.64593 -0.36161,0.67333 -0.56112,1.4963 -0.56112,2.23198 0,1.58358 0.79803,2.60605 2.03248,2.60605 0.92271,0 1.47136,-0.3616 2.13222,-1.38408 z m -2.94272,-2.29432 c 0,-0.72321 0.1995,-1.58359 0.49876,-2.20705 0.33667,-0.67333 0.88531,-1.07234 1.4963,-1.07234 0.46136,0 0.86037,0.21197 1.15963,0.59852 0.23692,0.31173 0.3242,0.62345 0.3242,1.15963 0,1.72074 -1.01,3.21704 -2.1821,3.21704 -0.79803,0 -1.29679,-0.64839 -1.29679,-1.6958 z" />
      <path
         id="path943"
         style="font-style:italic;font-variant:normal;font-weight:normal;font-stretch:normal;font-size:12.46916103px;line-height:1.25;font-family:'Franklin Gothic FS';-inkscape-font-specification:'Franklin Gothic FS Italic';letter-spacing:0px;word-spacing:0px;fill:#2b354c;fill-opacity:1;stroke:none;stroke-width:0.29805145"
         d="m 210.30297,161.84933 c 0.28679,0.0249 0.42395,0.0374 0.61099,0.0374 0.57358,0 1.04741,-0.17457 1.43395,-0.52371 0.3242,-0.29926 0.51124,-0.57358 0.89778,-1.30926 l 3.37914,-6.5089 h -0.82296 l -2.43149,4.6884 -0.99753,-4.6884 h -0.97259 l 1.28432,6.01013 -0.19951,0.42395 c -0.3616,0.76062 -0.8479,1.09729 -1.50877,1.09729 -0.16209,0 -0.28679,-0.0125 -0.53617,-0.0624 z" />
      <path
         id="path945"
         style="font-style:italic;font-variant:normal;font-weight:normal;font-stretch:normal;font-size:12.46916103px;line-height:1.25;font-family:'Franklin Gothic FS';-inkscape-font-specification:'Franklin Gothic FS Italic';letter-spacing:0px;word-spacing:0px;fill:#2b354c;fill-opacity:1;stroke:none;stroke-width:0.29805145"
         d="m 220.58731,159.7171 h 0.86037 l 1.39655,-8.31693 h -0.93519 l -0.52371,3.1547 c -0.3616,-0.77309 -0.96012,-1.15963 -1.79556,-1.15963 -0.99753,0 -1.80802,0.56111 -2.3816,1.64593 -0.36161,0.67333 -0.56112,1.4963 -0.56112,2.23198 0,1.58358 0.79803,2.60605 2.03248,2.60605 0.92271,0 1.47136,-0.3616 2.13222,-1.38408 z m -2.94272,-2.29432 c 0,-0.72321 0.1995,-1.58359 0.49876,-2.20705 0.33667,-0.67333 0.88531,-1.07234 1.4963,-1.07234 0.46136,0 0.86037,0.21197 1.15963,0.59852 0.23692,0.31173 0.3242,0.62345 0.3242,1.15963 0,1.72074 -1.01,3.21704 -2.1821,3.21704 -0.79803,0 -1.29679,-0.64839 -1.29679,-1.6958 z" />
      <path
         id="path947"
         style="font-style:italic;font-variant:normal;font-weight:normal;font-stretch:normal;font-size:12.46916103px;line-height:1.25;font-family:'Franklin Gothic FS';-inkscape-font-specification:'Franklin Gothic FS Italic';letter-spacing:0px;word-spacing:0px;fill:#2b354c;fill-opacity:1;stroke:none;stroke-width:0.29805145"
         d="m 227.21154,159.7171 h 0.86038 l 1.39654,-8.31693 h -0.93518 l -0.52371,3.1547 c -0.3616,-0.77309 -0.96012,-1.15963 -1.79556,-1.15963 -0.99753,0 -1.80803,0.56111 -2.38161,1.64593 -0.3616,0.67333 -0.56111,1.4963 -0.56111,2.23198 0,1.58358 0.79803,2.60605 2.03247,2.60605 0.92272,0 1.47136,-0.3616 2.13223,-1.38408 z m -2.94272,-2.29432 c 0,-0.72321 0.19951,-1.58359 0.49877,-2.20705 0.33667,-0.67333 0.88531,-1.07234 1.4963,-1.07234 0.46136,0 0.86037,0.21197 1.15963,0.59852 0.23691,0.31173 0.3242,0.62345 0.3242,1.15963 0,1.72074 -1.01,3.21704 -2.1821,3.21704 -0.79803,0 -1.2968,-0.64839 -1.2968,-1.6958 z" />
    </g>
    <g
       id="flowRoot845"
       style="font-style:normal;font-variant:normal;font-weight:normal;font-stretch:normal;font-size:10.58333302px;line-height:1.25;font-family:'Franklin Gothic FS';-inkscape-font-specification:'Franklin Gothic FS';letter-spacing:0px;word-spacing:0px;fill:#000000;fill-opacity:1;stroke:none;stroke-width:0.26458332" />
    <g
       id="text817"
       style="font-style:normal;font-variant:normal;font-weight:normal;font-stretch:normal;font-size:10.58333302px;line-height:1.25;font-family:'Franklin Gothic FS';-inkscape-font-specification:'Franklin Gothic FS';letter-spacing:0px;word-spacing:0px;fill:#383735;fill-opacity:1;stroke:none;stroke-width:0.26458332" />
    <g
       id="g1190">
      <g
         id="g1163">
        <path
           id="path6003"
           style="font-style:normal;font-variant:normal;font-weight:normal;font-stretch:normal;font-size:medium;line-height:1.25;font-family:'Franklin Gothic FS';-inkscape-font-specification:'Franklin Gothic FS';letter-spacing:0px;word-spacing:0px;fill:#d73648;fill-opacity:1;stroke:none;stroke-width:0.79374999;stroke-linecap:round;stroke-linejoin:round;stroke-miterlimit:5;stroke-dasharray:none;stroke-opacity:1;paint-order:stroke markers fill"
           d="m 54.226504,128.95593 c -1.16417,4.19101 -1.94028,5.97606 -3.4925,8.14917 -2.0955,2.87162 -5.82084,4.73429 -9.54617,4.73429 -8.614833,0 -14.125222,-8.3044 -14.125222,-21.18783 0,-13.50434 5.355167,-21.575895 14.358052,-21.575895 6.36412,0 10.08945,3.647725 12.65062,12.262555 l 6.05366,-1.16417 C 57.408554,99.075665 51.199664,93.565275 41.498284,93.565275 28.459612,93.565275 20,103.96517 20,119.95306 c 0,8.382 2.405945,15.83266 6.829778,21.11022 3.492501,4.11339 8.382001,6.2865 14.202836,6.2865 5.82083,0 10.55511,-2.0955 13.89239,-6.05368 2.56116,-3.02682 3.80294,-5.6656 5.19994,-11.02078 z" />
        <path
           id="path6005"
           style="font-style:normal;font-variant:normal;font-weight:normal;font-stretch:normal;font-size:medium;line-height:1.25;font-family:'Franklin Gothic FS';-inkscape-font-specification:'Franklin Gothic FS';letter-spacing:0px;word-spacing:0px;fill:#d73648;fill-opacity:1;stroke:none;stroke-width:0.79374999;stroke-linecap:round;stroke-linejoin:round;stroke-miterlimit:5;stroke-dasharray:none;stroke-opacity:1;paint-order:stroke markers fill"
           d="m 102.89837,94.574215 h -5.355166 v 33.838445 c 0,4.57905 -0.6985,7.29545 -2.56116,9.46855 -2.01789,2.40595 -5.51039,3.80295 -9.54617,3.80295 -4.03578,0 -7.83872,-1.47461 -9.62378,-3.80295 -1.47461,-1.94028 -2.0955,-4.65666 -2.0955,-9.46855 V 94.574215 h -6.44172 v 33.838445 c 0,5.89844 0.93133,9.62377 3.10444,12.80584 2.87161,4.11339 7.6835,6.13128 14.51328,6.13128 6.51933,0 11.48645,-2.0955 14.51328,-6.13128 2.483546,-3.25967 3.492496,-6.90739 3.492496,-12.80584 z" />
      </g>
      <g
         id="g1177">
        <path
           id="path6007"
           d="m 129.32027,81.654042 c -3.86606,-5e-5 -7.00014,3.134026 -7.00009,7.000089 0.004,2.406076 1.24254,4.641718 3.28094,5.920052 h -0.004 l -16.76384,51.766867 h 5.43275 l 4.57904,-15.13448 h 19.1699 l 5.2002,15.13448 h 6.67452 L 133.04821,94.575218 c 2.03535,-1.280634 3.27088,-3.516369 3.27215,-5.921087 5e-5,-3.866063 -3.13403,-7.000139 -7.00009,-7.000089 z m -0.61857,19.827728 7.91632,24.83518 h -15.91014 z"
           style="font-style:normal;font-variant:normal;font-weight:normal;font-stretch:normal;font-size:77.6111145px;line-height:1.25;font-family:'Franklin Gothic FS';-inkscape-font-specification:'Franklin Gothic FS';letter-spacing:0px;word-spacing:0px;fill:#2b354c;fill-opacity:1;stroke:none;stroke-width:1.00012493;stroke-linecap:round;stroke-linejoin:round;stroke-miterlimit:4.75;stroke-dasharray:none;stroke-opacity:1;paint-order:stroke markers fill" />
        <path
           id="path6009"
           style="font-style:normal;font-variant:normal;font-weight:normal;font-stretch:normal;font-size:77.6111145px;line-height:1.25;font-family:'Franklin Gothic FS';-inkscape-font-specification:'Franklin Gothic FS';letter-spacing:0px;word-spacing:0px;fill:#2b354c;fill-opacity:1;stroke:none;stroke-width:1.00012505;stroke-linecap:round;stroke-linejoin:round;stroke-miterlimit:4.75;stroke-dasharray:none;stroke-opacity:1;paint-order:stroke markers fill"
           d="m 157.78883,146.34082 h 6.05367 v -22.4296 h 14.82372 l 9.54617,22.4296 h 6.82978 l -10.16706,-23.98183 c 3.02684,-1.08655 4.50145,-1.94028 6.05367,-3.72533 2.17311,-2.40595 3.57011,-6.13128 3.57011,-9.54617 0,-8.61483 -6.67456,-14.513275 -16.37594,-14.513275 h -20.33412 z m 6.05367,-27.70715 v -18.39384 h 14.28045 c 6.13127,0 9.93422,3.33728 9.93422,8.69245 0,2.63876 -0.93134,5.04472 -2.63878,6.82978 -1.94028,2.01787 -4.34622,2.87161 -8.07156,2.87161 z" />
        <path
           id="path6011"
           style="font-style:normal;font-variant:normal;font-weight:normal;font-stretch:normal;font-size:77.6111145px;line-height:1.25;font-family:'Franklin Gothic FS';-inkscape-font-specification:'Franklin Gothic FS';letter-spacing:0px;word-spacing:0px;fill:#2b354c;fill-opacity:1;stroke:none;stroke-width:1.00012505;stroke-linecap:round;stroke-linejoin:round;stroke-miterlimit:4.75;stroke-dasharray:none;stroke-opacity:1;paint-order:stroke markers fill"
           d="m 216.57319,115.14117 c -6.05367,-1.47462 -8.45962,-3.72535 -8.45962,-7.83873 0,-4.8895 4.65667,-8.459615 10.94317,-8.459615 3.4925,0 7.06261,1.241785 9.62378,3.492505 1.70744,1.47461 2.56117,2.87161 3.25967,5.588 l 5.82083,-1.62983 c -2.87161,-8.382005 -9.23572,-12.728225 -18.47145,-12.728225 -10.4775,0 -17.4625,5.66561 -17.4625,14.125225 0,3.95817 1.47461,7.45067 4.191,10.01183 2.0955,1.86267 4.26861,2.794 8.53723,3.88056 l 10.32227,2.63878 c 4.96712,1.24177 7.91634,4.2686 7.91634,8.14915 0,5.89845 -4.73428,9.46856 -12.41778,9.46856 -7.91633,0 -12.88345,-3.41489 -15.28939,-10.55511 l -5.82083,1.24178 c 1.86266,4.8895 3.25966,7.14022 5.97605,9.62377 3.80295,3.57012 8.61484,5.19995 15.05656,5.19995 11.71928,0 19.24756,-6.13128 19.24756,-15.59984 0,-7.37305 -4.50145,-12.10732 -13.34912,-14.28044 z" />
        <g
           id="g1168">
          <path
             id="circle4738"
             d="m 129.32029,19.471306 c -35.888016,3e-6 -65.044926,29.15691 -65.044926,65.044922 a 3.0003,3.0003 0 1 0 6,0 c 0,-32.645371 26.39955,-59.044919 59.044926,-59.044922 32.64537,-8e-6 59.04492,26.399543 59.04492,59.044922 a 3.0003,3.0003 0 1 0 6,0 c 0,-35.88802 -29.1569,-65.044931 -65.04492,-65.044922 z"
             style="color:#000000;font-style:normal;font-variant:normal;font-weight:normal;font-stretch:normal;font-size:medium;line-height:normal;font-family:sans-serif;font-variant-ligatures:normal;font-variant-position:normal;font-variant-caps:normal;font-variant-numeric:normal;font-variant-alternates:normal;font-feature-settings:normal;text-indent:0;text-align:start;text-decoration:none;text-decoration-line:none;text-decoration-style:solid;text-decoration-color:#000000;letter-spacing:normal;word-spacing:normal;text-transform:none;writing-mode:lr-tb;direction:ltr;text-orientation:mixed;dominant-baseline:auto;baseline-shift:baseline;text-anchor:start;white-space:normal;shape-padding:0;clip-rule:nonzero;display:inline;overflow:visible;visibility:visible;opacity:1;isolation:auto;mix-blend-mode:normal;color-interpolation:sRGB;color-interpolation-filters:linearRGB;solid-color:#000000;solid-opacity:1;vector-effect:none;fill:#2b354c;fill-opacity:1;fill-rule:nonzero;stroke:none;stroke-width:1.00012505;stroke-linecap:round;stroke-linejoin:round;stroke-miterlimit:4.75;stroke-dasharray:none;stroke-dashoffset:75.59055328;stroke-opacity:1;paint-order:markers stroke fill;color-rendering:auto;image-rendering:auto;shape-rendering:auto;text-rendering:auto;enable-background:accumulate" />
          <path
             id="circle4740"
             d="m 129.32029,44.799431 c -21.89987,5e-6 -39.716796,17.816927 -39.716796,39.716797 a 3.0003,3.0003 0 1 0 6,0 c 0,-18.65723 15.059566,-33.716793 33.716796,-33.716797 18.65723,-10e-7 33.71679,15.059563 33.71679,33.716797 a 3.0003,3.0003 0 1 0 6,0 c 0,-21.899874 -17.81692,-39.716798 -39.71679,-39.716797 z"
             style="color:#000000;font-style:normal;font-variant:normal;font-weight:normal;font-stretch:normal;font-size:medium;line-height:normal;font-family:sans-serif;font-variant-ligatures:normal;font-variant-position:normal;font-variant-caps:normal;font-variant-numeric:normal;font-variant-alternates:normal;font-feature-settings:normal;text-indent:0;text-align:start;text-decoration:none;text-decoration-line:none;text-decoration-style:solid;text-decoration-color:#000000;letter-spacing:normal;word-spacing:normal;text-transform:none;writing-mode:lr-tb;direction:ltr;text-orientation:mixed;dominant-baseline:auto;baseline-shift:baseline;text-anchor:start;white-space:normal;shape-padding:0;clip-rule:nonzero;display:inline;overflow:visible;visibility:visible;opacity:1;isolation:auto;mix-blend-mode:normal;color-interpolation:sRGB;color-interpolation-filters:linearRGB;solid-color:#000000;solid-opacity:1;vector-effect:none;fill:#2b354c;fill-opacity:1;fill-rule:nonzero;stroke:none;stroke-width:1.00012505;stroke-linecap:round;stroke-linejoin:round;stroke-miterlimit:4.75;stroke-dasharray:none;stroke-dashoffset:75.59055328;stroke-opacity:1;paint-order:markers stroke fill;color-rendering:auto;image-rendering:auto;shape-rendering:auto;text-rendering:auto;enable-background:accumulate" />
          <path
             id="circle4742"
             d="m 129.32029,65.527946 c -10.45146,2e-6 -18.98829,8.536828 -18.98829,18.988282 a 3.0003,3.0003 0 1 0 6,0 c 0,-7.208814 5.77947,-12.988281 12.98829,-12.988282 7.20881,-3e-6 12.98828,5.779465 12.98828,12.988282 a 3.0003,3.0003 0 1 0 6,0 c 0,-10.451459 -8.53683,-18.988287 -18.98828,-18.988282 z"
             style="color:#000000;font-style:normal;font-variant:normal;font-weight:normal;font-stretch:normal;font-size:medium;line-height:normal;font-family:sans-serif;font-variant-ligatures:normal;font-variant-position:normal;font-variant-caps:normal;font-variant-numeric:normal;font-variant-alternates:normal;font-feature-settings:normal;text-indent:0;text-align:start;text-decoration:none;text-decoration-line:none;text-decoration-style:solid;text-decoration-color:#000000;letter-spacing:normal;word-spacing:normal;text-transform:none;writing-mode:lr-tb;direction:ltr;text-orientation:mixed;dominant-baseline:auto;baseline-shift:baseline;text-anchor:start;white-space:normal;shape-padding:0;clip-rule:nonzero;display:inline;overflow:visible;visibility:visible;opacity:1;isolation:auto;mix-blend-mode:normal;color-interpolation:sRGB;color-interpolation-filters:linearRGB;solid-color:#000000;solid-opacity:1;vector-effect:none;fill:#2b354c;fill-opacity:1;fill-rule:nonzero;stroke:none;stroke-width:1.00012505;stroke-linecap:round;stroke-linejoin:round;stroke-miterlimit:4.75;stroke-dasharray:none;stroke-dashoffset:75.59055328;stroke-opacity:1;paint-order:markers stroke fill;color-rendering:auto;image-rendering:auto;shape-rendering:auto;text-rendering:auto;enable-background:accumulate" />
        </g>
      </g>
    </g>
    <g
       id="text4748"
       style="font-style:normal;font-variant:normal;font-weight:normal;font-stretch:normal;font-size:10.58333302px;line-height:1.25;font-family:'Franklin Gothic FS';-inkscape-font-specification:'Franklin Gothic FS';letter-spacing:0px;word-spacing:0px;fill:#2b354c;fill-opacity:1;stroke:none;stroke-width:1.00012505;stroke-miterlimit:4.75;stroke-dasharray:none;stroke-opacity:1" />
    <g
       id="text4752"
       style="font-style:normal;font-variant:normal;font-weight:normal;font-stretch:normal;font-size:10.58333302px;line-height:1.25;font-family:'Franklin Gothic FS';-inkscape-font-specification:'Franklin Gothic FS';letter-spacing:0px;word-spacing:0px;fill:#2b354c;fill-opacity:1;stroke:none;stroke-width:1.00012505;stroke-miterlimit:4.75;stroke-dasharray:none;stroke-opacity:1" />
  </g>
  <g
     transform="translate(-84.470726,55.533202)"
     style="display:none"
     id="layer2">
    <circle
       r="48.319736"
       cy="72.929214"
       cx="147.3931"
       id="path4530-2-6"
       style="fill:none;fill-opacity:1;stroke:#03175e;stroke-width:3.10737848;stroke-linejoin:round;stroke-miterlimit:4;stroke-dasharray:none;stroke-dashoffset:75.59055328;stroke-opacity:1;paint-order:markers stroke fill" />
    <circle
       r="31.953234"
       cy="72.929214"
       cx="147.3931"
       id="path4530-2"
       style="fill:none;fill-opacity:1;stroke:#03175e;stroke-width:2.94056273;stroke-linejoin:round;stroke-miterlimit:4;stroke-dasharray:none;stroke-dashoffset:75.59055328;stroke-opacity:1;paint-order:markers stroke fill" />
    <circle
       r="15.988372"
       cy="72.929214"
       cx="147.3931"
       id="path4530-2-7"
       style="fill:none;fill-opacity:1;stroke:#03175e;stroke-width:2.36864758;stroke-linejoin:round;stroke-miterlimit:4;stroke-dasharray:none;stroke-dashoffset:75.59055328;stroke-opacity:1;paint-order:markers stroke fill" />
    <circle
       r="7"
       cy="72.929214"
       cx="147.3931"
       id="path4530"
       style="fill:#03175e;fill-opacity:1;stroke:none;stroke-width:3.8888886;stroke-linejoin:round;stroke-miterlimit:4;stroke-dasharray:none;stroke-dashoffset:75.59055328;stroke-opacity:1;paint-order:markers stroke fill" />
    <text
       id="text4717"
       y="173.11681"
       x="58.799297"
       style="font-style:normal;font-variant:normal;font-weight:normal;font-stretch:normal;font-size:10.58333302px;line-height:1.25;font-family:'Franklin Gothic FS';-inkscape-font-specification:'Franklin Gothic FS';letter-spacing:0px;word-spacing:0px;fill:#000000;fill-opacity:1;stroke:none;stroke-width:0.26458332"
       xml:space="preserve"><tspan
         style="stroke-width:0.26458332"
         y="183.19214"
         x="58.799297"
         id="tspan4715" /></text>
    <text
       id="text4721"
       y="181.66943"
       x="109.84778"
       style="font-style:normal;font-variant:normal;font-weight:normal;font-stretch:normal;font-size:10.58333302px;line-height:1.25;font-family:'Franklin Gothic FS';-inkscape-font-specification:'Franklin Gothic FS';letter-spacing:0px;word-spacing:0px;fill:#000000;fill-opacity:1;stroke:none;stroke-width:0.26458332"
       xml:space="preserve"><tspan
         style="stroke-width:0.26458332"
         y="191.74477"
         x="109.84778"
         id="tspan4719" /></text>
    <rect
       y="78.848946"
       x="83.541641"
       height="62.541069"
       width="175.59608"
       id="rect4736"
       style="fill:#000000;fill-opacity:1;stroke:none;stroke-width:2;stroke-linejoin:round;stroke-miterlimit:4;stroke-dasharray:none;stroke-dashoffset:75.59055328;stroke-opacity:1;paint-order:markers stroke fill" />
  </g>
</svg>
