<?xml version="1.0" encoding="UTF-8" standalone="no"?>
<svg
   xmlns:dc="http://purl.org/dc/elements/1.1/"
   xmlns:cc="http://creativecommons.org/ns#"
   xmlns:rdf="http://www.w3.org/1999/02/22-rdf-syntax-ns#"
   xmlns:svg="http://www.w3.org/2000/svg"
   xmlns="http://www.w3.org/2000/svg"
   xmlns:sodipodi="http://sodipodi.sourceforge.net/DTD/sodipodi-0.dtd"
   xmlns:inkscape="http://www.inkscape.org/namespaces/inkscape"
   width="219.54608mm"
   height="126.9161mm"
   viewBox="0 0 219.54608 126.9161"
   version="1.1"
   id="svg8"
   sodipodi:docname="CUARS_BlueB_RedWhite.svg"
   inkscape:version="0.92.3 (2405546, 2018-03-11)">
  <sodipodi:namedview
     pagecolor="#ffffff"
     bordercolor="#666666"
     borderopacity="1"
     objecttolerance="10"
     gridtolerance="10"
     guidetolerance="10"
     inkscape:pageopacity="0"
     inkscape:pageshadow="2"
     inkscape:window-width="1920"
     inkscape:window-height="1017"
     id="namedview38"
     showgrid="false"
     inkscape:pagecheckerboard="true"
     inkscape:zoom="0.5790237"
     inkscape:cx="204.18095"
     inkscape:cy="452.59932"
     inkscape:window-x="-8"
     inkscape:window-y="-8"
     inkscape:window-maximized="1"
     inkscape:current-layer="text821"
     showguides="true"
     inkscape:guide-bbox="true"
     fit-margin-top="0"
     fit-margin-left="0"
     fit-margin-right="0"
     fit-margin-bottom="0" />
  <defs
     id="defs2" />
  <metadata
     id="metadata5">
    <rdf:RDF>
      <cc:Work
         rdf:about="">
        <dc:format>image/svg+xml</dc:format>
        <dc:type
           rdf:resource="http://purl.org/dc/dcmitype/StillImage" />
        <dc:title></dc:title>
      </cc:Work>
    </rdf:RDF>
  </metadata>
  <g
     id="layer4"
     transform="translate(-84.470726,-31.466321)" />
  <g
     id="layer2"
     style="display:none"
     transform="translate(-84.470726,55.533676)">
    <circle
       style="fill:none;fill-opacity:1;stroke:#03175e;stroke-width:3.10737848;stroke-linejoin:round;stroke-miterlimit:4;stroke-dasharray:none;stroke-dashoffset:75.59055328;stroke-opacity:1;paint-order:markers stroke fill"
       id="path4530-2-6"
       cx="147.3931"
       cy="72.929214"
       r="48.319736" />
    <circle
       style="fill:none;fill-opacity:1;stroke:#03175e;stroke-width:2.94056273;stroke-linejoin:round;stroke-miterlimit:4;stroke-dasharray:none;stroke-dashoffset:75.59055328;stroke-opacity:1;paint-order:markers stroke fill"
       id="path4530-2"
       cx="147.3931"
       cy="72.929214"
       r="31.953234" />
    <circle
       style="fill:none;fill-opacity:1;stroke:#03175e;stroke-width:2.36864758;stroke-linejoin:round;stroke-miterlimit:4;stroke-dasharray:none;stroke-dashoffset:75.59055328;stroke-opacity:1;paint-order:markers stroke fill"
       id="path4530-2-7"
       cx="147.3931"
       cy="72.929214"
       r="15.988372" />
    <circle
       style="fill:#03175e;fill-opacity:1;stroke:none;stroke-width:3.8888886;stroke-linejoin:round;stroke-miterlimit:4;stroke-dasharray:none;stroke-dashoffset:75.59055328;stroke-opacity:1;paint-order:markers stroke fill"
       id="path4530"
       cx="147.3931"
       cy="72.929214"
       r="7" />
    <text
       xml:space="preserve"
       style="font-style:normal;font-variant:normal;font-weight:normal;font-stretch:normal;font-size:10.58333302px;line-height:1.25;font-family:'Franklin Gothic FS';-inkscape-font-specification:'Franklin Gothic FS';letter-spacing:0px;word-spacing:0px;fill:#000000;fill-opacity:1;stroke:none;stroke-width:0.26458332"
       x="58.799297"
       y="173.11681"
       id="text4717"><tspan
         id="tspan4715"
         x="58.799297"
         y="183.19214"
         style="stroke-width:0.26458332" /></text>
    <text
       xml:space="preserve"
       style="font-style:normal;font-variant:normal;font-weight:normal;font-stretch:normal;font-size:10.58333302px;line-height:1.25;font-family:'Franklin Gothic FS';-inkscape-font-specification:'Franklin Gothic FS';letter-spacing:0px;word-spacing:0px;fill:#000000;fill-opacity:1;stroke:none;stroke-width:0.26458332"
       x="109.84778"
       y="181.66943"
       id="text4721"><tspan
         id="tspan4719"
         x="109.84778"
         y="191.74477"
         style="stroke-width:0.26458332" /></text>
    <rect
       style="fill:#000000;fill-opacity:1;stroke:none;stroke-width:2;stroke-linejoin:round;stroke-miterlimit:4;stroke-dasharray:none;stroke-dashoffset:75.59055328;stroke-opacity:1;paint-order:markers stroke fill"
       id="rect4736"
       width="175.59608"
       height="62.541069"
       x="83.541641"
       y="78.848946" />
  </g>
  <g
     id="layer3"
     transform="translate(-84.470726,55.533676)" />
  <g
     id="layer1"
     transform="translate(-84.470726,-31.466321)"
     style="opacity:1">
    <text
       xml:space="preserve"
       style="font-style:normal;font-variant:normal;font-weight:normal;font-stretch:normal;font-size:10.58333302px;line-height:1.25;font-family:'Franklin Gothic FS';-inkscape-font-specification:'Franklin Gothic FS';letter-spacing:0px;word-spacing:0px;fill:#383735;fill-opacity:1;stroke:none;stroke-width:0.26458332"
       x="64.144684"
       y="95.74604"
       id="text817"><tspan
         id="tspan815"
         x="64.144684"
         y="105.82137"
         style="fill:#383735;fill-opacity:1;stroke-width:0.26458332" /></text>
    <g
       aria-label="CUARS"
       style="font-style:normal;font-variant:normal;font-weight:normal;font-stretch:normal;font-size:77.6111145px;line-height:1.25;font-family:'Franklin Gothic FS';-inkscape-font-specification:'Franklin Gothic FS';letter-spacing:0px;word-spacing:0px;opacity:1;fill:#03175e;fill-opacity:1;stroke:none;stroke-width:1;stroke-miterlimit:5;stroke-dasharray:none;stroke-opacity:1"
       id="text821">
      <path
         style="fill:none;fill-opacity:1;stroke:#ffffff;stroke-width:6;stroke-linecap:round;stroke-linejoin:round;stroke-miterlimit:4;stroke-dasharray:none;stroke-dashoffset:75.59055328;stroke-opacity:1;paint-order:markers stroke fill"
         d="M 131.74575,96.51166 A 62.045337,62.045337 0 0 1 193.79108,34.466321 62.045337,62.045337 0 0 1 255.83643,96.51166"
         id="circle4738"
         inkscape:connector-curvature="0" />
      <path
         style="fill:#ffffff;fill-opacity:1;stroke:none;stroke-width:3.8888886;stroke-linejoin:round;stroke-miterlimit:4;stroke-dasharray:none;stroke-dashoffset:75.59055328;stroke-opacity:1;paint-order:markers stroke fill"
         d="m 200.79109,99.686668 a 7,7 0 0 1 -7,7.000002 7,7 0 0 1 -7,-7.000002 7,7 0 0 1 7,-7 7,7 0 0 1 7,7 z"
         id="circle4744" />
      <path
         style="fill:none;fill-opacity:1;stroke:#ffffff;stroke-width:6;stroke-linecap:round;stroke-linejoin:round;stroke-miterlimit:4;stroke-dasharray:none;stroke-dashoffset:75.59055328;stroke-opacity:1;paint-order:markers stroke fill"
         d="M 157.07352,96.51166 A 36.717568,36.717568 0 0 1 193.79108,59.794089 36.717568,36.717568 0 0 1 230.50865,96.51166"
         id="circle4740"
         inkscape:connector-curvature="0" />
      <path
         style="fill:none;fill-opacity:1;stroke:#ffffff;stroke-width:6;stroke-linecap:round;stroke-linejoin:round;stroke-miterlimit:4;stroke-dasharray:none;stroke-dashoffset:75.59055328;stroke-opacity:1;paint-order:markers stroke fill"
         d="M 177.80271,96.51166 A 15.988372,15.988372 0 0 1 193.79108,80.523286 15.988372,15.988372 0 0 1 209.77946,96.51166"
         id="circle4742"
         inkscape:connector-curvature="0" />
      <g
         aria-label="CUARS"
         style="font-style:normal;font-variant:normal;font-weight:normal;font-stretch:normal;font-size:77.6111145px;line-height:1.25;font-family:'Franklin Gothic FS';-inkscape-font-specification:'Franklin Gothic FS';letter-spacing:0px;word-spacing:0px;opacity:1;fill:#03175e;fill-opacity:1;stroke:none;stroke-width:0.26458332;stroke-opacity:1"
         id="text821-7">
        <path
           d="m 118.69723,139.98858 c -1.16417,4.191 -1.94028,5.97606 -3.4925,8.14917 -2.0955,2.87161 -5.82084,4.73428 -9.54617,4.73428 -8.614833,0 -14.125222,-8.30439 -14.125222,-21.18783 0,-13.50434 5.355167,-21.57589 14.358052,-21.57589 6.36412,0 10.08945,3.64772 12.65062,12.26255 l 6.05366,-1.16417 c -2.71639,-11.09838 -8.92528,-16.60877 -18.62666,-16.60877 -13.038672,0 -21.498284,10.39989 -21.498284,26.38778 0,8.382 2.405945,15.83266 6.829778,21.11022 3.492501,4.11339 8.382001,6.2865 14.202836,6.2865 5.82083,0 10.55511,-2.0955 13.89239,-6.05367 2.56116,-3.02683 3.80294,-5.66561 5.19994,-11.02078 z"
           style="fill:#d73648;fill-opacity:1;stroke:none;stroke-width:0.26458332"
           id="path845" />
        <path
           d="m 167.3691,105.60686 h -5.35517 v 33.83845 c 0,4.57905 -0.6985,7.29544 -2.56116,9.46855 -2.01789,2.40595 -5.51039,3.80295 -9.54617,3.80295 -4.03578,0 -7.83872,-1.47461 -9.62378,-3.80295 -1.47461,-1.94028 -2.0955,-4.65666 -2.0955,-9.46855 v -33.83845 h -6.44172 v 33.83845 c 0,5.89844 0.93133,9.62377 3.10444,12.80583 2.87161,4.11339 7.6835,6.13128 14.51328,6.13128 6.51933,0 11.48645,-2.0955 14.51328,-6.13128 2.48355,-3.25967 3.4925,-6.90739 3.4925,-12.80583 z"
           style="fill:#d73648;fill-opacity:1;stroke:none;stroke-width:0.26458332"
           id="path847" />
        <path
           d="m 173.30392,157.37347 h 5.43278 l 4.57906,-15.13416 h 19.16994 l 5.19995,15.13416 h 6.67455 l -16.84161,-51.76661 h -7.45067 z m 11.8745,-20.02366 7.99395,-24.83556 7.91633,24.83556 z"
           style="fill:#ffffff;fill-opacity:1"
           id="path849" />
        <path
           d="m 222.25956,157.37347 h 6.05367 v -22.42961 h 14.82372 l 9.54617,22.42961 h 6.82978 l -10.16706,-23.98183 c 3.02684,-1.08656 4.50145,-1.94028 6.05367,-3.72533 2.17311,-2.40595 3.57011,-6.13128 3.57011,-9.54617 0,-8.61483 -6.67456,-14.51328 -16.37594,-14.51328 h -20.33412 z m 6.05367,-27.70716 v -18.39384 h 14.28045 c 6.13127,0 9.93422,3.33728 9.93422,8.69245 0,2.63877 -0.93134,5.04472 -2.63878,6.82978 -1.94028,2.01788 -4.34622,2.87161 -8.07156,2.87161 z"
           style="fill:#ffffff;fill-opacity:1"
           id="path851" />
        <path
           d="m 281.04392,126.17381 c -6.05367,-1.47462 -8.45962,-3.72534 -8.45962,-7.83873 0,-4.8895 4.65667,-8.45961 10.94317,-8.45961 3.4925,0 7.06261,1.24178 9.62378,3.4925 1.70744,1.47461 2.56117,2.87161 3.25967,5.588 l 5.82083,-1.62983 c -2.87161,-8.382 -9.23572,-12.72822 -18.47145,-12.72822 -10.4775,0 -17.4625,5.66561 -17.4625,14.12522 0,3.95817 1.47461,7.45067 4.191,10.01183 2.0955,1.86267 4.26861,2.794 8.53723,3.88056 l 10.32227,2.63878 c 4.96712,1.24177 7.91634,4.26861 7.91634,8.14916 0,5.89845 -4.73428,9.46856 -12.41778,9.46856 -7.91633,0 -12.88345,-3.41489 -15.28939,-10.55511 l -5.82083,1.24178 c 1.86266,4.8895 3.25966,7.14022 5.97605,9.62377 3.80295,3.57012 8.61484,5.19995 15.05656,5.19995 11.71928,0 19.24756,-6.13128 19.24756,-15.59984 0,-7.37305 -4.50145,-12.10733 -13.34912,-14.28044 z"
           style="fill:#ffffff;fill-opacity:1"
           id="path853" />
      </g>
    </g>
  </g>
  <g
     id="g4756"
     transform="translate(-84.470726,55.533676)">
    <text
       id="text4748"
       y="173.11681"
       x="58.799297"
       style="font-style:normal;font-variant:normal;font-weight:normal;font-stretch:normal;font-size:10.58333302px;line-height:1.25;font-family:'Franklin Gothic FS';-inkscape-font-specification:'Franklin Gothic FS';letter-spacing:0px;word-spacing:0px;fill:#000000;fill-opacity:1;stroke:none;stroke-width:0.26458332"
       xml:space="preserve"><tspan
         style="stroke-width:0.26458332"
         y="183.19214"
         x="58.799297"
         id="tspan4746" /></text>
    <text
       id="text4752"
       y="181.66943"
       x="109.84778"
       style="font-style:normal;font-variant:normal;font-weight:normal;font-stretch:normal;font-size:10.58333302px;line-height:1.25;font-family:'Franklin Gothic FS';-inkscape-font-specification:'Franklin Gothic FS';letter-spacing:0px;word-spacing:0px;fill:#000000;fill-opacity:1;stroke:none;stroke-width:0.26458332"
       xml:space="preserve"><tspan
         style="stroke-width:0.26458332"
         y="191.74477"
         x="109.84778"
         id="tspan4750" /></text>
  </g>
</svg>
